<svg width="484" height="485" viewBox="0 0 484 485" fill="none" xmlns="http://www.w3.org/2000/svg">
<g clip-path="url(#clip0_1305_390)">
<path d="M454.016 0.808838H29.9838C13.4242 0.808838 0 11.5482 0 24.7959V460.822C0 474.069 13.4242 484.809 29.9838 484.809H454.016C470.576 484.809 484 474.069 484 460.822V24.7959C484 11.5482 470.576 0.808838 454.016 0.808838Z" fill="#2C6654"/>
<path d="M386.28 480.937H59.8224L90.2902 341.661C90.2902 328.922 98.3972 317.422 111.417 309.33C112.457 308.652 113.571 308.013 114.684 307.394C127.494 300.519 142.601 296.902 158.026 297.017H288.464C304.377 296.878 319.946 300.723 332.992 308.013C347.222 316.164 356.2 328.186 356.2 341.603L385.458 477.123L386.28 480.937Z" fill="#284934" stroke="#284934" stroke-width="4" stroke-miterlimit="10"/>
<path d="M58.4672 241.512H382.747V242.499C382.747 262.046 373.041 280.793 355.763 294.615C338.486 308.437 315.052 316.203 290.618 316.203H150.597C126.162 316.203 102.729 308.437 85.4513 294.615C68.1737 280.793 58.4672 262.046 58.4672 242.499V241.512Z" fill="#284934" stroke="#284934" stroke-miterlimit="10"/>
<path d="M71.8014 199.365H84.1434C93.3793 199.365 102.237 202.3 108.768 207.525C115.298 212.749 118.967 219.835 118.967 227.224V249.178H107.521C102.663 249.181 97.8522 248.417 93.3642 246.929C88.8762 245.442 84.7991 243.261 81.3664 240.512C77.9337 237.762 75.2128 234.497 73.3597 230.905C71.5066 227.313 70.5577 223.463 70.5672 219.577V200.314C70.5797 200.059 70.7153 199.817 70.9454 199.64C71.1755 199.463 71.4823 199.365 71.8014 199.365Z" fill="#284934" stroke="#284934" stroke-miterlimit="10"/>
<path d="M82.6672 214.698C91.6527 214.698 100.27 217.554 106.624 222.637C112.978 227.72 116.547 234.614 116.547 241.802V245.345C107.562 245.345 98.9442 242.489 92.5904 237.406C86.2367 232.323 82.6672 225.429 82.6672 218.241V214.698Z" fill="#284934" stroke="#284934" stroke-miterlimit="10"/>
<path d="M336.114 249.178H324.643V227.224C324.643 223.565 325.544 219.943 327.294 216.563C329.044 213.183 331.609 210.112 334.843 207.525C338.076 204.938 341.915 202.886 346.14 201.486C350.365 200.086 354.894 199.365 359.467 199.365H370.889C371.467 199.365 372.021 199.549 372.429 199.875C372.838 200.202 373.067 200.645 373.067 201.107V219.615C373.07 223.498 372.117 227.344 370.261 230.932C368.405 234.52 365.683 237.78 362.251 240.525C358.819 243.271 354.744 245.448 350.259 246.933C345.774 248.418 340.968 249.181 336.114 249.178Z" fill="#284934" stroke="#284934" stroke-miterlimit="10"/>
<path d="M327.087 245.345V241.802C327.087 234.614 330.657 227.72 337.01 222.637C343.364 217.554 351.982 214.698 360.967 214.698V218.241C360.967 225.429 357.398 232.323 351.044 237.406C344.69 242.489 336.073 245.345 327.087 245.345Z" fill="#284934" stroke="#284934" stroke-miterlimit="10"/>
<path d="M247.808 126.571H195.826C145.359 126.571 104.447 159.301 104.447 199.675V222.036C104.447 262.409 145.359 295.139 195.826 295.139H247.808C298.275 295.139 339.187 262.409 339.187 222.036V199.675C339.187 159.301 298.275 126.571 247.808 126.571Z" fill="#284934" stroke="#284934" stroke-miterlimit="10"/>
<path d="M341.607 191.253V220.293C341.613 223.531 341.347 226.765 340.809 229.973C318.908 229.973 298.047 172.513 275.106 168.679C225.447 162.871 238.806 178.359 220.607 178.359C203.667 178.359 218.187 163.026 167.803 168.679C145.563 171.177 122.863 230.012 100.406 230.012C100.164 228.521 99.946 226.914 99.8008 225.23C99.6556 223.546 99.6072 221.997 99.6072 220.371V191.331C99.6516 181.772 102.052 172.315 106.67 163.5C111.288 154.685 118.034 146.684 126.522 139.957C135.01 133.23 145.072 127.908 156.134 124.296C167.195 120.683 179.039 118.851 190.986 118.905H250.228C262.167 118.851 274.003 120.681 285.058 124.288C296.114 127.896 306.172 133.211 314.658 139.93C323.145 146.649 329.893 154.64 334.517 163.446C339.141 172.253 341.55 181.702 341.607 191.253Z" fill="#284934" stroke="#284934" stroke-miterlimit="10"/>
<path d="M169.787 201.979C170.053 200.159 177.047 199.016 182.928 199.384C184.307 199.481 194.229 200.12 196.068 204.592C196.281 205.003 196.391 205.444 196.391 205.889C196.391 206.334 196.281 206.775 196.068 207.186C193.818 210.4 181.306 208.522 173.078 204.592C170.005 203.121 169.739 202.405 169.787 201.979Z" fill="#284934" stroke="#284934" stroke-miterlimit="10"/>
<path d="M273.92 203.857C273.678 202.037 266.66 200.875 260.779 201.262C259.4 201.262 249.478 201.998 247.663 206.451C247.438 206.863 247.322 207.308 247.322 207.758C247.322 208.207 247.438 208.652 247.663 209.064C249.889 212.278 262.425 210.4 270.629 206.451C273.702 204.999 273.992 204.282 273.92 203.857Z" fill="#284934" stroke="#284934" stroke-miterlimit="10"/>
<path d="M154.057 229.083C156.899 226.974 160.264 225.367 163.933 224.366C167.602 223.366 171.493 222.994 175.353 223.275C182.658 224.22 189.282 227.262 193.987 231.832" fill="#284934"/>
<path d="M154.057 229.083C156.899 226.974 160.264 225.367 163.933 224.366C167.602 223.366 171.493 222.994 175.353 223.275C182.658 224.22 189.282 227.262 193.987 231.832" stroke="#284934" stroke-width="2" stroke-miterlimit="10" stroke-linecap="round"/>
<path d="M287.52 230.806C284.678 228.697 281.313 227.09 277.644 226.089C273.976 225.089 270.085 224.717 266.224 224.998C258.925 225.955 252.305 228.995 247.59 233.555" fill="#284934"/>
<path d="M287.52 230.806C284.678 228.697 281.313 227.09 277.644 226.089C273.976 225.089 270.085 224.717 266.224 224.998C258.925 225.955 252.305 228.995 247.59 233.555" stroke="#284934" stroke-width="2" stroke-miterlimit="10" stroke-linecap="round"/>
<path d="M157.76 247.262H145.515C142.882 247.262 140.747 248.969 140.747 251.076V251.114C140.747 253.221 142.882 254.928 145.515 254.928H157.76C160.393 254.928 162.527 253.221 162.527 251.114V251.076C162.527 248.969 160.393 247.262 157.76 247.262Z" fill="#284934" stroke="#284934" stroke-miterlimit="10"/>
<path d="M295.7 247.262H283.455C280.822 247.262 278.687 248.969 278.687 251.076V251.114C278.687 253.221 280.822 254.928 283.455 254.928H295.7C298.333 254.928 300.467 253.221 300.467 251.114V251.076C300.467 248.969 298.333 247.262 295.7 247.262Z" fill="#284934" stroke="#284934" stroke-miterlimit="10"/>
<path d="M261.747 254.735V255.761C261.753 259.219 260.885 262.643 259.197 265.826C257.509 269.01 255.034 271.888 251.922 274.288C245.771 279.082 237.519 281.757 228.932 281.742H214.702C210.197 281.744 205.738 281.008 201.601 279.58C197.464 278.152 193.736 276.061 190.648 273.436C185.022 268.651 181.889 262.33 181.887 255.761V254.735C181.89 254.254 182.012 253.779 182.245 253.336C182.477 252.893 182.817 252.491 183.244 252.153C183.671 251.815 184.177 251.548 184.733 251.366C185.289 251.184 185.885 251.092 186.485 251.095H257.149C257.75 251.092 258.345 251.184 258.901 251.366C259.458 251.548 259.964 251.815 260.39 252.153C260.817 252.491 261.157 252.893 261.39 253.336C261.623 253.779 261.744 254.254 261.747 254.735Z" fill="#284934" stroke="#284934" stroke-width="2" stroke-miterlimit="10"/>
<path d="M251.922 274.637C245.656 279.243 237.442 281.782 228.932 281.742H214.702C210.235 281.75 205.81 281.051 201.682 279.685C197.553 278.32 193.803 276.314 190.648 273.785C191.316 271.003 193.08 268.466 195.681 266.544C199.152 263.935 203.744 262.493 208.507 262.517H233.917C238.248 262.437 242.468 263.623 245.783 265.855C249.098 268.086 251.281 271.209 251.922 274.637Z" fill="#284934" stroke="#284934" stroke-miterlimit="10"/>
<path d="M207.418 251.095L206.62 252.431L203.111 258.374L198.367 252.14L197.569 251.095H207.418Z" fill="#284934" stroke="#284934" stroke-miterlimit="10"/>
<path d="M247.542 251.095L247.034 251.753L241.976 258.374L238.515 252.199L237.886 251.095H247.542Z" fill="#284934" stroke="#284934" stroke-miterlimit="10"/>
<path d="M177.652 153.385L163.689 156.521C160.605 157.226 157.297 156.923 154.493 155.677C151.689 154.432 149.617 152.347 148.733 149.881C147.905 147.427 148.316 144.811 149.878 142.598C151.441 140.385 154.028 138.752 157.082 138.052L171.046 134.916C174.123 134.209 177.425 134.507 180.228 135.745C183.031 136.982 185.107 139.058 186.001 141.517C186.438 142.735 186.569 144.01 186.385 145.269C186.201 146.527 185.706 147.744 184.929 148.848C184.152 149.952 183.109 150.922 181.86 151.701C180.611 152.48 179.18 153.052 177.652 153.385Z" fill="#284934" stroke="#284934" stroke-miterlimit="10"/>
<path d="M140.094 161.826C138.098 162.264 135.967 162.06 134.158 161.257C132.348 160.453 131.004 159.115 130.414 157.528L129.639 155.34C129.353 154.546 129.267 153.714 129.386 152.892C129.506 152.071 129.828 151.277 130.335 150.556C130.842 149.835 131.522 149.203 132.338 148.695C133.153 148.186 134.087 147.813 135.084 147.596C137.08 147.153 139.214 147.355 141.025 148.159C142.836 148.963 144.179 150.305 144.764 151.894L145.539 154.082C145.829 154.876 145.917 155.709 145.799 156.532C145.682 157.354 145.36 158.149 144.852 158.87C144.345 159.592 143.663 160.225 142.846 160.732C142.029 161.24 141.093 161.612 140.094 161.826Z" fill="#284934" stroke="#284934" stroke-miterlimit="10"/>
<path d="M195.197 324.837H190.357C187.429 324.837 185.517 322.901 185.517 318.719V307.975C185.517 303.773 187.429 301.857 190.357 301.857H195.197C200.037 301.857 219.397 308.052 219.397 313.337C219.397 318.623 201.876 324.837 195.197 324.837Z" fill="#284934" stroke="#284934" stroke-miterlimit="10"/>
<path d="M248.098 325.244H253.108C256.157 325.244 258.117 323.308 258.117 318.913V307.781C258.117 303.425 256.157 301.431 253.108 301.431H248.098C243.089 301.431 223.027 307.858 223.027 313.337C223.027 318.816 241.177 325.244 248.098 325.244Z" fill="#284934" stroke="#284934" stroke-miterlimit="10"/>
<path d="M224.6 304.722H220.22C215.088 304.722 210.927 308.051 210.927 312.156V315.486C210.927 319.592 215.088 322.921 220.22 322.921H224.6C229.732 322.921 233.893 319.592 233.893 315.486V312.156C233.893 308.051 229.732 304.722 224.6 304.722Z" fill="#284934" stroke="#284934" stroke-miterlimit="10"/>
<path d="M206.789 310.433L195.778 307.045C195.581 306.987 195.4 306.899 195.247 306.784C195.093 306.669 194.97 306.531 194.884 306.378C194.799 306.224 194.752 306.059 194.748 305.891C194.743 305.723 194.781 305.556 194.858 305.4C194.936 305.243 195.051 305.1 195.198 304.979C195.344 304.858 195.519 304.762 195.713 304.695C195.906 304.629 196.114 304.593 196.325 304.591C196.535 304.589 196.744 304.621 196.94 304.683L207.951 308.071C208.345 308.193 208.663 308.434 208.835 308.742C209.007 309.051 209.02 309.401 208.87 309.717C208.793 309.874 208.678 310.017 208.531 310.138C208.384 310.258 208.209 310.355 208.016 310.422C207.822 310.488 207.614 310.523 207.404 310.525C207.193 310.527 206.984 310.496 206.789 310.433Z" fill="#284934" stroke="#284934" stroke-miterlimit="10"/>
<path d="M237.16 309.562L248.679 306C249.073 305.879 249.391 305.637 249.564 305.329C249.736 305.021 249.749 304.67 249.599 304.354C249.521 304.198 249.406 304.055 249.26 303.934C249.113 303.813 248.938 303.716 248.744 303.65C248.551 303.583 248.343 303.548 248.132 303.546C247.922 303.544 247.713 303.575 247.518 303.638L235.998 307.181C235.604 307.302 235.286 307.543 235.114 307.852C234.942 308.16 234.929 308.511 235.079 308.826C235.236 309.143 235.542 309.398 235.931 309.535C236.32 309.673 236.762 309.683 237.16 309.562Z" fill="#284934" stroke="#284934" stroke-miterlimit="10"/>
<path d="M214.436 312.757C214.316 312.775 214.193 312.775 214.073 312.757C213.794 312.655 213.573 312.473 213.452 312.248C213.331 312.022 213.32 311.769 213.42 311.537C213.987 309.999 215.148 308.644 216.735 307.665C218.239 306.731 220.109 306.257 222.011 306.329C222.311 306.358 222.584 306.48 222.774 306.668C222.964 306.856 223.055 307.095 223.027 307.336C223.027 307.858 222.495 308.323 221.914 308.246C220.489 308.204 219.089 308.552 217.945 309.233C216.781 309.985 215.936 311.006 215.525 312.156C215.455 312.34 215.309 312.499 215.111 312.608C214.914 312.717 214.676 312.769 214.436 312.757Z" fill="#284934" stroke="#284934" stroke-miterlimit="10"/>
<path d="M377.52 331.749C377.482 317.392 370.326 303.634 357.622 293.493C344.919 283.352 327.706 277.657 309.76 277.657H179.419C161.473 277.657 144.26 283.352 131.557 293.493C118.853 303.634 111.697 317.392 111.659 331.749L84.0708 484.809H404.842L377.52 331.749Z" fill="#B7253D"/>
<path d="M382.36 331.478C382.232 316.141 374.527 301.468 360.926 290.659C347.324 279.851 328.931 273.785 309.76 273.785H179.419C160.248 273.785 141.855 279.851 128.253 290.659C114.652 301.468 106.947 316.141 106.819 331.478L79.1824 484.809H88.8624L116.378 332.31V331.749C116.416 318.419 123.062 305.646 134.858 296.231C146.654 286.816 162.635 281.529 179.298 281.529H309.76C326.422 281.529 342.404 286.816 354.2 296.231C365.996 305.646 372.642 318.419 372.68 331.749V332.02L399.953 484.809H409.633L382.36 331.478Z" fill="#212020"/>
<path d="M79.86 221.513H404.14V223.313C404.14 242.861 394.434 261.607 377.156 275.43C359.878 289.252 336.445 297.017 312.011 297.017H171.989C147.555 297.017 124.122 289.252 106.844 275.43C89.5665 261.607 79.86 242.861 79.86 223.313V221.513Z" fill="#212020"/>
<path d="M93.1942 178.921H105.536C114.772 178.921 123.63 181.856 130.16 187.081C136.691 192.305 140.36 199.391 140.36 206.78V229.257H128.889C119.095 229.257 109.702 226.144 102.776 220.604C95.8507 215.063 91.96 207.549 91.96 199.714V179.908C91.96 179.779 91.9919 179.65 92.0539 179.53C92.116 179.411 92.2069 179.302 92.3215 179.21C92.4361 179.118 92.5721 179.046 92.7219 178.996C92.8716 178.946 93.0321 178.921 93.1942 178.921Z" fill="#D8D4D5"/>
<path d="M104.06 194.409C113.046 194.409 121.663 197.264 128.017 202.347C134.371 207.43 137.94 214.324 137.94 221.513V225.385C128.954 225.385 120.337 222.529 113.983 217.446C107.629 212.363 104.06 205.469 104.06 198.281V194.409Z" fill="#EAB2D5"/>
<path d="M357.531 229.257H346.06V206.78C346.06 199.391 349.729 192.305 356.26 187.081C362.79 181.856 371.648 178.921 380.884 178.921H392.282C392.86 178.921 393.414 179.104 393.822 179.431C394.231 179.758 394.46 180.201 394.46 180.663V199.713C394.46 207.549 390.569 215.063 383.644 220.604C376.718 226.144 367.325 229.257 357.531 229.257Z" fill="#D8D4D5"/>
<path d="M348.48 225.385V221.513C348.48 214.324 352.049 207.43 358.403 202.347C364.757 197.264 373.374 194.409 382.36 194.409V198.281C382.36 205.469 378.79 212.363 372.437 217.446C366.083 222.529 357.466 225.385 348.48 225.385Z" fill="#EAB2D5"/>
<path d="M269.201 105.353H217.219C166.752 105.353 125.84 138.082 125.84 178.456V202.617C125.84 242.991 166.752 275.721 217.219 275.721H269.201C319.668 275.721 360.58 242.991 360.58 202.617V178.456C360.58 138.082 319.668 105.353 269.201 105.353Z" fill="#D8D4D5"/>
<path d="M363 170.712V200.217C363 203.454 362.733 206.688 362.201 209.897C340.421 209.897 319.44 151.817 296.498 147.945C246.84 142.137 260.198 157.625 242 157.625C225.06 157.625 239.58 142.137 189.196 147.945C166.98 150.5 144.256 209.897 121.799 209.897C121.557 208.387 121.339 206.761 121.194 205.057C121.048 203.353 121 201.785 121 200.217V170.712C120.997 161.111 123.358 151.604 127.949 142.734C132.54 133.863 139.271 125.803 147.757 119.015C156.243 112.226 166.318 106.841 177.406 103.168C188.494 99.4955 200.378 97.6063 212.379 97.6089H271.621C283.622 97.6063 295.506 99.4955 306.594 103.168C317.682 106.841 327.757 112.226 336.243 119.015C344.729 125.803 351.46 133.863 356.051 142.734C360.642 151.604 363.003 161.111 363 170.712Z" fill="#212020"/>
<path d="M191.18 181.573C191.446 179.637 198.44 178.553 204.321 178.94C205.7 178.94 215.622 179.676 217.461 184.187C217.892 185.031 217.892 185.976 217.461 186.82C215.211 190.072 202.675 188.175 194.471 184.187C191.398 182.793 191.18 181.999 191.18 181.573Z" fill="#212020"/>
<path d="M295.24 183.451C294.974 181.515 287.98 180.45 282.099 180.837C280.72 180.837 270.798 181.573 268.959 186.084C268.528 186.928 268.528 187.873 268.959 188.717C271.209 191.969 283.745 190.072 291.949 186.084C295.095 184.593 295.361 183.896 295.24 183.451Z" fill="#212020"/>
<path d="M175.45 208.948C178.285 206.831 181.649 205.219 185.32 204.218C188.991 203.217 192.885 202.849 196.746 203.14C204.072 204.128 210.697 207.218 215.38 211.833" stroke="#212020" stroke-width="2" stroke-miterlimit="10" stroke-linecap="round"/>
<path d="M308.913 210.691C306.078 208.574 302.714 206.961 299.043 205.96C295.372 204.959 291.478 204.592 287.617 204.883C280.3 205.865 273.678 208.941 268.983 213.536" stroke="#212020" stroke-width="2" stroke-miterlimit="10" stroke-linecap="round"/>
<path d="M179.08 227.321H166.98C164.307 227.321 162.14 229.054 162.14 231.193C162.14 233.331 164.307 235.065 166.98 235.065H179.08C181.753 235.065 183.92 233.331 183.92 231.193C183.92 229.054 181.753 227.321 179.08 227.321Z" fill="#EAB2D5"/>
<path d="M317.02 227.321H304.92C302.247 227.321 300.08 229.054 300.08 231.193C300.08 233.331 302.247 235.065 304.92 235.065H317.02C319.693 235.065 321.86 233.331 321.86 231.193C321.86 229.054 319.693 227.321 317.02 227.321Z" fill="#EAB2D5"/>
<path d="M283.14 234.871V235.917C283.134 242.878 279.674 249.552 273.522 254.474C267.369 259.396 259.026 262.164 250.325 262.169H236.095C231.785 262.171 227.516 261.494 223.534 260.176C219.551 258.857 215.932 256.924 212.884 254.485C209.836 252.047 207.419 249.152 205.771 245.966C204.123 242.78 203.277 239.365 203.28 235.917V234.871C203.28 233.896 203.764 232.96 204.627 232.27C205.489 231.58 206.659 231.193 207.878 231.193H278.542C279.146 231.193 279.744 231.288 280.302 231.473C280.859 231.658 281.366 231.929 281.793 232.27C282.22 232.612 282.559 233.017 282.79 233.464C283.021 233.91 283.14 234.388 283.14 234.871Z" fill="#282627" stroke="#282627" stroke-width="2" stroke-miterlimit="10"/>
<path d="M273.315 255.006C267.069 259.645 258.848 262.206 250.325 262.169H236.095C231.624 262.186 227.194 261.489 223.063 260.12C218.933 258.75 215.185 256.735 212.04 254.192C212.702 251.387 214.466 248.823 217.074 246.874C220.534 244.246 225.129 242.789 229.9 242.809H255.31C259.653 242.739 263.878 243.94 267.193 246.185C270.508 248.431 272.685 251.567 273.315 255.006Z" fill="#B7253D"/>
<path d="M228.811 231.193L228.012 232.548L224.503 238.55L219.76 232.258L218.962 231.193H228.811Z" fill="#F9F7F7"/>
<path d="M268.935 231.193L268.426 231.87L263.369 238.55L259.908 232.316L259.279 231.193H268.935Z" fill="#F9F7F7"/>
<path d="M192.454 113.82L178.484 116.986C172.054 118.444 168.319 123.795 170.141 128.939C171.962 134.082 178.651 137.07 185.081 135.613L199.051 132.446C205.481 130.989 209.216 125.638 207.394 120.494C205.572 115.35 198.883 112.362 192.454 113.82Z" fill="#474747"/>
<path d="M166.142 130.979C164.955 127.625 160.593 125.677 156.401 126.627C152.209 127.577 149.774 131.066 150.962 134.42L151.74 136.618C152.928 139.971 157.289 141.92 161.481 140.969C165.673 140.019 168.109 136.53 166.921 133.177L166.142 130.979Z" fill="#474747"/>
<path d="M216.59 305.729H211.75C208.822 305.729 206.91 303.793 206.91 299.553V288.673C206.91 284.433 208.822 282.497 211.75 282.497H216.59C221.43 282.497 240.79 288.769 240.79 294.113C240.79 299.456 223.269 305.729 216.59 305.729Z" fill="#B7253D" stroke="#212121" stroke-miterlimit="10"/>
<path d="M269.491 306.135H274.501C277.526 306.135 279.51 304.199 279.51 299.747V288.479C279.51 284.084 277.526 282.09 274.501 282.09H269.491C264.482 282.09 244.42 288.576 244.42 294.113C244.42 299.65 262.57 306.135 269.491 306.135Z" fill="#B7253D" stroke="#212121" stroke-miterlimit="10"/>
<path d="M245.993 285.401H241.613C236.481 285.401 232.32 288.729 232.32 292.835V296.359C232.32 300.464 236.481 303.793 241.613 303.793H245.993C251.125 303.793 255.286 300.464 255.286 296.359V292.835C255.286 288.729 251.125 285.401 245.993 285.401Z" fill="#B7253D" stroke="#212020" stroke-miterlimit="10"/>
<path d="M229.332 288.797L218.305 285.363C217.483 285.107 216.557 285.433 216.237 286.09L216.228 286.108C215.908 286.766 216.315 287.507 217.137 287.763L228.165 291.197C228.987 291.453 229.913 291.127 230.233 290.47L230.241 290.452C230.561 289.794 230.154 289.053 229.332 288.797Z" fill="#D34F68"/>
<path d="M258.433 290.311L269.979 286.715C270.801 286.459 271.208 285.719 270.888 285.061L270.844 284.971C270.524 284.313 269.598 283.988 268.776 284.244L257.23 287.84C256.408 288.096 256.001 288.836 256.321 289.494L256.365 289.584C256.685 290.242 257.611 290.567 258.433 290.311Z" fill="#D34F68"/>
<path d="M235.805 293.513H235.466C235.185 293.407 234.961 293.223 234.836 292.995C234.711 292.767 234.694 292.511 234.788 292.274C235.373 290.737 236.54 289.384 238.128 288.402C239.625 287.458 241.501 286.983 243.404 287.066C243.703 287.095 243.977 287.216 244.167 287.404C244.357 287.592 244.447 287.832 244.42 288.073C244.42 288.615 243.863 289.079 243.307 289.002C241.877 288.951 240.47 289.308 239.338 290.009C238.17 290.765 237.324 291.794 236.918 292.951C236.838 293.131 236.685 293.284 236.483 293.386C236.281 293.488 236.042 293.532 235.805 293.513Z" fill="#D34F68"/>
</g>
<defs>
<clipPath id="clip0_1305_390">
<rect width="484" height="484" fill="white" transform="translate(0 0.808838)"/>
</clipPath>
</defs>
</svg>
