<svg width="312" height="313" viewBox="0 0 312 313" fill="none" xmlns="http://www.w3.org/2000/svg">
<g clip-path="url(#clip0_1305_185)">
<path d="M292.796 0.404419H19.2036C8.59774 0.404419 0 7.28262 0 15.7673V297.042C0 305.526 8.59774 312.404 19.2036 312.404H292.796C303.402 312.404 312 305.526 312 297.042V15.7673C312 7.28262 303.402 0.404419 292.796 0.404419Z" fill="#C41E46"/>
<g opacity="0.4">
<path d="M73.6008 129.997V247.434C73.6008 250.081 74.9157 252.621 77.2561 254.493C79.5966 256.366 82.7709 257.418 86.0808 257.418H94.3956C97.2775 257.42 100.072 256.625 102.304 255.167C104.536 253.709 106.069 251.677 106.642 249.418C106.799 248.768 106.877 248.108 106.876 247.446C106.873 245.046 107.952 242.725 109.914 240.91C111.876 239.094 114.59 237.904 117.559 237.559C120.528 237.213 123.553 237.735 126.08 239.028C128.608 240.321 130.468 242.299 131.321 244.601C131.667 245.523 131.841 246.482 131.836 247.446V254.996C131.836 257.644 133.15 260.184 135.491 262.056C137.831 263.929 141.006 264.98 144.316 264.98H152.646C155.956 264.98 159.13 263.929 161.471 262.056C163.811 260.184 165.126 257.644 165.126 254.996V247.396C165.121 246.432 165.294 245.474 165.641 244.551C166.494 242.25 168.354 240.271 170.881 238.978C173.409 237.685 176.434 237.163 179.403 237.509C182.372 237.854 185.086 239.044 187.048 240.86C189.01 242.676 190.088 244.996 190.086 247.396C190.088 247.763 190.114 248.13 190.164 248.494C190.502 250.937 191.954 253.194 194.242 254.833C196.53 256.473 199.494 257.38 202.566 257.38H210.881C214.191 257.38 217.365 256.328 219.705 254.456C222.046 252.583 223.361 250.044 223.361 247.396V129.959C223.361 114.072 215.472 98.8349 201.429 87.6008C187.386 76.3666 168.34 70.0553 148.481 70.0553C128.621 70.0553 109.575 76.3666 95.5326 87.6008C81.4899 98.8349 73.6008 114.072 73.6008 129.959V129.997Z" fill="#7F1332"/>
<path d="M90.5892 269.773H86.2524C79.2651 269.773 73.6008 274.304 73.6008 279.894V294.595C73.6008 300.185 79.2651 304.717 86.2524 304.717H90.5892C97.5765 304.717 103.241 300.185 103.241 294.595V279.894C103.241 274.304 97.5765 269.773 90.5892 269.773Z" fill="#7F1332"/>
<path d="M164.58 293.684V307.138C164.587 309.022 163.927 310.87 162.677 312.467H137.904C136.654 310.87 135.994 309.022 136.001 307.138V293.684C136.001 291 137.334 288.426 139.706 286.528C142.079 284.629 145.297 283.563 148.652 283.563H151.928C155.284 283.563 158.502 284.629 160.874 286.528C163.247 288.426 164.58 291 164.58 293.684Z" fill="#7F1332"/>
<path d="M209.149 275.688H208.978C201.99 275.688 196.326 280.22 196.326 285.81V295.606C196.326 301.196 201.99 305.728 208.978 305.728H209.149C216.136 305.728 221.801 301.196 221.801 295.606V285.81C221.801 280.22 216.136 275.688 209.149 275.688Z" fill="#7F1332"/>
</g>
<path d="M82.992 106.235V223.16C82.992 225.808 84.3069 228.347 86.6473 230.22C88.9878 232.092 92.1621 233.144 95.472 233.144H103.756C106.62 233.137 109.395 232.342 111.613 230.892C113.832 229.442 115.359 227.426 115.939 225.182C116.097 224.532 116.175 223.872 116.173 223.21C116.243 220.852 117.354 218.591 119.309 216.826C121.264 215.061 123.937 213.907 126.854 213.567C129.771 213.228 132.744 213.726 135.246 214.972C137.748 216.218 139.618 218.133 140.525 220.377C140.87 221.296 141.044 222.25 141.04 223.21V230.785C141.04 233.433 142.354 235.973 144.695 237.845C147.035 239.717 150.21 240.769 153.52 240.769H161.819C165.129 240.769 168.303 239.717 170.643 237.845C172.984 235.973 174.299 233.433 174.299 230.785V223.21C174.295 222.25 174.468 221.296 174.814 220.377C175.72 218.133 177.59 216.218 180.092 214.972C182.595 213.726 185.568 213.228 188.485 213.567C191.402 213.907 194.074 215.061 196.029 216.826C197.984 218.591 199.095 220.852 199.165 223.21C199.141 223.576 199.141 223.942 199.165 224.308C199.513 226.735 200.96 228.976 203.234 230.607C205.508 232.238 208.451 233.145 211.505 233.156H219.788C223.098 233.156 226.273 232.105 228.613 230.232C230.954 228.36 232.268 225.82 232.268 223.172V106.235C232.268 90.4135 224.412 75.2402 210.428 64.0528C196.444 52.8654 177.477 46.5804 157.7 46.5804C137.924 46.5804 118.957 52.8654 104.973 64.0528C90.9887 75.2402 83.1324 90.4135 83.1324 106.235H82.992Z" fill="#EFEBEA"/>
<path d="M99.6684 246.26H95.3316C88.3443 246.26 82.68 250.792 82.68 256.382V271.083C82.68 276.673 88.3443 281.204 95.3316 281.204H99.6684C106.656 281.204 112.32 276.673 112.32 271.083V256.382C112.32 250.792 106.656 246.26 99.6684 246.26Z" fill="#EFEBEA"/>
<path d="M161.008 259.988H157.732C150.744 259.988 145.08 264.52 145.08 270.11V283.563C145.08 289.153 150.744 293.684 157.732 293.684H161.008C167.995 293.684 173.659 289.153 173.659 283.563V270.11C173.659 264.52 167.995 259.988 161.008 259.988Z" fill="#EFEBEA"/>
<path d="M217.916 251.29H217.854C210.867 251.29 205.202 255.821 205.202 261.411V271.083C205.202 276.673 210.867 281.204 217.854 281.204H217.916C224.904 281.204 230.568 276.673 230.568 271.083V261.411C230.568 255.821 224.904 251.29 217.916 251.29Z" fill="#EFEBEA"/>
<path d="M140.4 180.915V221.3C139.805 219.767 138.731 218.379 137.28 217.269C134.891 215.474 131.736 214.475 128.458 214.475C125.18 214.475 122.026 215.474 119.636 217.269C118.485 218.137 117.567 219.183 116.936 220.344C116.306 221.505 115.978 222.756 115.97 224.021C115.994 224.37 115.994 224.72 115.97 225.069C115.684 224.257 115.537 223.417 115.534 222.573V180.915C115.534 178.267 116.848 175.728 119.189 173.855C121.529 171.983 124.704 170.931 128.014 170.931C131.324 170.931 134.498 171.983 136.838 173.855C139.179 175.728 140.494 178.267 140.494 180.915H140.4Z" fill="#BCABA7"/>
<path d="M199.68 182.188V223.884C199.683 224.56 199.588 225.234 199.399 225.893C199.243 225.273 199.164 224.641 199.165 224.009C199.16 222.739 198.833 221.484 198.203 220.319C197.573 219.154 196.653 218.104 195.499 217.232C193.122 215.426 189.964 214.424 186.685 214.436C184.039 214.418 181.453 215.073 179.303 216.306C177.152 217.54 175.547 219.289 174.72 221.3V182.188C174.72 179.54 176.035 177.001 178.375 175.128C180.716 173.256 183.89 172.204 187.2 172.204C190.51 172.204 193.684 173.256 196.025 175.128C198.365 177.001 199.68 179.54 199.68 182.188Z" fill="#BCABA7"/>
<path d="M207.48 91.0467C207.344 93.2511 206.791 95.4265 205.842 97.4988C205.672 97.8222 205.463 98.1316 205.218 98.4223C203.939 99.9574 202.098 100.519 198.978 101.804C191.786 104.862 178.308 100.719 174.299 93.1807C174.059 92.7257 173.856 92.2588 173.69 91.783C173.612 91.5953 173.549 91.4035 173.503 91.2089C171.023 82.398 171.943 73.9366 180.695 74.6355C189.446 75.3343 208.666 81.0502 207.48 91.0467Z" fill="#564F4E"/>
<path d="M172.988 124.393C172.992 125.51 172.877 126.624 172.645 127.725C172.217 130.553 170.477 133.148 167.77 134.997C165.063 136.847 161.586 137.814 158.028 137.709C151.788 137.709 144.097 134.989 141.991 128.25C141.596 126.997 141.402 125.71 141.414 124.418C141.414 114.871 150.68 103.202 158.028 103.202C165.376 103.202 172.988 114.846 172.988 124.393Z" fill="#564F4E"/>
<path d="M205.826 97.1619V97.4988C205.657 97.8222 205.448 98.1316 205.202 98.4223C203.923 99.9574 202.082 100.519 198.962 101.804C191.771 104.862 178.292 100.719 174.283 93.1807C174.043 92.7257 173.84 92.2588 173.675 91.783C173.191 86.0547 175.11 81.6243 181.288 82.111C189.337 82.7724 206.965 87.9891 205.826 97.1619Z" fill="#3D3939"/>
<path d="M109.98 91.6457C110.091 93.847 110.617 96.0222 111.54 98.0979C111.761 98.4179 112.022 98.719 112.32 98.9964C113.599 100.531 115.44 101.093 118.56 102.379C125.752 105.436 139.23 101.293 143.239 93.7548C143.479 93.2998 143.682 92.8329 143.848 92.3571C143.926 92.1694 143.989 91.9776 144.035 91.783C146.515 82.9721 145.595 74.5107 136.843 75.2096C128.092 75.9084 108.732 81.6492 109.98 91.6457Z" fill="#564F4E"/>
<path d="M111.571 97.7484V98.0854C111.781 98.4086 112.032 98.7139 112.32 98.9964C113.599 100.531 115.44 101.093 118.56 102.379C125.752 105.436 139.23 101.293 143.239 93.7548C143.479 93.2998 143.682 92.8329 143.848 92.3571C144.331 86.6288 142.412 82.1984 136.235 82.6851C128.06 83.3465 110.432 88.5881 111.571 97.7484Z" fill="#3D3939"/>
<path d="M172.645 127.7C172.217 130.528 170.477 133.123 167.77 134.972C165.063 136.822 161.586 137.79 158.028 137.684C151.788 137.684 144.097 134.964 141.991 128.225C144.269 119.801 151.913 111.402 158.153 111.402C164.393 111.402 170.602 119.476 172.645 127.7Z" fill="#3D3939"/>
</g>
<defs>
<clipPath id="clip0_1305_185">
<rect width="312" height="312" fill="white" transform="translate(0 0.404419)"/>
</clipPath>
</defs>
</svg>
