<svg width="312" height="313" viewBox="0 0 312 313" fill="none" xmlns="http://www.w3.org/2000/svg">
<g clip-path="url(#clip0_1305_228)">
<path d="M292.391 0.404419H19.6092C8.77934 0.404419 0 7.42789 0 16.0918V296.717C0 305.381 8.77934 312.404 19.6092 312.404H292.391C303.221 312.404 312 305.381 312 296.717V16.0918C312 7.42789 303.221 0.404419 292.391 0.404419Z" fill="#DD9954"/>
<g opacity="0.32">
<path d="M217.682 240.02V312.404H64.974V240.02C64.9776 236.685 65.8065 233.383 67.413 230.305C69.0195 227.227 71.3717 224.434 74.334 222.087C76.4898 220.35 78.9554 218.878 81.6504 217.719C82.134 217.506 82.6332 217.294 83.2104 217.107C83.6197 216.933 84.0416 216.779 84.474 216.645C88.37 215.318 92.5632 214.638 96.798 214.649H185.952C189.169 214.642 192.369 215.033 195.437 215.809C196.408 216.043 197.361 216.322 198.292 216.645C199.244 216.958 200.171 217.316 201.068 217.719C206.089 219.897 210.283 223.118 213.207 227.043C216.131 230.968 217.677 235.451 217.682 240.02Z" fill="black"/>
<path d="M217.682 240.02V312.404H64.974V240.02C64.9776 236.685 65.8065 233.383 67.413 230.305C69.0195 227.227 71.3717 224.434 74.334 222.087C76.4898 220.35 78.9554 218.878 81.6504 217.719C82.134 217.506 82.6332 217.294 83.2104 217.107C83.6197 216.933 84.0416 216.779 84.474 216.645C88.37 215.318 92.5632 214.638 96.798 214.649H115.612L116.922 215.497L124.925 220.689L140.306 230.673L156.858 220.689L164.346 216.159L166.858 214.649H185.952C189.169 214.642 192.369 215.033 195.437 215.809C196.408 216.043 197.361 216.322 198.292 216.645C199.244 216.958 200.171 217.316 201.068 217.719C206.089 219.897 210.283 223.118 213.207 227.043C216.131 230.968 217.677 235.451 217.682 240.02Z" fill="black"/>
<path d="M172.193 93.7922H107.156C78.3629 93.7922 55.0212 112.466 55.0212 135.5V163.618C55.0212 186.653 78.3629 205.326 107.156 205.326H172.193C200.986 205.326 224.328 186.653 224.328 163.618V135.5C224.328 112.466 200.986 93.7922 172.193 93.7922Z" fill="black"/>
<path d="M116.314 100.432H164.954C179.435 100.432 193.323 105.034 203.562 113.225C213.802 121.417 219.554 132.527 219.554 144.112V156.716C219.554 172.442 211.746 187.523 197.846 198.643C183.947 209.762 165.095 216.009 145.439 216.009H135.907C116.251 216.009 97.3989 209.762 83.4996 198.643C69.6002 187.523 61.7916 172.442 61.7916 156.716V144.112C61.7916 132.538 67.5334 121.437 77.756 113.247C87.9786 105.057 101.846 100.448 116.314 100.432Z" fill="black"/>
<path d="M117.421 160.186H113.771C109.739 160.186 106.47 162.801 106.47 166.026V174.263C106.47 177.489 109.739 180.104 113.771 180.104H117.421C121.453 180.104 124.722 177.489 124.722 174.263V166.026C124.722 162.801 121.453 160.186 117.421 160.186Z" fill="black"/>
<path d="M168.87 160.186H165.22C161.187 160.186 157.919 162.801 157.919 166.026V174.263C157.919 177.489 161.187 180.104 165.22 180.104H168.87C172.902 180.104 176.171 177.489 176.171 174.263V166.026C176.171 162.801 172.902 160.186 168.87 160.186Z" fill="black"/>
<path d="M111.088 184.085H98.5452C95.59 184.085 93.1944 186.002 93.1944 188.366V190.425C93.1944 192.789 95.59 194.706 98.5452 194.706H111.088C114.043 194.706 116.438 192.789 116.438 190.425V188.366C116.438 186.002 114.043 184.085 111.088 184.085Z" fill="black"/>
<path d="M185.78 184.085H173.238C170.283 184.085 167.887 186.002 167.887 188.366V190.425C167.887 192.789 170.283 194.706 173.238 194.706H185.78C188.736 194.706 191.131 192.789 191.131 190.425V188.366C191.131 186.002 188.736 184.085 185.78 184.085Z" fill="black"/>
<path d="M116.438 154.208C113.151 153.726 109.812 153.504 106.47 153.546C103.686 153.592 100.911 153.813 98.1708 154.208C97.5449 154.168 96.9607 153.941 96.5346 153.572C96.1086 153.203 95.872 152.72 95.872 152.217C95.872 151.715 96.1086 151.231 96.5346 150.862C96.9607 150.493 97.5449 150.266 98.1708 150.227C101.458 149.744 104.797 149.523 108.139 149.565C110.924 149.599 113.7 149.821 116.438 150.227C117.064 150.266 117.648 150.493 118.075 150.862C118.501 151.231 118.737 151.715 118.737 152.217C118.737 152.72 118.501 153.203 118.075 153.572C117.648 153.941 117.064 154.168 116.438 154.208Z" fill="black"/>
<path d="M184.61 153.571C181.323 153.089 177.984 152.868 174.642 152.91C171.857 152.943 169.081 153.165 166.343 153.571C165.717 153.532 165.133 153.305 164.707 152.936C164.281 152.567 164.044 152.083 164.044 151.581C164.044 151.079 164.281 150.595 164.707 150.226C165.133 149.857 165.717 149.63 166.343 149.59C169.62 149.105 172.948 148.88 176.28 148.916C179.065 148.95 181.841 149.171 184.579 149.578C185.205 149.618 185.789 149.844 186.215 150.213C186.641 150.582 186.878 151.066 186.878 151.568C186.878 152.071 186.641 152.555 186.215 152.923C185.789 153.292 185.205 153.519 184.579 153.559L184.61 153.571Z" fill="black"/>
<path d="M129.324 137.572H58.3284V127.251C58.3408 119.077 62.4097 111.241 69.6408 105.465C76.8719 99.6895 86.6735 96.4471 96.8916 96.4504H167.872V106.771C167.859 114.944 163.792 122.778 156.565 128.553C149.337 134.328 139.539 137.572 129.324 137.572Z" fill="black"/>
<path d="M163.8 96.101H179.072C189.296 96.101 199.101 99.35 206.33 105.133C213.559 110.917 217.62 118.76 217.62 126.939V137.26H202.348C192.138 137.26 182.345 134.02 175.118 128.25C167.891 122.48 163.821 114.652 163.8 106.484V96.101Z" fill="black"/>
<path d="M214.016 115.383C209.395 109.663 203.056 104.961 195.578 101.707C188.101 98.4517 179.723 96.7476 171.21 96.75H104.13C93.9857 96.7308 84.0678 99.1481 75.66 103.689C71.8444 105.753 68.3876 108.212 65.3796 111.002C57.4218 118.386 53.0429 127.81 53.04 137.56V179.867C53.0419 187.727 55.8773 195.419 61.2065 202.022C66.5356 208.625 74.1323 213.859 83.0856 217.095C89.6783 219.463 96.825 220.684 104.052 220.676H171.21C177.911 220.681 184.547 219.629 190.739 217.58C196.931 215.531 202.557 212.525 207.295 208.735C212.033 204.944 215.79 200.443 218.351 195.49C220.913 190.536 222.228 185.227 222.222 179.867V137.56C222.244 129.686 219.392 121.978 214.016 115.383ZM211.427 187.118C211.43 187.686 211.222 188.243 210.829 188.717C210.436 189.191 209.875 189.561 209.219 189.78C208.563 189.998 207.84 190.056 207.143 189.946C206.445 189.836 205.804 189.562 205.302 189.16C204.799 188.758 204.457 188.245 204.319 187.687C204.181 187.129 204.253 186.551 204.527 186.026C204.8 185.501 205.263 185.053 205.855 184.738C206.448 184.424 207.143 184.257 207.854 184.26C208.23 184.261 208.604 184.307 208.962 184.397C209.678 184.586 210.302 184.95 210.744 185.439C211.186 185.927 211.425 186.515 211.427 187.118ZM168.558 209.107C168.78 208.365 169.362 207.723 170.175 207.323C170.988 206.923 171.966 206.797 172.895 206.973C173.621 207.108 174.276 207.421 174.768 207.869C175.26 208.317 175.565 208.876 175.64 209.469C175.717 209.799 175.717 210.138 175.64 210.468C175.532 210.835 175.334 211.182 175.059 211.488C174.783 211.794 174.434 212.053 174.033 212.252C173.632 212.45 173.185 212.583 172.72 212.643C172.254 212.703 171.778 212.689 171.319 212.602C170.584 212.46 169.92 212.143 169.416 211.691C169.024 211.347 168.741 210.933 168.592 210.483C168.443 210.033 168.431 209.562 168.558 209.107ZM64.896 131.844C65.1722 131.793 65.4549 131.768 65.7384 131.769C66.6449 131.775 67.5142 132.058 68.1686 132.56C68.8231 133.062 69.2132 133.745 69.2594 134.469C69.3055 135.194 69.0042 135.905 68.417 136.457C67.8298 137.01 67.001 137.362 66.1 137.442C65.1989 137.522 64.2937 137.324 63.5692 136.888C62.8447 136.452 62.3556 135.811 62.2019 135.097C62.0482 134.382 62.2414 133.647 62.7422 133.043C63.2429 132.438 64.0133 132.009 64.896 131.844ZM108.872 116.219C108.872 116.786 108.662 117.34 108.269 117.812C107.875 118.284 107.316 118.652 106.661 118.869C106.006 119.087 105.286 119.145 104.59 119.035C103.895 118.925 103.255 118.653 102.753 118.253C102.25 117.853 101.907 117.342 101.767 116.786C101.627 116.23 101.696 115.654 101.965 115.129C102.234 114.604 102.692 114.155 103.28 113.838C103.868 113.521 104.56 113.351 105.269 113.348C106.222 113.348 107.136 113.65 107.811 114.188C108.487 114.726 108.868 115.456 108.872 116.219ZM105.269 128.948C105.979 128.946 106.674 129.112 107.266 129.426C107.859 129.74 108.321 130.187 108.595 130.712C108.869 131.236 108.942 131.813 108.805 132.371C108.669 132.929 108.328 133.441 107.827 133.844C107.326 134.247 106.687 134.521 105.99 134.633C105.294 134.745 104.571 134.689 103.915 134.472C103.258 134.255 102.697 133.887 102.302 133.415C101.907 132.942 101.696 132.387 101.696 131.819C101.696 131.06 102.072 130.331 102.742 129.794C103.411 129.256 104.32 128.952 105.269 128.948ZM174.72 113.348C175.433 113.348 176.131 113.518 176.724 113.835C177.317 114.152 177.778 114.603 178.051 115.131C178.323 115.658 178.393 116.239 178.253 116.798C178.113 117.358 177.768 117.872 177.263 118.274C176.757 118.677 176.113 118.95 175.413 119.06C174.713 119.17 173.988 119.111 173.33 118.891C172.672 118.671 172.11 118.3 171.716 117.824C171.322 117.348 171.113 116.79 171.116 116.219C171.121 115.456 171.502 114.726 172.177 114.188C172.853 113.65 173.767 113.348 174.72 113.348ZM156.64 200.708C156.42 201.45 155.842 202.091 155.031 202.491C154.221 202.892 153.245 203.018 152.318 202.842C151.392 202.667 150.59 202.204 150.09 201.556C149.589 200.908 149.432 200.127 149.651 199.386C149.872 198.644 150.453 198.003 151.264 197.604C152.076 197.205 153.053 197.081 153.98 197.258C154.907 197.435 155.707 197.899 156.206 198.549C156.705 199.198 156.861 199.979 156.64 200.721V200.708ZM78.4056 173.315C79.0675 173.351 79.7012 173.543 80.2267 173.866C80.7522 174.19 81.1458 174.632 81.3577 175.135C81.5697 175.637 81.5905 176.179 81.4175 176.692C81.2445 177.204 80.8855 177.664 80.3858 178.013C79.8862 178.362 79.2684 178.585 78.6105 178.653C77.9526 178.721 77.2842 178.632 76.6899 178.396C76.0955 178.16 75.6019 177.789 75.2714 177.329C74.9409 176.869 74.7884 176.34 74.8332 175.811C74.8932 175.101 75.3033 174.439 75.9733 173.971C76.6432 173.503 77.5181 173.267 78.4056 173.315ZM72.1656 146.583C72.1656 146.014 72.3764 145.459 72.7714 144.987C73.1663 144.514 73.7276 144.146 74.3842 143.93C75.0407 143.713 75.7629 143.657 76.4593 143.768C77.1558 143.88 77.7951 144.155 78.2962 144.557C78.7974 144.96 79.1379 145.473 79.2746 146.03C79.4112 146.588 79.3379 147.165 79.064 147.69C78.79 148.214 78.3277 148.661 77.7356 148.975C77.1435 149.289 76.4483 149.456 75.738 149.453C75.2642 149.456 74.7943 149.385 74.3554 149.242C73.9164 149.099 73.5172 148.888 73.1807 148.621C72.8442 148.354 72.5771 148.037 72.3949 147.687C72.2126 147.337 72.1188 146.962 72.1188 146.583H72.1656ZM97.812 186.756C97.8125 187.36 97.5593 187.947 97.0928 188.422C96.6264 188.898 95.9739 189.234 95.24 189.377C94.5061 189.52 93.7334 189.461 93.0459 189.211C92.3585 188.961 91.7962 188.533 91.4492 187.996C91.1023 187.459 90.9909 186.845 91.1329 186.251C91.2748 185.657 91.662 185.119 92.2322 184.723C92.8023 184.327 93.5224 184.095 94.2769 184.065C95.0313 184.036 95.7764 184.21 96.3924 184.559C96.8319 184.807 97.1903 185.137 97.4373 185.519C97.6844 185.901 97.8129 186.325 97.812 186.756ZM111.119 181.065H100.963C98.5757 181.065 96.2854 180.309 94.5928 178.962C92.9003 177.615 91.9432 175.786 91.9308 173.876V168.41C91.9308 166.494 92.8824 164.656 94.5763 163.301C96.2702 161.946 98.5677 161.184 100.963 161.184H111.119C113.5 161.194 115.78 161.954 117.465 163.3C119.15 164.645 120.104 166.468 120.12 168.373V173.876C120.112 175.146 119.685 176.392 118.883 177.488C118.08 178.583 116.93 179.49 115.549 180.116C114.203 180.739 112.674 181.066 111.119 181.065ZM101.759 146.82C101.767 146.291 101.958 145.775 102.309 145.328C102.661 144.881 103.16 144.52 103.752 144.285C104.344 144.05 105.005 143.95 105.663 143.997C106.321 144.044 106.95 144.234 107.481 144.549C108.012 144.863 108.424 145.289 108.672 145.778C108.92 146.268 108.994 146.803 108.886 147.324C108.779 147.846 108.493 148.333 108.061 148.733C107.629 149.133 107.068 149.429 106.439 149.59C106.118 149.656 105.787 149.689 105.456 149.69C105.217 149.704 104.977 149.704 104.738 149.69C103.886 149.583 103.11 149.234 102.551 148.707C101.993 148.18 101.69 147.51 101.696 146.82H101.759ZM171.116 146.82C171.177 146.09 171.582 145.405 172.249 144.905C172.917 144.405 173.798 144.126 174.712 144.126C175.627 144.126 176.507 144.405 177.175 144.905C177.843 145.405 178.248 146.09 178.308 146.82C178.311 147.218 178.208 147.611 178.006 147.975C177.805 148.339 177.509 148.664 177.138 148.929C176.486 149.424 175.619 149.697 174.72 149.69C173.861 149.698 173.029 149.454 172.38 149.004C171.971 148.741 171.64 148.408 171.411 148.031C171.182 147.653 171.06 147.24 171.054 146.82H171.116ZM171.116 131.844C171.113 131.273 171.322 130.714 171.716 130.239C172.11 129.763 172.672 129.392 173.33 129.171C173.988 128.951 174.713 128.892 175.413 129.002C176.113 129.112 176.757 129.386 177.263 129.788C177.768 130.191 178.113 130.705 178.253 131.264C178.393 131.824 178.323 132.404 178.051 132.932C177.778 133.459 177.317 133.91 176.724 134.227C176.131 134.545 175.433 134.714 174.72 134.714C174.24 134.723 173.762 134.654 173.316 134.512C172.869 134.37 172.463 134.157 172.121 133.887C171.779 133.617 171.509 133.295 171.325 132.94C171.142 132.584 171.05 132.203 171.054 131.819L171.116 131.844ZM150.166 149.69C149.456 149.69 148.762 149.522 148.172 149.206C147.582 148.891 147.122 148.443 146.851 147.918C146.579 147.394 146.508 146.817 146.647 146.26C146.785 145.703 147.127 145.192 147.629 144.79C148.13 144.389 148.77 144.115 149.466 144.005C150.162 143.894 150.883 143.951 151.539 144.168C152.194 144.385 152.755 144.753 153.149 145.225C153.543 145.697 153.754 146.252 153.754 146.82C153.756 147.197 153.664 147.571 153.485 147.92C153.305 148.269 153.041 148.586 152.707 148.853C152.374 149.12 151.977 149.331 151.541 149.475C151.105 149.619 150.637 149.692 150.166 149.69ZM131.68 146.82C131.68 147.387 131.469 147.942 131.075 148.414C130.681 148.886 130.12 149.254 129.465 149.472C128.809 149.689 128.088 149.746 127.392 149.635C126.696 149.524 126.056 149.251 125.555 148.849C125.053 148.448 124.711 147.937 124.573 147.38C124.434 146.823 124.505 146.246 124.777 145.721C125.048 145.197 125.508 144.749 126.098 144.433C126.688 144.118 127.382 143.949 128.092 143.949C128.563 143.948 129.031 144.021 129.467 144.164C129.903 144.308 130.3 144.52 130.633 144.786C130.967 145.053 131.231 145.37 131.411 145.719C131.59 146.068 131.682 146.442 131.68 146.82ZM119.605 199.373C119.767 198.817 120.132 198.312 120.653 197.922C121.174 197.532 121.829 197.274 122.533 197.182C123.238 197.09 123.96 197.167 124.61 197.404C125.259 197.641 125.806 198.027 126.181 198.513C126.556 198.998 126.742 199.563 126.716 200.133C126.69 200.704 126.452 201.255 126.033 201.718C125.615 202.18 125.034 202.533 124.364 202.731C123.695 202.929 122.967 202.963 122.273 202.83C121.813 202.745 121.378 202.588 120.995 202.367C120.611 202.147 120.286 201.868 120.037 201.547C119.789 201.225 119.623 200.868 119.549 200.495C119.475 200.121 119.494 199.74 119.605 199.373ZM134.16 187.704C135.064 186.995 136.279 186.596 137.545 186.594H140.322C141.584 186.6 142.792 187.005 143.683 187.72C144.574 188.435 145.076 189.403 145.08 190.412C145.08 191.429 144.575 192.403 143.677 193.122C142.779 193.84 141.561 194.244 140.291 194.244H137.483C136.545 194.228 135.633 193.993 134.86 193.567C134.087 193.141 133.486 192.544 133.133 191.848C132.78 191.153 132.689 190.39 132.871 189.653C133.054 188.917 133.502 188.239 134.16 187.704ZM159.978 173.876V168.41C159.982 166.495 160.935 164.659 162.628 163.304C164.321 161.95 166.616 161.188 169.01 161.184H179.166C181.56 161.188 183.855 161.95 185.548 163.304C187.241 164.659 188.194 166.495 188.198 168.41V173.876C188.198 175.793 187.247 177.631 185.553 178.986C183.859 180.341 181.562 181.102 179.166 181.102H169.01C167.357 181.106 165.736 180.738 164.33 180.042C163.002 179.402 161.902 178.498 161.14 177.417C160.377 176.337 159.977 175.117 159.978 173.876ZM187.028 187.317C187.02 186.848 187.158 186.383 187.43 185.967C187.703 185.551 188.101 185.196 188.588 184.934C189.166 184.614 189.852 184.444 190.554 184.447C191.467 184.441 192.349 184.714 193.019 185.21C193.689 185.707 194.098 186.388 194.161 187.117C194.225 187.846 193.939 188.567 193.361 189.133C192.784 189.698 191.958 190.067 191.053 190.163H190.554C189.611 190.15 188.712 189.84 188.052 189.3C187.392 188.761 187.024 188.035 187.028 187.28V187.317ZM196.186 175.861C196.189 175.295 196.401 174.744 196.796 174.275C197.191 173.806 197.751 173.442 198.405 173.228C199.059 173.014 199.778 172.96 200.47 173.073C201.163 173.185 201.798 173.46 202.295 173.861C202.792 174.263 203.13 174.773 203.265 175.328C203.4 175.883 203.326 176.457 203.052 176.978C202.779 177.5 202.319 177.944 201.73 178.256C201.141 178.568 200.449 178.734 199.742 178.731C199.269 178.73 198.801 178.653 198.366 178.505C197.93 178.358 197.535 178.143 197.204 177.872C196.873 177.602 196.613 177.281 196.438 176.929C196.263 176.578 196.177 176.202 196.186 175.823V175.861ZM199.914 147.955C199.908 147.384 200.114 146.823 200.507 146.346C200.9 145.868 201.462 145.495 202.12 145.273C202.779 145.051 203.506 144.991 204.207 145.101C204.909 145.21 205.554 145.484 206.06 145.888C206.567 146.291 206.912 146.806 207.051 147.367C207.191 147.927 207.12 148.509 206.845 149.037C206.571 149.565 206.107 150.015 205.512 150.332C204.916 150.648 204.217 150.816 203.502 150.813C203.028 150.813 202.559 150.738 202.122 150.593C201.684 150.447 201.287 150.233 200.954 149.964C200.62 149.695 200.357 149.375 200.178 149.024C200 148.673 199.91 148.297 199.914 147.918V147.955ZM206.56 134.677C206.556 134.158 206.728 133.648 207.058 133.202C207.388 132.755 207.863 132.388 208.432 132.14C209.002 131.892 209.645 131.772 210.293 131.793C210.941 131.814 211.569 131.975 212.112 132.259C212.654 132.543 213.091 132.94 213.374 133.406C213.658 133.873 213.778 134.392 213.722 134.909C213.666 135.425 213.436 135.921 213.057 136.341C212.678 136.762 212.163 137.092 211.567 137.298C211.117 137.454 210.631 137.534 210.14 137.534C209.649 137.534 209.163 137.454 208.712 137.298C208.066 137.074 207.517 136.702 207.134 136.229C206.751 135.756 206.551 135.203 206.56 134.639V134.677ZM68.64 187.679C68.64 186.966 68.9929 186.283 69.6214 185.778C70.25 185.272 71.103 184.987 71.994 184.984C72.2482 184.965 72.5042 184.965 72.7584 184.984C73.4997 185.124 74.1601 185.46 74.6328 185.938C75.1056 186.416 75.363 187.007 75.3636 187.617C75.3616 187.806 75.3355 187.994 75.2856 188.178C75.1252 188.837 74.662 189.424 73.9873 189.823C73.3126 190.222 72.4755 190.404 71.6411 190.334C70.8067 190.263 70.0357 189.945 69.4801 189.442C68.9245 188.939 68.6248 188.288 68.64 187.617V187.679ZM106.642 210.43C106.422 211.172 105.844 211.813 105.033 212.213C104.223 212.614 103.247 212.74 102.32 212.564C101.394 212.389 100.592 211.926 100.092 211.278C99.5914 210.63 99.4335 209.849 99.6528 209.107C99.8505 208.445 100.33 207.858 101.01 207.448C101.428 207.201 101.909 207.031 102.418 206.949C102.928 206.867 103.453 206.875 103.958 206.973C104.769 207.123 105.489 207.494 105.996 208.023C106.503 208.551 106.764 209.203 106.735 209.869C106.735 210.057 106.719 210.244 106.688 210.43H106.642ZM123.053 218.243C122.579 218.244 122.109 218.171 121.671 218.027C121.233 217.882 120.835 217.67 120.5 217.402C120.165 217.134 119.9 216.816 119.719 216.465C119.539 216.115 119.447 215.739 119.449 215.36C119.443 215.115 119.485 214.871 119.574 214.636C119.697 214.339 119.882 214.061 120.12 213.812C120.504 213.352 121.046 212.991 121.681 212.77C122.315 212.55 123.016 212.48 123.698 212.57C124.381 212.659 125.017 212.904 125.531 213.275C126.044 213.646 126.413 214.127 126.594 214.661C126.643 214.774 126.675 214.891 126.688 215.01C126.696 215.135 126.696 215.26 126.688 215.385C126.683 216.144 126.304 216.871 125.631 217.406C124.959 217.942 124.049 218.243 123.1 218.243H123.053ZM153.036 216.92C152.408 216.927 151.789 216.801 151.242 216.556C150.694 216.31 150.237 215.954 149.916 215.522C149.702 215.25 149.549 214.95 149.464 214.636C149.448 214.437 149.448 214.237 149.464 214.037C149.464 213.276 149.842 212.546 150.515 212.007C151.187 211.469 152.1 211.167 153.052 211.167C154.003 211.167 154.916 211.469 155.589 212.007C156.262 212.546 156.64 213.276 156.64 214.037C156.655 214.237 156.655 214.437 156.64 214.636C156.467 215.287 156.019 215.869 155.37 216.285C154.722 216.702 153.914 216.926 153.083 216.92H153.036Z" fill="black"/>
<path d="M98.7012 154.819L139.292 154.757L179.884 154.695L159.604 159.911L139.324 165.14L119.012 159.974L98.7012 154.819Z" fill="black"/>
<path d="M81.5568 208.77L97.3128 195.542L113.053 182.325L113.256 182.388L96.2208 207.934L96.3612 207.435L81.5568 208.77Z" fill="black"/>
<path d="M196.108 208.047L180.367 194.83L164.611 181.602L164.408 181.676L181.459 207.223L181.319 206.724L196.108 208.047Z" fill="black"/>
<path d="M285.184 226.579L284.903 227.366L280.831 238.598C273 250.004 266.76 258.928 261.877 266.004L258.102 271.57C256.09 274.515 254.389 277.049 252.97 279.208C247.057 288.068 245.544 290.664 245.544 290.664L235.654 297.753L234.234 298.776L225.763 304.842L230.646 296.106L279.24 209.395L285.184 226.579Z" fill="black"/>
<path d="M234.281 300.948L225.467 312.404H218.135L218.65 311.631L227.635 298.289L230.381 296.056L230.63 296.168L234.187 297.603L234.218 298.776L234.281 300.948Z" fill="black"/>
<path d="M222.799 312.404H210.881C212.789 311.843 214.807 311.56 216.84 311.568H217.682H218.65C220.071 311.709 221.465 311.99 222.799 312.404Z" fill="black"/>
<path d="M258.102 271.57C256.09 274.515 254.389 277.049 252.97 279.208C250.895 277.96 249.616 274.777 250.879 273.055C252.143 271.333 255.325 272.032 258.102 271.57Z" fill="black"/>
<path d="M284.903 227.366L280.831 238.598C273 250.004 266.76 258.928 261.877 266.004C261.487 263.433 260.551 260.113 262.486 255.795C263.392 253.947 264.504 252.168 265.808 250.479C267.836 247.87 268.928 247.583 270.785 245.175C272.862 242.695 274.539 240.016 275.777 237.2C277.789 232.483 276.884 230.873 279.084 229.238C280.701 228.103 282.754 227.443 284.903 227.366Z" fill="black"/>
</g>
<path d="M110.76 198.212H203.83C211.736 198.212 219.319 200.725 224.91 205.198C230.5 209.67 233.641 215.737 233.641 222.062V312.404H80.8704V222.062C80.8704 218.925 81.6441 215.818 83.1471 212.921C84.6502 210.023 86.853 207.391 89.6296 205.176C92.4061 202.96 95.7017 201.205 99.3276 200.01C102.954 198.815 106.839 198.204 110.76 198.212Z" fill="#9E9795"/>
<path d="M233.579 223.584V312.404H80.8704V223.584C80.8745 216.854 84.2194 210.401 90.1695 205.643C96.1197 200.885 104.188 198.212 112.601 198.212H131.508L132.834 199.061L156.234 214.249L180.258 199.722L182.77 198.212H201.864C210.274 198.216 218.338 200.89 224.285 205.647C230.232 210.405 233.575 216.856 233.579 223.584Z" fill="#324366"/>
<path d="M188.089 77.381H123.053C94.2593 77.381 70.9176 96.0544 70.9176 119.089V147.207C70.9176 170.241 94.2593 188.915 123.053 188.915H188.089C216.883 188.915 240.224 170.241 240.224 147.207V119.089C240.224 96.0544 216.883 77.381 188.089 77.381Z" fill="#564842"/>
<path d="M132.226 84.0204H180.866C195.347 84.0204 209.235 88.6224 219.474 96.814C229.714 105.006 235.466 116.116 235.466 127.7V140.305C235.466 156.031 227.658 171.112 213.758 182.231C199.859 193.351 181.007 199.598 161.351 199.598H151.804C142.065 199.598 132.423 198.062 123.426 195.08C114.43 192.097 106.257 187.725 99.3739 182.214C92.4908 176.703 87.0328 170.16 83.3118 162.961C79.5908 155.761 77.6798 148.046 77.688 140.255V127.7C77.688 116.124 83.4319 105.022 93.6579 96.8316C103.884 88.6414 117.756 84.0336 132.226 84.0204Z" fill="#E5BFAC"/>
<path d="M133.318 143.775H129.667C125.635 143.775 122.366 146.39 122.366 149.615V157.852C122.366 161.078 125.635 163.693 129.667 163.693H133.318C137.35 163.693 140.618 161.078 140.618 157.852V149.615C140.618 146.39 137.35 143.775 133.318 143.775Z" fill="#161312"/>
<path d="M184.782 143.775H181.132C177.099 143.775 173.831 146.39 173.831 149.615V157.852C173.831 161.078 177.099 163.693 181.132 163.693H184.782C188.814 163.693 192.083 161.078 192.083 157.852V149.615C192.083 146.39 188.814 143.775 184.782 143.775Z" fill="#161312"/>
<path d="M126.984 167.674H114.442C111.486 167.674 109.091 169.59 109.091 171.954V174.014C109.091 176.378 111.486 178.294 114.442 178.294H126.984C129.939 178.294 132.335 176.378 132.335 174.014V171.954C132.335 169.59 129.939 167.674 126.984 167.674Z" fill="#E0BBA9"/>
<path d="M201.677 167.674H189.134C186.179 167.674 183.784 169.59 183.784 171.954V174.014C183.784 176.378 186.179 178.294 189.134 178.294H201.677C204.632 178.294 207.028 176.378 207.028 174.014V171.954C207.028 169.59 204.632 167.674 201.677 167.674Z" fill="#E0BBA9"/>
<path d="M148.091 182.937H166.358" stroke="#564842" stroke-miterlimit="10" stroke-linecap="round"/>
<path d="M132.335 137.797C129.049 137.302 125.709 137.08 122.366 137.135C119.582 137.169 116.805 137.39 114.067 137.797C113.441 137.757 112.857 137.53 112.431 137.161C112.005 136.792 111.768 136.308 111.768 135.806C111.768 135.304 112.005 134.82 112.431 134.451C112.857 134.082 113.441 133.855 114.067 133.816C117.353 133.322 120.693 133.096 124.036 133.142C126.82 133.185 129.596 133.41 132.335 133.816C132.961 133.855 133.545 134.082 133.971 134.451C134.397 134.82 134.634 135.304 134.634 135.806C134.634 136.308 134.397 136.792 133.971 137.161C133.545 137.53 132.961 137.757 132.335 137.797Z" fill="#564842"/>
<path d="M200.507 137.148C197.219 136.665 193.88 136.444 190.538 136.486C187.755 136.532 184.98 136.753 182.239 137.148C181.613 137.108 181.029 136.881 180.603 136.512C180.177 136.143 179.94 135.66 179.94 135.157C179.94 134.655 180.177 134.171 180.603 133.802C181.029 133.433 181.613 133.206 182.239 133.167C185.527 132.684 188.866 132.463 192.208 132.505C194.992 132.539 197.769 132.76 200.507 133.167C201.133 133.206 201.717 133.433 202.143 133.802C202.569 134.171 202.806 134.655 202.806 135.157C202.806 135.66 202.569 136.143 202.143 136.512C201.717 136.881 201.133 137.108 200.507 137.148Z" fill="#564842"/>
<path d="M145.236 121.198H74.2404V110.877C74.2384 106.827 75.2339 102.815 77.1702 99.0724C79.1065 95.3295 81.9455 91.9284 85.5252 89.0635C89.1049 86.1986 93.355 83.926 98.0329 82.3755C102.711 80.8249 107.725 80.0268 112.788 80.0268H183.784V90.3478C183.786 94.3986 182.79 98.41 180.854 102.153C178.918 105.896 176.078 109.297 172.499 112.162C168.919 115.027 164.669 117.299 159.991 118.85C155.313 120.4 150.299 121.198 145.236 121.198Z" fill="#564842"/>
<path d="M179.759 79.6774H195C200.062 79.6774 205.075 80.475 209.752 82.0248C214.428 83.5745 218.678 85.8461 222.257 88.7096C225.837 91.5732 228.676 94.9728 230.613 98.7142C232.551 102.456 233.548 106.466 233.548 110.515V120.836H218.275C208.052 120.836 198.247 117.587 191.018 111.804C183.789 106.021 179.728 98.1771 179.728 89.9983V79.6774H179.759Z" fill="#564842"/>
<g opacity="0.28">
<path d="M184.439 82.4729H117.265C107.45 82.4732 97.8436 84.7387 89.5979 88.9978C81.3521 93.2568 74.8173 99.3284 70.7772 106.484C70.771 106.534 70.771 106.584 70.7772 106.634C68.5708 111.265 67.4446 116.18 67.4544 121.136V163.456C67.4585 174.275 72.8327 184.65 82.3955 192.3C91.9583 199.95 104.927 204.249 118.451 204.253H185.624C195.441 204.252 205.049 201.986 213.298 197.727C221.546 193.468 228.084 187.397 232.128 180.241C232.161 180.194 232.187 180.143 232.206 180.091C234.412 175.461 235.539 170.545 235.529 165.59V123.27C235.527 117.907 234.203 112.596 231.634 107.642C229.064 102.688 225.3 98.1883 220.555 94.3992C215.81 90.6102 210.178 87.6066 203.981 85.5602C197.784 83.5138 191.143 82.4647 184.439 82.4729ZM214.25 131.557C214.911 131.044 215.795 130.758 216.715 130.758C217.658 130.758 218.563 131.053 219.236 131.58C219.91 132.107 220.298 132.825 220.319 133.578C220.319 134.053 220.173 134.521 219.892 134.939C219.611 135.357 219.205 135.713 218.71 135.975C218.214 136.237 217.646 136.397 217.055 136.44C216.464 136.482 215.868 136.407 215.323 136.221C214.777 136.035 214.297 135.743 213.927 135.372C213.556 135.001 213.307 134.562 213.201 134.095C213.094 133.628 213.135 133.147 213.318 132.695C213.501 132.243 213.822 131.835 214.25 131.507V131.557ZM203.845 170.132C204.781 170.135 205.678 170.431 206.345 170.955C207.012 171.48 207.397 172.192 207.418 172.94V173.003C207.418 173.571 207.207 174.126 206.812 174.599C206.417 175.071 205.856 175.439 205.199 175.656C204.543 175.873 203.82 175.929 203.124 175.817C202.427 175.705 201.788 175.431 201.287 175.028C200.786 174.625 200.445 174.113 200.309 173.555C200.172 172.997 200.245 172.42 200.519 171.896C200.793 171.371 201.256 170.924 201.848 170.61C202.44 170.296 203.135 170.13 203.845 170.132ZM167.123 182.962C167.899 183.106 168.594 183.453 169.097 183.948C169.6 184.443 169.882 185.057 169.9 185.695C169.914 185.939 169.883 186.183 169.806 186.419C169.587 187.16 169.008 187.802 168.198 188.202C167.387 188.602 166.412 188.728 165.485 188.553C164.558 188.377 163.756 187.915 163.256 187.266C162.756 186.618 162.598 185.837 162.817 185.096C162.97 184.555 163.324 184.063 163.831 183.686C164.258 183.351 164.784 183.109 165.36 182.982C165.936 182.855 166.542 182.848 167.123 182.962ZM185.39 99.8575C186.063 99.3534 186.949 99.0724 187.871 99.0713C188.812 99.0712 189.715 99.3667 190.386 99.8943C191.057 100.422 191.442 101.139 191.459 101.892C191.463 102.371 191.317 102.843 191.036 103.265C190.755 103.688 190.347 104.048 189.848 104.313C189.349 104.577 188.776 104.739 188.18 104.782C187.584 104.825 186.984 104.749 186.434 104.56C185.884 104.371 185.401 104.075 185.03 103.7C184.658 103.324 184.41 102.881 184.306 102.409C184.202 101.938 184.247 101.453 184.437 100.999C184.626 100.544 184.954 100.135 185.39 99.8076V99.8575ZM185.39 115.458C186.063 114.953 186.949 114.672 187.871 114.671C188.809 114.671 189.71 114.965 190.381 115.49C191.051 116.015 191.438 116.729 191.459 117.479C191.463 117.958 191.317 118.43 191.036 118.853C190.755 119.275 190.347 119.635 189.848 119.9C189.349 120.165 188.776 120.326 188.18 120.369C187.584 120.412 186.984 120.336 186.434 120.147C185.884 119.958 185.401 119.663 185.03 119.287C184.658 118.912 184.41 118.468 184.306 117.997C184.202 117.525 184.247 117.04 184.437 116.586C184.626 116.132 184.954 115.723 185.39 115.395V115.458ZM185.39 130.434C186.063 129.929 186.949 129.648 187.871 129.647C188.809 129.647 189.71 129.941 190.381 130.466C191.051 130.991 191.438 131.705 191.459 132.455C191.399 133.185 190.994 133.87 190.326 134.37C189.658 134.87 188.778 135.149 187.863 135.149C186.948 135.149 186.068 134.87 185.4 134.37C184.732 133.87 184.327 133.185 184.267 132.455C184.3 131.698 184.704 130.981 185.39 130.458V130.434ZM160.914 130.434C161.42 130.053 162.053 129.798 162.737 129.699C163.42 129.6 164.124 129.661 164.766 129.874C165.407 130.088 165.957 130.445 166.35 130.903C166.744 131.361 166.963 131.9 166.982 132.455C166.98 132.93 166.831 133.396 166.549 133.813C166.266 134.23 165.859 134.584 165.363 134.845C164.868 135.105 164.299 135.263 163.709 135.305C163.118 135.346 162.524 135.27 161.979 135.083C161.434 134.896 160.956 134.603 160.587 134.232C160.218 133.861 159.969 133.423 159.864 132.956C159.758 132.489 159.799 132.009 159.982 131.558C160.165 131.107 160.486 130.699 160.914 130.371V130.434ZM138.84 130.434C139.346 130.053 139.979 129.798 140.663 129.699C141.346 129.6 142.05 129.661 142.692 129.874C143.333 130.088 143.883 130.445 144.276 130.903C144.67 131.361 144.889 131.9 144.908 132.455C144.924 132.933 144.791 133.406 144.52 133.832C144.249 134.258 143.85 134.624 143.358 134.895C142.866 135.166 142.298 135.335 141.704 135.386C141.11 135.437 140.509 135.368 139.957 135.186C139.404 135.004 138.917 134.715 138.54 134.345C138.163 133.974 137.907 133.534 137.796 133.065C137.685 132.595 137.723 132.111 137.905 131.656C138.087 131.201 138.409 130.789 138.84 130.458V130.434ZM116.017 99.8575C116.523 99.4733 117.157 99.2148 117.843 99.1133C118.529 99.0117 119.237 99.0717 119.881 99.2857C120.525 99.4998 121.078 99.8587 121.472 100.319C121.866 100.779 122.085 101.321 122.101 101.879C122.103 102.357 121.956 102.827 121.674 103.248C121.392 103.669 120.983 104.027 120.486 104.291C119.988 104.554 119.416 104.715 118.821 104.758C118.226 104.801 117.628 104.725 117.079 104.537C116.53 104.349 116.048 104.054 115.677 103.681C115.305 103.307 115.056 102.865 114.95 102.395C114.845 101.925 114.888 101.441 115.074 100.987C115.26 100.534 115.584 100.124 116.017 99.7951V99.8575ZM116.017 115.458C116.522 115.074 117.155 114.816 117.839 114.714C118.524 114.612 119.231 114.67 119.874 114.883C120.518 115.096 121.07 115.453 121.466 115.911C121.861 116.37 122.082 116.91 122.101 117.467V117.542C122.103 118.019 121.956 118.49 121.674 118.911C121.392 119.332 120.983 119.69 120.486 119.953C119.988 120.217 119.416 120.377 118.821 120.42C118.226 120.463 117.628 120.387 117.079 120.199C116.53 120.011 116.048 119.717 115.677 119.343C115.305 118.969 115.056 118.527 114.95 118.057C114.845 117.587 114.888 117.103 115.074 116.65C115.26 116.196 115.584 115.786 116.017 115.458ZM116.017 130.434C116.522 130.05 117.155 129.792 117.839 129.69C118.524 129.588 119.231 129.646 119.874 129.859C120.518 130.072 121.07 130.429 121.466 130.887C121.861 131.346 122.082 131.886 122.101 132.443V132.518C122.103 132.995 121.956 133.466 121.674 133.887C121.392 134.308 120.983 134.666 120.486 134.929C119.988 135.193 119.416 135.353 118.821 135.396C118.226 135.439 117.628 135.363 117.079 135.175C116.53 134.987 116.048 134.693 115.677 134.319C115.305 133.945 115.056 133.503 114.95 133.033C114.845 132.563 114.888 132.079 115.074 131.626C115.26 131.172 115.584 130.762 116.017 130.434ZM107.64 169.77C108.505 169.773 109.335 170.041 109.959 170.52C110.583 170.998 110.954 171.65 110.994 172.341V172.466C110.994 173.178 110.641 173.86 110.012 174.363C109.383 174.867 108.53 175.149 107.64 175.149C106.75 175.149 105.897 174.867 105.268 174.363C104.639 173.86 104.286 173.178 104.286 172.466C104.286 172.088 104.384 171.714 104.575 171.368C104.766 171.022 105.045 170.712 105.394 170.457C106.01 170.013 106.811 169.768 107.64 169.77ZM86.4396 130.196C86.9444 129.813 87.5773 129.554 88.2617 129.452C88.9462 129.35 89.6529 129.409 90.2965 129.622C90.94 129.834 91.4929 130.192 91.8881 130.65C92.2833 131.109 92.5041 131.649 92.5236 132.206V132.281C92.5251 132.758 92.3782 133.229 92.0962 133.65C91.8142 134.07 91.4059 134.429 90.9079 134.692C90.41 134.956 89.838 135.116 89.2435 135.159C88.6489 135.202 88.0503 135.126 87.5015 134.938C86.9527 134.75 86.4709 134.456 86.0994 134.082C85.7278 133.708 85.4782 133.266 85.3729 132.796C85.2676 132.326 85.31 131.842 85.4962 131.389C85.6823 130.935 86.0065 130.525 86.4396 130.196ZM78.9516 123.195C78.2453 123.193 77.5557 123.023 76.9691 122.709C76.3825 122.394 75.9251 121.948 75.6542 121.426C75.3833 120.904 75.3109 120.33 75.4461 119.775C75.5813 119.221 75.9181 118.71 76.4143 118.308C76.9105 117.906 77.544 117.63 78.2355 117.515C78.9269 117.399 79.6455 117.45 80.3012 117.66C80.9569 117.87 81.5205 118.23 81.9215 118.695C82.3225 119.16 82.5429 119.71 82.5552 120.275C82.5677 120.659 82.4837 121.041 82.308 121.399C82.1323 121.757 81.8686 122.083 81.5325 122.358C81.1964 122.632 80.7948 122.85 80.3515 122.998C79.9081 123.146 79.4321 123.222 78.9516 123.22V123.195ZM85.1916 176.06C84.3033 176.057 83.4526 175.773 82.8245 175.271C82.1964 174.768 81.8417 174.088 81.8376 173.377C81.8404 172.999 81.9401 172.626 82.1307 172.281C82.3212 171.935 82.5984 171.624 82.9452 171.368C83.4174 171.032 83.9979 170.81 84.6206 170.726C85.2433 170.641 85.883 170.699 86.4669 170.891C87.0507 171.084 87.5552 171.404 87.9227 171.815C88.2903 172.226 88.5061 172.711 88.5456 173.215C88.5533 173.269 88.5533 173.323 88.5456 173.377C88.55 174.082 88.2097 174.759 87.5974 175.265C86.9852 175.771 86.1497 176.066 85.2696 176.085L85.1916 176.06ZM94.6764 161.846C94.6633 162.205 94.5602 162.559 94.373 162.885C94.1858 163.212 93.9185 163.506 93.5869 163.748C93.2552 163.991 92.866 164.177 92.4424 164.297C92.0188 164.417 91.5694 164.468 91.1209 164.446C90.6724 164.424 90.2339 164.331 89.8315 164.171C89.4291 164.011 89.071 163.788 88.7784 163.515C88.4858 163.242 88.2647 162.925 88.1282 162.583C87.9918 162.24 87.9427 161.879 87.984 161.521C88.0406 160.818 88.438 160.16 89.0916 159.687C89.4227 159.449 89.81 159.267 90.2307 159.151C90.6515 159.035 91.097 158.988 91.5408 159.013C92.3502 159.057 93.1124 159.334 93.6861 159.792C94.2598 160.251 94.606 160.861 94.6608 161.509C94.7173 161.624 94.749 161.747 94.7544 161.871L94.6764 161.846ZM119.824 196.116C119.616 196.827 119.077 197.448 118.317 197.852C117.557 198.256 116.632 198.414 115.732 198.292C114.832 198.171 114.024 197.779 113.472 197.197C112.92 196.616 112.666 195.888 112.762 195.161C112.857 194.435 113.295 193.765 113.986 193.288C114.678 192.811 115.57 192.563 116.482 192.594C117.394 192.625 118.257 192.933 118.895 193.455C119.533 193.977 119.899 194.674 119.917 195.404C119.961 195.649 119.956 195.898 119.902 196.141L119.824 196.116ZM127.327 166.388C127.099 166.457 126.864 166.511 126.625 166.551C125.878 166.716 125.107 166.8 124.332 166.8H114.176C111.782 166.797 109.487 166.035 107.794 164.68C106.101 163.326 105.148 161.49 105.144 159.574V154.108C105.141 152.761 105.617 151.441 106.517 150.302C107.325 149.258 108.453 148.396 109.793 147.798C111.133 147.2 112.642 146.885 114.176 146.882H124.332C125.518 146.882 126.693 147.069 127.789 147.432C128.884 147.795 129.88 148.328 130.719 148.999C131.558 149.67 132.223 150.466 132.677 151.343C133.131 152.22 133.364 153.159 133.364 154.108V159.574C133.369 160.134 133.285 160.691 133.115 161.234C132.77 162.413 132.058 163.504 131.047 164.405C130.035 165.306 128.756 165.988 127.327 166.388ZM132.818 185.108C132.984 184.568 133.341 184.079 133.848 183.698C134.277 183.362 134.805 183.12 135.384 182.993C135.963 182.866 136.573 182.86 137.155 182.974C137.924 183.124 138.61 183.471 139.109 183.962C139.607 184.454 139.891 185.062 139.916 185.695C139.931 185.943 139.9 186.191 139.823 186.431C139.563 187.139 138.974 187.741 138.177 188.112C137.379 188.483 136.435 188.596 135.537 188.426C134.639 188.256 133.857 187.818 133.351 187.201C132.845 186.583 132.655 185.835 132.818 185.108ZM139.901 201.095C139.904 201.571 139.759 202.039 139.48 202.459C139.201 202.878 138.796 203.236 138.301 203.499C137.807 203.763 137.238 203.924 136.646 203.968C136.055 204.012 135.459 203.938 134.912 203.753C134.365 203.567 133.884 203.276 133.512 202.905C133.141 202.534 132.891 202.095 132.784 201.627C132.676 201.159 132.716 200.678 132.899 200.226C133.082 199.773 133.403 199.365 133.832 199.036C134.499 198.514 135.396 198.223 136.328 198.225C137.267 198.228 138.166 198.525 138.834 199.052C139.501 199.579 139.884 200.295 139.901 201.045V201.095ZM156.874 178.868C155.972 179.581 154.756 179.981 153.488 179.979H150.712C149.446 179.979 148.231 179.577 147.336 178.861C146.441 178.144 145.938 177.173 145.938 176.16C145.923 175.245 146.329 174.357 147.077 173.664C147.152 173.584 147.235 173.508 147.326 173.44C148.229 172.729 149.445 172.33 150.712 172.329H153.488C154.754 172.329 155.969 172.731 156.864 173.447C157.759 174.164 158.262 175.135 158.262 176.148C158.278 176.264 158.278 176.381 158.262 176.497C158.171 177.396 157.678 178.237 156.874 178.868ZM169.9 199.785C169.889 200.537 169.507 201.255 168.837 201.782C168.167 202.31 167.263 202.603 166.324 202.599C165.384 202.595 164.484 202.293 163.821 201.76C163.158 201.227 162.786 200.506 162.786 199.754C162.786 199.002 163.158 198.28 163.821 197.747C164.484 197.214 165.384 196.912 166.324 196.908C167.263 196.904 168.167 197.198 168.837 197.725C169.507 198.252 169.889 198.971 169.9 199.722V199.785ZM173.16 159.562V154.096C173.172 152.182 174.128 150.35 175.819 148.997C177.51 147.644 179.801 146.88 182.192 146.87H192.348C194.741 146.873 197.034 147.636 198.725 148.991C200.415 150.345 201.365 152.181 201.365 154.096V159.562C201.364 160.134 201.275 160.704 201.1 161.259C200.627 162.832 199.507 164.233 197.92 165.236C196.333 166.238 194.37 166.785 192.348 166.788H182.192C181.669 166.791 181.147 166.753 180.632 166.675C180.234 166.637 179.842 166.566 179.462 166.463C177.632 165.997 176.035 165.077 174.902 163.836C173.769 162.595 173.159 161.098 173.16 159.562ZM188.76 196.141C188.678 196.529 188.497 196.899 188.229 197.229C187.961 197.56 187.612 197.842 187.202 198.06C186.792 198.278 186.331 198.427 185.847 198.496C185.362 198.566 184.866 198.556 184.386 198.466C183.907 198.377 183.456 198.21 183.061 197.975C182.666 197.741 182.335 197.444 182.088 197.103C181.842 196.763 181.685 196.385 181.628 195.994C181.571 195.603 181.614 195.207 181.756 194.83C181.992 194.097 182.574 193.466 183.38 193.068C184.185 192.67 185.151 192.537 186.077 192.696C186.852 192.836 187.546 193.181 188.046 193.674C188.547 194.167 188.826 194.781 188.838 195.417C188.85 195.66 188.824 195.903 188.76 196.141ZM216.528 161.546C216.528 162.022 216.381 162.49 216.099 162.909C215.818 163.327 215.41 163.683 214.914 163.945C214.417 164.207 213.847 164.365 213.255 164.407C212.663 164.449 212.067 164.372 211.521 164.184C210.976 163.996 210.496 163.703 210.127 163.33C209.758 162.957 209.511 162.517 209.407 162.049C209.303 161.581 209.347 161.099 209.533 160.648C209.72 160.196 210.043 159.789 210.475 159.462C211.138 158.954 212.022 158.672 212.94 158.676C213.878 158.676 214.779 158.969 215.45 159.494C216.121 160.019 216.508 160.733 216.528 161.484V161.546ZM224.624 172.778C224.627 173.254 224.482 173.723 224.202 174.143C223.922 174.563 223.516 174.921 223.02 175.184C222.524 175.447 221.954 175.608 221.362 175.651C220.769 175.694 220.172 175.619 219.625 175.431C219.078 175.244 218.598 174.951 218.227 174.578C217.857 174.206 217.609 173.765 217.504 173.296C217.4 172.828 217.443 172.346 217.629 171.894C217.815 171.441 218.139 171.034 218.572 170.706C219.231 170.193 220.116 169.906 221.036 169.908C221.973 169.911 222.872 170.206 223.542 170.73C224.212 171.254 224.6 171.966 224.624 172.716V172.778ZM226.933 120.287C226.936 120.858 226.728 121.417 226.333 121.892C225.939 122.368 225.378 122.739 224.719 122.96C224.061 123.18 223.336 123.239 222.636 123.129C221.936 123.019 221.293 122.745 220.787 122.343C220.282 121.94 219.937 121.426 219.796 120.867C219.656 120.307 219.727 119.727 219.999 119.199C220.271 118.672 220.733 118.221 221.326 117.904C221.919 117.586 222.616 117.417 223.33 117.417C223.802 117.415 224.27 117.488 224.707 117.632C225.145 117.775 225.542 117.986 225.877 118.253C226.212 118.52 226.477 118.837 226.659 119.186C226.84 119.535 226.933 119.909 226.933 120.287Z" fill="black"/>
<path d="M111.93 140.53L152.521 140.467L193.097 140.405L172.817 145.634L152.537 150.851L132.241 145.697L111.93 140.53Z" fill="black"/>
<path d="M94.7856 194.481L110.542 181.265L126.282 168.036L126.485 168.111L109.45 193.657L109.59 193.158L94.7856 194.481Z" fill="black"/>
<path d="M209.336 193.77L193.596 180.553L177.84 167.324L177.637 167.399L194.688 192.933L194.532 192.434L209.336 193.77Z" fill="black"/>
</g>
<path d="M185.546 80.2764H118.373C108.057 80.281 97.9853 82.7884 89.4877 87.4675C80.9901 92.1466 74.4662 98.7774 70.7772 106.484C70.771 106.534 70.771 106.584 70.7772 106.634C68.5708 111.265 67.4446 116.18 67.4544 121.136V163.456C67.4585 174.275 72.8327 184.65 82.3955 192.3C91.9583 199.95 104.927 204.249 118.451 204.253H185.624C195.441 204.252 205.049 201.986 213.298 197.727C221.546 193.468 228.084 187.397 232.128 180.241C232.161 180.194 232.187 180.143 232.206 180.091C235.14 174.86 236.65 169.189 236.636 163.456V121.136C236.645 115.767 235.329 110.45 232.764 105.489C230.199 100.528 226.436 96.0205 221.69 92.2248C216.944 88.4292 211.308 85.42 205.106 83.3697C198.904 81.3194 192.257 80.2682 185.546 80.2764ZM125.455 164.654H115.284C112.891 164.65 110.598 163.888 108.907 162.533C107.217 161.178 106.267 159.342 106.267 157.428V151.949C106.263 151.39 106.347 150.832 106.517 150.289C106.984 148.709 108.103 147.302 109.694 146.294C111.285 145.286 113.255 144.737 115.284 144.736H125.455C127.847 144.736 130.14 145.496 131.831 146.848C133.522 148.201 134.472 150.036 134.472 151.949V157.428C134.463 158.752 133.993 160.049 133.115 161.172C132.318 162.229 131.195 163.104 129.854 163.714C128.513 164.323 126.998 164.647 125.455 164.654ZM90.0276 133.029C89.0882 133.033 88.1848 132.74 87.5133 132.214C86.8417 131.689 86.456 130.973 86.4396 130.221C86.5364 129.518 86.9533 128.867 87.611 128.394C88.2687 127.92 89.1211 127.657 90.0059 127.654C90.8907 127.651 91.7459 127.908 92.4088 128.377C93.0716 128.846 93.4956 129.494 93.6 130.196C93.598 130.573 93.5031 130.946 93.3209 131.294C93.1387 131.642 92.8727 131.957 92.5381 132.222C92.2035 132.488 91.8068 132.698 91.3707 132.841C90.9346 132.983 90.4676 133.056 89.9964 133.054L90.0276 133.029ZM80.0748 121.086C79.1285 121.096 78.2155 120.807 77.5348 120.281C76.854 119.755 76.4605 119.035 76.44 118.278C76.4361 117.799 76.5813 117.327 76.8626 116.905C77.1438 116.482 77.5522 116.122 78.0509 115.857C78.5496 115.592 79.1228 115.431 79.7189 115.388C80.315 115.345 80.9151 115.421 81.4651 115.61C82.0151 115.799 82.4976 116.094 82.8691 116.47C83.2405 116.845 83.4893 117.289 83.5928 117.76C83.6963 118.232 83.6514 118.717 83.4621 119.171C83.2728 119.625 82.945 120.035 82.5084 120.362C81.8363 120.835 80.9697 121.093 80.0748 121.086ZM115.955 115.395C115.952 114.824 116.161 114.265 116.556 113.789C116.95 113.313 117.513 112.941 118.172 112.722C118.831 112.502 119.557 112.444 120.258 112.555C120.958 112.665 121.602 112.94 122.106 113.344C122.611 113.748 122.955 114.263 123.093 114.823C123.232 115.384 123.159 115.964 122.885 116.492C122.61 117.019 122.146 117.469 121.551 117.785C120.956 118.101 120.257 118.268 119.543 118.266C119.071 118.267 118.604 118.194 118.167 118.05C117.731 117.907 117.335 117.695 117.001 117.428C116.668 117.162 116.403 116.845 116.224 116.496C116.044 116.147 115.953 115.773 115.955 115.395ZM115.955 130.371C116.015 129.641 116.42 128.956 117.088 128.456C117.755 127.956 118.636 127.678 119.551 127.678C120.465 127.678 121.346 127.956 122.014 128.456C122.681 128.956 123.086 129.641 123.146 130.371C123.148 130.757 123.05 131.138 122.859 131.493C122.669 131.847 122.39 132.166 122.039 132.43C121.534 132.814 120.901 133.072 120.217 133.174C119.532 133.276 118.825 133.217 118.182 133.005C117.538 132.792 116.986 132.435 116.59 131.977C116.195 131.518 115.974 130.978 115.955 130.421V130.371ZM142.366 133.229C141.425 133.236 140.519 132.944 139.847 132.418C139.174 131.891 138.79 131.174 138.778 130.421C138.771 129.849 138.978 129.289 139.371 128.811C139.764 128.334 140.325 127.96 140.984 127.739C141.643 127.517 142.369 127.457 143.071 127.567C143.772 127.676 144.417 127.95 144.924 128.353C145.43 128.757 145.775 129.271 145.915 129.832C146.055 130.393 145.983 130.974 145.709 131.502C145.435 132.03 144.97 132.481 144.375 132.797C143.78 133.114 143.08 133.281 142.366 133.279V133.229ZM164.44 133.229C163.5 133.232 162.597 132.94 161.925 132.414C161.254 131.889 160.868 131.173 160.852 130.421C160.845 129.849 161.052 129.289 161.445 128.811C161.838 128.334 162.399 127.96 163.058 127.739C163.717 127.517 164.443 127.457 165.145 127.567C165.846 127.676 166.491 127.95 166.998 128.353C167.504 128.757 167.849 129.271 167.989 129.832C168.129 130.393 168.057 130.974 167.783 131.502C167.509 132.03 167.044 132.481 166.449 132.797C165.854 133.114 165.154 133.281 164.44 133.279V133.229ZM185.328 115.358C185.33 114.883 185.479 114.417 185.762 114C186.044 113.583 186.451 113.228 186.947 112.968C187.443 112.708 188.011 112.55 188.602 112.508C189.192 112.467 189.787 112.543 190.331 112.73C190.876 112.917 191.355 113.21 191.724 113.581C192.093 113.952 192.341 114.39 192.447 114.857C192.552 115.324 192.511 115.804 192.328 116.255C192.145 116.706 191.825 117.114 191.396 117.442C190.89 117.822 190.257 118.077 189.574 118.176C188.891 118.276 188.186 118.215 187.545 118.001C186.904 117.788 186.353 117.43 185.96 116.972C185.567 116.515 185.347 115.975 185.328 115.42V115.358ZM185.328 130.334C185.322 129.762 185.528 129.202 185.921 128.724C186.314 128.246 186.876 127.873 187.534 127.651C188.193 127.43 188.92 127.37 189.621 127.479C190.323 127.589 190.968 127.862 191.474 128.266C191.981 128.669 192.326 129.184 192.465 129.745C192.605 130.305 192.534 130.887 192.259 131.415C191.985 131.943 191.521 132.394 190.925 132.71C190.33 133.026 189.631 133.194 188.916 133.192C187.967 133.192 187.057 132.891 186.384 132.355C185.712 131.82 185.332 131.093 185.328 130.334ZM191.396 101.817C190.889 102.198 190.255 102.453 189.57 102.552C188.885 102.65 188.18 102.589 187.538 102.373C186.896 102.158 186.346 101.799 185.954 101.34C185.562 100.88 185.344 100.339 185.328 99.7827C185.328 99.0214 185.706 98.2913 186.379 97.753C187.052 97.2147 187.964 96.9123 188.916 96.9123C189.868 96.9123 190.78 97.2147 191.453 97.753C192.126 98.2913 192.504 99.0214 192.504 99.7827C192.515 100.172 192.429 100.56 192.249 100.922C192.07 101.284 191.801 101.614 191.459 101.892L191.396 101.817ZM123.24 99.7951C123.18 100.525 122.775 101.21 122.107 101.71C121.439 102.21 120.559 102.488 119.644 102.488C118.729 102.488 117.849 102.21 117.181 101.71C116.514 101.21 116.109 100.525 116.048 99.7951C116.109 99.0649 116.514 98.3804 117.181 97.8802C117.849 97.3801 118.729 97.1018 119.644 97.1018C120.559 97.1018 121.439 97.3801 122.107 97.8802C122.775 98.3804 123.18 99.0649 123.24 99.7951ZM108.81 173.015C107.947 173.016 107.117 172.751 106.492 172.274C105.867 171.798 105.496 171.147 105.456 170.457V170.332C105.459 169.886 105.602 169.447 105.871 169.056C106.14 168.665 106.527 168.334 106.996 168.092C107.465 167.851 108.002 167.707 108.559 167.673C109.115 167.64 109.673 167.718 110.182 167.901C110.692 168.083 111.136 168.365 111.475 168.719C111.813 169.074 112.036 169.491 112.123 169.932C112.21 170.373 112.158 170.824 111.972 171.245C111.785 171.665 111.471 172.042 111.056 172.341C110.424 172.78 109.615 173.019 108.779 173.015H108.81ZM174.33 151.949C174.326 151.398 174.409 150.848 174.58 150.314C175.041 148.728 176.16 147.313 177.755 146.3C179.35 145.287 181.326 144.736 183.362 144.736H193.44C195.833 144.736 198.128 145.495 199.821 146.848C201.515 148.2 202.468 150.035 202.472 151.949V157.428C202.464 159.342 201.51 161.176 199.818 162.53C198.126 163.884 195.833 164.647 193.44 164.654H183.284C180.89 164.65 178.595 163.888 176.902 162.534C175.209 161.179 174.256 159.343 174.252 157.428L174.33 151.949ZM204.968 173.727C204.029 173.73 203.126 173.437 202.454 172.912C201.783 172.386 201.397 171.67 201.38 170.919C201.377 170.35 201.585 169.794 201.977 169.321C202.37 168.847 202.929 168.477 203.584 168.258C204.24 168.039 204.962 167.98 205.659 168.089C206.356 168.199 206.997 168.471 207.5 168.872C208.003 169.273 208.347 169.784 208.486 170.342C208.626 170.899 208.556 171.477 208.285 172.002C208.014 172.527 207.554 172.976 206.963 173.292C206.373 173.608 205.679 173.777 204.968 173.777V173.727ZM217.854 134.365C216.916 134.365 216.015 134.071 215.344 133.546C214.673 133.021 214.286 132.307 214.266 131.557C214.263 130.985 214.472 130.426 214.867 129.95C215.262 129.474 215.824 129.103 216.483 128.883C217.142 128.663 217.868 128.605 218.569 128.716C219.269 128.827 219.913 129.102 220.418 129.506C220.923 129.91 221.266 130.425 221.405 130.985C221.543 131.545 221.471 132.126 221.196 132.653C220.921 133.181 220.457 133.631 219.862 133.946C219.267 134.262 218.568 134.43 217.854 134.427V134.365ZM88.6236 173.24C88.1525 173.581 87.5701 173.808 86.9441 173.894C86.3181 173.981 85.6743 173.923 85.0875 173.729C84.5008 173.534 83.9953 173.21 83.6298 172.794C83.2644 172.378 83.054 171.888 83.0232 171.38V171.256C82.9918 170.887 83.0554 170.517 83.2102 170.169C83.3649 169.821 83.6074 169.502 83.9227 169.232C84.2379 168.962 84.6191 168.747 85.0427 168.6C85.4663 168.453 85.9232 168.377 86.385 168.377C86.8468 168.377 87.3037 168.453 87.7273 168.6C88.1509 168.747 88.5321 168.962 88.8473 169.232C89.1626 169.502 89.4051 169.821 89.5598 170.169C89.7146 170.517 89.7782 170.887 89.7468 171.256C89.7494 171.632 89.6504 172.004 89.4565 172.346C89.2627 172.689 88.9785 172.993 88.6236 173.24ZM92.3208 162.258C91.5102 162.216 90.7462 161.94 90.1719 161.481C89.5975 161.021 89.2523 160.41 89.2008 159.762C89.1845 159.658 89.1845 159.553 89.2008 159.45C89.2567 158.738 89.6636 158.073 90.3321 157.602C91.0006 157.13 91.8759 156.89 92.7654 156.935C93.6549 156.98 94.4858 157.305 95.0754 157.84C95.6649 158.375 95.9647 159.075 95.9088 159.786C95.8505 160.496 95.4473 161.159 94.7856 161.634C94.4491 161.866 94.0571 162.041 93.6334 162.148C93.2097 162.256 92.7631 162.293 92.3208 162.258ZM121.009 194.007C120.866 194.554 120.511 195.052 119.995 195.429C119.492 195.821 118.856 196.087 118.167 196.193C117.477 196.3 116.763 196.243 116.114 196.029C115.464 195.816 114.907 195.455 114.51 194.992C114.113 194.528 113.894 193.982 113.88 193.42C113.879 193.176 113.915 192.933 113.989 192.696C114.053 192.3 114.219 191.919 114.477 191.578C114.735 191.236 115.08 190.941 115.488 190.712C115.897 190.483 116.361 190.325 116.85 190.247C117.34 190.169 117.844 190.174 118.331 190.261C118.818 190.349 119.277 190.516 119.679 190.753C120.08 190.99 120.415 191.292 120.663 191.638C120.911 191.985 121.065 192.369 121.117 192.766C121.168 193.163 121.116 193.564 120.962 193.944L121.009 194.007ZM139.901 201.033C139.24 201.545 138.356 201.832 137.436 201.832C136.496 201.832 135.594 201.538 134.92 201.014C134.247 200.489 133.857 199.775 133.832 199.024V198.949C133.828 198.47 133.974 197.998 134.255 197.575C134.536 197.153 134.945 196.793 135.443 196.528C135.942 196.263 136.515 196.102 137.111 196.059C137.707 196.016 138.308 196.092 138.858 196.281C139.407 196.47 139.89 196.765 140.261 197.141C140.633 197.516 140.882 197.96 140.985 198.431C141.089 198.903 141.044 199.388 140.854 199.842C140.665 200.296 140.337 200.705 139.901 201.033ZM140.93 184.272C140.733 184.954 140.231 185.554 139.52 185.96C138.808 186.366 137.935 186.551 137.066 186.479C136.196 186.407 135.389 186.083 134.797 185.569C134.204 185.055 133.867 184.385 133.848 183.686C133.837 183.279 133.934 182.874 134.134 182.5C134.333 182.125 134.629 181.789 135.004 181.513C135.378 181.237 135.821 181.028 136.304 180.9C136.787 180.771 137.298 180.727 137.805 180.769C138.311 180.811 138.8 180.938 139.24 181.143C139.68 181.348 140.06 181.625 140.356 181.956C140.651 182.288 140.855 182.665 140.954 183.065C141.054 183.464 141.045 183.876 140.93 184.272ZM158.231 176.485L157.981 176.709C157.536 177.064 157.008 177.344 156.427 177.534C155.846 177.725 155.224 177.822 154.596 177.82H151.819C150.553 177.82 149.339 177.418 148.444 176.702C147.549 175.985 147.046 175.014 147.046 174.001C147.03 173.885 147.03 173.768 147.046 173.652C147.132 172.761 147.613 171.925 148.403 171.293C149.301 170.576 150.518 170.172 151.788 170.17H154.596C155.51 170.172 156.403 170.382 157.172 170.777C157.941 171.172 158.552 171.735 158.934 172.399C159.316 173.063 159.453 173.8 159.328 174.524C159.204 175.248 158.823 175.928 158.231 176.485ZM169.9 199.698C169.394 200.082 168.76 200.34 168.074 200.442C167.388 200.543 166.68 200.483 166.036 200.269C165.392 200.055 164.839 199.696 164.445 199.236C164.051 198.776 163.832 198.234 163.816 197.676C163.814 197.198 163.961 196.728 164.243 196.307C164.525 195.886 164.933 195.528 165.431 195.264C165.929 195.001 166.501 194.84 167.096 194.797C167.69 194.755 168.289 194.831 168.838 195.019C169.386 195.207 169.868 195.501 170.24 195.874C170.611 196.248 170.861 196.69 170.966 197.16C171.072 197.63 171.029 198.114 170.843 198.568C170.657 199.022 170.333 199.431 169.9 199.76V199.698ZM170.914 184.272C170.751 184.814 170.399 185.307 169.9 185.695C169.397 186.08 168.765 186.34 168.08 186.443C167.396 186.546 166.689 186.487 166.046 186.274C165.403 186.061 164.851 185.703 164.458 185.243C164.064 184.784 163.847 184.243 163.831 183.686C163.816 183.442 163.847 183.198 163.925 182.962C164.142 182.22 164.718 181.578 165.527 181.177C166.336 180.776 167.311 180.648 168.238 180.822C169.165 180.995 169.967 181.456 170.469 182.104C170.971 182.751 171.131 183.531 170.914 184.272ZM189.899 194.007C189.741 194.549 189.382 195.041 188.869 195.417C188.37 195.802 187.742 196.063 187.061 196.168C186.379 196.272 185.675 196.216 185.033 196.006C184.391 195.795 183.84 195.44 183.446 194.983C183.053 194.526 182.834 193.987 182.816 193.433C182.763 193.189 182.763 192.94 182.816 192.696C182.879 192.298 183.046 191.915 183.304 191.572C183.563 191.228 183.909 190.931 184.319 190.7C184.729 190.47 185.195 190.31 185.687 190.232C186.178 190.153 186.685 190.158 187.175 190.245C187.664 190.332 188.126 190.5 188.529 190.738C188.933 190.976 189.27 191.279 189.519 191.627C189.768 191.975 189.924 192.361 189.976 192.76C190.028 193.159 189.975 193.562 189.821 193.944L189.899 194.007ZM214.079 162.27C213.143 162.267 212.246 161.972 211.579 161.447C210.912 160.923 210.527 160.21 210.506 159.462C210.506 158.894 210.717 158.338 211.112 157.866C211.507 157.394 212.068 157.026 212.725 156.809C213.381 156.592 214.104 156.536 214.8 156.648C215.497 156.759 216.136 157.034 216.637 157.437C217.138 157.839 217.479 158.352 217.615 158.91C217.752 159.467 217.679 160.045 217.405 160.569C217.131 161.093 216.669 161.541 216.076 161.855C215.484 162.169 214.789 162.335 214.079 162.332V162.27ZM224.656 172.778C223.99 173.292 223.1 173.579 222.175 173.577C221.241 173.571 220.346 173.274 219.68 172.751C219.013 172.227 218.627 171.516 218.603 170.769C218.6 170.293 218.745 169.824 219.025 169.404C219.305 168.984 219.711 168.626 220.207 168.363C220.703 168.1 221.273 167.939 221.866 167.896C222.458 167.853 223.055 167.928 223.602 168.116C224.149 168.303 224.629 168.596 225 168.969C225.37 169.341 225.618 169.782 225.723 170.251C225.827 170.719 225.785 171.201 225.598 171.653C225.412 172.106 225.088 172.514 224.656 172.841V172.778ZM226.964 120.287C226.46 120.671 225.827 120.929 225.142 121.031C224.458 121.133 223.751 121.074 223.107 120.862C222.464 120.649 221.911 120.292 221.516 119.834C221.121 119.375 220.9 118.835 220.88 118.278C220.941 117.548 221.346 116.863 222.013 116.363C222.681 115.863 223.561 115.585 224.476 115.585C225.391 115.585 226.271 115.863 226.939 116.363C227.607 116.863 228.012 117.548 228.072 118.278C228.064 118.655 227.962 119.027 227.771 119.372C227.581 119.717 227.307 120.028 226.964 120.287Z" fill="#D7DCE0"/>
<path d="M113.038 138.396L153.629 138.333L194.22 138.271L173.94 143.5L153.66 148.717L133.349 143.55L113.038 138.396Z" fill="#8E1C50"/>
<path d="M95.8932 192.347L111.649 179.131L127.39 165.902L127.592 165.977L110.557 191.511L110.698 191.011L95.8932 192.347Z" fill="#8E1C50"/>
<path d="M210.444 191.635L194.704 178.407L178.948 165.19L178.745 165.253L195.796 190.799L195.655 190.3L210.444 191.635Z" fill="#8E1C50"/>
<path d="M301.08 210.156L300.799 210.942L296.728 222.174C288.818 233.518 282.61 242.491 277.774 249.568L273.998 255.134C271.986 258.079 270.286 260.625 268.866 262.771C262.954 271.645 261.44 274.228 261.44 274.228L251.55 281.317L250.13 282.34L241.66 288.405L246.542 279.732L295.199 192.971L301.08 210.156Z" fill="#A0AFB5"/>
<path d="M246.262 279.632L250.084 281.179L250.177 284.524L236.902 301.784L231.91 299.126L243.532 281.866L246.262 279.632Z" fill="#86969B"/>
<path d="M267.977 256.706C266.027 259.577 264.373 262.048 262.985 264.132C260.972 262.884 259.724 259.839 260.957 258.154C262.189 256.469 265.278 257.155 267.977 256.706Z" fill="#7C2240"/>
<path d="M295.604 213.713L291.72 224.645C284.014 235.677 277.976 244.413 273.281 251.29C272.891 248.794 271.986 245.561 273.874 241.368C274.739 239.566 275.82 237.836 277.103 236.201C279.068 233.705 280.082 233.381 281.954 231.035C283.953 228.618 285.577 226.015 286.79 223.285C288.756 218.68 287.867 217.12 290.02 215.535C291.57 214.439 293.539 213.797 295.604 213.713Z" fill="#7C2240"/>
<path d="M248.508 306.427C248.504 308.569 247.67 310.657 246.121 312.404H219.367C217.818 310.657 216.984 308.569 216.98 306.427C216.98 300.187 224.032 295.195 232.752 295.195C241.472 295.195 248.508 300.199 248.508 306.427Z" fill="#F4CCB5"/>
</g>
<defs>
<clipPath id="clip0_1305_228">
<rect width="312" height="312" fill="white" transform="translate(0 0.404419)"/>
</clipPath>
</defs>
</svg>
