<svg width="484" height="485" viewBox="0 0 484 485" fill="none" xmlns="http://www.w3.org/2000/svg">
<path d="M453.992 0.808838H30.008C13.435 0.808838 0 11.5569 0 24.8152V460.802C0 474.061 13.435 484.809 30.008 484.809H453.992C470.565 484.809 484 474.061 484 460.802V24.8152C484 11.5569 470.565 0.808838 453.992 0.808838Z" fill="#194C7F"/>
<path d="M131.382 391.184V484.809H119.403H55.4423V391.184C55.4283 384.451 58.3387 377.924 63.6756 372.719C69.0126 367.514 76.4445 363.953 84.7001 362.647C87.0883 362.252 89.5215 362.058 91.9601 362.066H95.0577C97.4378 362.059 99.813 362.241 102.148 362.609C104.117 362.933 106.05 363.38 107.932 363.944C112.203 365.23 116.129 367.156 119.5 369.617C121.95 371.424 124.083 373.488 125.84 375.754C129.47 380.376 131.392 385.725 131.382 391.184Z" fill="#183F66"/>
<path d="M393.177 391.184V484.809H363H317.262V391.184C317.259 385.567 319.292 380.07 323.115 375.359C326.938 370.648 332.386 366.925 338.8 364.641C341.541 363.625 344.438 362.902 347.415 362.492C349.382 362.223 351.373 362.081 353.368 362.066H356.805C358.897 362.07 360.985 362.213 363.048 362.492C371.486 363.676 379.133 367.202 384.643 372.449C390.153 377.697 393.175 384.33 393.177 391.184Z" fill="#183F66"/>
<path d="M353.32 371.088C351.829 368.021 349.826 365.13 347.367 362.492C344.389 362.902 341.493 363.625 338.752 364.641C335.74 360.911 331.931 357.635 327.499 354.961C320.085 350.476 311.155 347.879 301.871 347.508H144.159C137.881 347.752 131.73 349.016 126.082 351.225C123.74 352.12 121.505 353.183 119.403 354.4C114.864 357.01 110.947 360.249 107.835 363.964C105.954 363.399 104.02 362.952 102.051 362.628C96.157 369.026 92.9846 376.769 93.0007 384.718V484.809H119.403H356.563V384.698C356.551 380.04 355.452 375.424 353.32 371.088Z" fill="#183F66"/>
<path d="M346.06 384.679V484.809H119.403H100.043V384.679C100.039 378.763 101.793 372.931 105.159 367.663C108.525 362.396 113.407 357.843 119.403 354.381C121.506 353.17 123.741 352.114 126.082 351.225C131.726 349.003 137.877 347.725 144.159 347.469C144.95 347.469 145.757 347.469 146.579 347.469H299.475C300.298 347.469 301.072 347.469 301.895 347.469C311.179 347.84 320.109 350.437 327.523 354.923C331.955 357.596 335.764 360.873 338.776 364.603C343.566 370.595 346.095 377.566 346.06 384.679Z" fill="#183F66"/>
<path d="M103.213 197.119H69.1877V209.684H103.213V197.119Z" fill="#183F66"/>
<path d="M83.1755 191.892H73.5197C70.4056 191.892 67.8811 193.912 67.8811 196.403V210.419C67.8811 212.911 70.4056 214.93 73.5197 214.93H83.1755C86.2896 214.93 88.8141 212.911 88.8141 210.419V196.403C88.8141 193.912 86.2896 191.892 83.1755 191.892Z" fill="#183F66"/>
<path d="M347.536 209.297H381.561V196.732H347.536V209.297Z" fill="#183F66"/>
<path d="M367.574 214.524H377.23C380.344 214.524 382.868 212.504 382.868 210.013V195.996C382.868 193.505 380.344 191.486 377.23 191.486H367.574C364.46 191.486 361.935 193.505 361.935 195.996V210.013C361.935 212.504 364.46 214.524 367.574 214.524Z" fill="#183F66"/>
<path d="M118.217 125.39H333.04C335.093 125.39 337.126 125.714 339.023 126.342C340.92 126.971 342.643 127.892 344.095 129.053C345.546 130.215 346.698 131.594 347.484 133.111C348.269 134.628 348.674 136.255 348.674 137.897V259.42H102.584V137.897C102.584 136.255 102.988 134.628 103.774 133.111C104.56 131.594 105.711 130.215 107.163 129.053C108.614 127.892 110.338 126.971 112.234 126.342C114.131 125.714 116.164 125.39 118.217 125.39Z" fill="#183F66"/>
<path d="M225.617 353.684C293.579 353.684 348.674 309.608 348.674 255.238C348.674 200.868 293.579 156.792 225.617 156.792C157.654 156.792 102.56 200.868 102.56 255.238C102.56 309.608 157.654 353.684 225.617 353.684Z" fill="#183F66"/>
<path d="M58.1703 157.69L79.5493 137.671C85.6044 132.002 94.2257 128.488 103.518 127.901C112.811 127.315 122.014 129.704 129.106 134.545L131.295 136.041L109.9 156.074C103.841 161.74 95.2161 165.25 85.923 165.831C76.6298 166.412 67.4285 164.018 60.3414 159.174L58.1703 157.69Z" fill="#183F66"/>
<path d="M75.1987 112.054L107.94 109.379C117.205 108.622 126.467 110.837 133.694 115.537C140.92 120.237 145.52 127.038 146.486 134.449L146.778 136.741L114.012 139.417C104.738 140.169 95.4704 137.945 88.2457 133.233C81.021 128.521 76.4307 121.706 75.4839 114.288L75.1987 112.054Z" fill="#183F66"/>
<path d="M131.387 43.7085L152.675 62.7359C158.111 67.5987 162.297 73.2704 164.993 79.4272C167.69 85.5841 168.844 92.1055 168.39 98.6192C167.935 105.133 165.882 111.511 162.347 117.39C158.811 123.269 153.863 128.533 147.785 132.882L143.998 135.593L122.71 116.566C111.734 106.748 106.081 93.844 106.995 80.6923C107.909 67.5406 115.314 55.2176 127.582 46.4328L131.387 43.7085Z" fill="#183F66"/>
<path d="M119.309 132.17L139.088 108.399C150.075 95.1951 164.205 83.8514 180.671 75.016C197.138 66.1806 215.619 60.0263 235.059 56.9046C254.498 53.783 274.516 53.755 293.969 56.8224C313.423 59.8897 331.93 65.9923 348.435 74.7818L358.729 80.2636L338.95 104.035C316.761 130.702 282.24 149.225 242.979 155.529C203.719 161.834 162.936 155.403 129.603 137.652L119.309 132.17Z" fill="#183F66"/>
<path d="M288.088 94.4246L302.459 96.0854C318.759 97.9691 333.456 104.956 343.316 115.508C353.177 126.061 357.394 139.315 355.04 152.355L354.313 156.379L339.942 154.718C323.642 152.835 308.945 145.848 299.084 135.295C289.223 124.743 285.006 111.488 287.361 98.4484L288.088 94.4246Z" fill="#183F66"/>
<path d="M372.789 122.488L342.795 133.328C334.297 136.399 324.621 136.644 315.896 134.008C307.172 131.372 300.114 126.071 296.275 119.272L295.089 117.173L325.083 106.333C333.582 103.262 343.258 103.017 351.982 105.653C360.706 108.289 367.764 113.59 371.604 120.389L372.789 122.488Z" fill="#183F66"/>
<path d="M296.305 285.614C296.305 312.718 264.07 334.827 224.31 334.827C184.549 334.827 152.315 312.795 152.315 285.614C152.291 285.266 152.291 284.917 152.315 284.568H296.208C296.264 284.915 296.297 285.264 296.305 285.614Z" fill="#183F66"/>
<path d="M167.609 247.842H165.818C160.472 247.842 156.138 251.31 156.138 255.586V267.493C156.138 271.77 160.472 275.237 165.818 275.237H167.609C172.955 275.237 177.289 271.77 177.289 267.493V255.586C177.289 251.31 172.955 247.842 167.609 247.842Z" fill="#183F66"/>
<path d="M167.609 248.811C169.856 248.811 172.01 249.524 173.598 250.795C175.187 252.066 176.079 253.789 176.079 255.587V267.474C176.079 269.271 175.187 270.994 173.598 272.265C172.01 273.536 169.856 274.25 167.609 274.25H165.818C163.572 274.25 161.418 273.536 159.829 272.265C158.241 270.994 157.348 269.271 157.348 267.474V255.587C157.348 253.789 158.241 252.066 159.829 250.795C161.418 249.524 163.572 248.811 165.818 248.811H167.609ZM167.609 246.875H165.818C162.93 246.875 160.16 247.792 158.118 249.426C156.076 251.06 154.928 253.276 154.928 255.587V267.474C154.928 269.784 156.076 272 158.118 273.634C160.16 275.268 162.93 276.186 165.818 276.186H167.609C170.497 276.186 173.267 275.268 175.31 273.634C177.352 272 178.499 269.784 178.499 267.474V255.587C178.499 253.276 177.352 251.06 175.31 249.426C173.267 247.792 170.497 246.875 167.609 246.875Z" fill="black"/>
<path d="M282.801 247.842H281.01C275.664 247.842 271.33 251.31 271.33 255.586V267.493C271.33 271.77 275.664 275.237 281.01 275.237H282.801C288.147 275.237 292.481 271.77 292.481 267.493V255.586C292.481 251.31 288.147 247.842 282.801 247.842Z" fill="#183F66"/>
<path d="M282.801 248.811C285.048 248.811 287.202 249.524 288.79 250.795C290.379 252.066 291.271 253.789 291.271 255.587V267.474C291.271 269.271 290.379 270.994 288.79 272.265C287.202 273.536 285.048 274.25 282.801 274.25H281.01C278.764 274.25 276.61 273.536 275.021 272.265C273.433 270.994 272.54 269.271 272.54 267.474V255.587C272.54 253.789 273.433 252.066 275.021 250.795C276.61 249.524 278.764 248.811 281.01 248.811H282.801ZM282.801 246.875H281.01C278.122 246.875 275.352 247.792 273.31 249.426C271.268 251.06 270.12 253.276 270.12 255.587V267.474C270.12 269.784 271.268 272 273.31 273.634C275.352 275.268 278.122 276.186 281.01 276.186H282.801C284.232 276.188 285.65 275.965 286.972 275.528C288.295 275.091 289.497 274.449 290.509 273.64C291.521 272.83 292.323 271.869 292.869 270.811C293.415 269.752 293.694 268.618 293.691 267.474V255.587C293.694 254.442 293.415 253.308 292.869 252.25C292.323 251.191 291.521 250.23 290.509 249.421C289.497 248.611 288.295 247.969 286.972 247.533C285.65 247.096 284.232 246.872 282.801 246.875Z" fill="black"/>
<path d="M176.442 199.191C176.28 199.193 176.119 199.168 175.969 199.118C175.819 199.068 175.684 198.994 175.571 198.9L175.305 198.687C175.191 198.597 175.101 198.49 175.04 198.372C174.978 198.254 174.947 198.128 174.947 198C174.947 197.872 174.978 197.746 175.04 197.628C175.101 197.51 175.191 197.403 175.305 197.313L197.787 179.327C197.899 179.234 198.035 179.16 198.184 179.11C198.334 179.06 198.495 179.035 198.658 179.037C198.816 179.038 198.972 179.064 199.118 179.114C199.263 179.164 199.395 179.236 199.505 179.327L199.771 179.54C199.888 179.63 199.98 179.739 200.043 179.859C200.105 179.979 200.136 180.107 200.134 180.237C200.133 180.364 200.1 180.489 200.038 180.605C199.976 180.722 199.885 180.827 199.771 180.915L177.289 198.9C177.181 198.993 177.05 199.067 176.904 199.117C176.758 199.167 176.601 199.192 176.442 199.191Z" fill="#183F66"/>
<path d="M198.658 180.005L198.924 180.237L176.442 198.281L176.152 198.049L198.634 180.063M198.634 178.127C198.315 178.126 197.999 178.174 197.705 178.271C197.41 178.367 197.142 178.509 196.915 178.689L174.409 196.693C173.959 197.056 173.706 197.547 173.706 198.058C173.706 198.57 173.959 199.06 174.409 199.423L174.7 199.655C175.153 200.016 175.767 200.218 176.406 200.218C177.045 200.218 177.659 200.016 178.112 199.655L200.618 181.651C201.069 181.288 201.322 180.797 201.322 180.286C201.322 179.774 201.069 179.284 200.618 178.921L200.328 178.689C199.877 178.331 199.268 178.129 198.634 178.127Z" fill="black"/>
<path d="M199.698 199.326C199.383 199.328 199.079 199.231 198.851 199.055L176.37 181.051C176.256 180.961 176.166 180.853 176.105 180.735C176.043 180.618 176.012 180.491 176.012 180.363C176.012 180.235 176.043 180.109 176.105 179.991C176.166 179.873 176.256 179.766 176.37 179.676L176.636 179.463C176.744 179.37 176.875 179.296 177.021 179.246C177.167 179.196 177.324 179.171 177.483 179.173C177.645 179.171 177.806 179.196 177.956 179.245C178.106 179.295 178.241 179.369 178.354 179.463L200.86 197.448C200.973 197.538 201.063 197.645 201.125 197.763C201.186 197.881 201.218 198.008 201.218 198.136C201.218 198.264 201.186 198.39 201.125 198.508C201.063 198.626 200.973 198.733 200.86 198.823L200.594 199.055C200.352 199.237 200.03 199.334 199.698 199.326Z" fill="#183F66"/>
<path d="M177.483 180.141L199.989 198.145L199.699 198.358L177.217 180.373L177.483 180.141ZM177.483 178.205C176.848 178.207 176.24 178.408 175.789 178.766L175.499 178.998C175.048 179.361 174.795 179.852 174.795 180.363C174.795 180.875 175.048 181.365 175.499 181.728L198.005 199.733C198.458 200.094 199.071 200.296 199.711 200.296C200.35 200.296 200.963 200.094 201.417 199.733L201.707 199.501C202.158 199.138 202.411 198.647 202.411 198.136C202.411 197.624 202.158 197.134 201.707 196.771L179.201 178.766C178.975 178.587 178.707 178.445 178.412 178.348C178.117 178.252 177.801 178.203 177.483 178.205Z" fill="black"/>
<path d="M242 199.191C241.841 199.192 241.684 199.167 241.538 199.117C241.392 199.067 241.261 198.993 241.153 198.9L240.863 198.687C240.639 198.503 240.515 198.257 240.515 198C240.515 197.743 240.639 197.497 240.863 197.313L263.369 179.327C263.477 179.234 263.608 179.16 263.754 179.11C263.9 179.06 264.057 179.035 264.216 179.037C264.543 179.038 264.856 179.142 265.087 179.327L265.353 179.54C265.47 179.63 265.563 179.739 265.625 179.859C265.687 179.979 265.718 180.107 265.716 180.237C265.715 180.364 265.683 180.489 265.62 180.605C265.558 180.722 265.467 180.827 265.353 180.915L242.871 198.9C242.759 198.994 242.623 199.068 242.473 199.118C242.324 199.168 242.162 199.193 242 199.191Z" fill="#183F66"/>
<path d="M264.095 180.005L264.385 180.237L242 198.281L241.734 198.049L264.216 180.063M264.216 178.127C263.897 178.126 263.582 178.174 263.287 178.271C262.992 178.367 262.724 178.509 262.498 178.689L240.016 196.693C239.565 197.056 239.312 197.547 239.312 198.058C239.312 198.57 239.565 199.06 240.016 199.423L240.282 199.655C240.508 199.835 240.776 199.977 241.071 200.073C241.366 200.17 241.682 200.218 242 200.217C242.319 200.218 242.634 200.17 242.929 200.073C243.224 199.977 243.492 199.835 243.718 199.655L266.2 181.651C266.651 181.288 266.904 180.797 266.904 180.286C266.904 179.774 266.651 179.284 266.2 178.921L265.934 178.689C265.708 178.509 265.44 178.367 265.145 178.271C264.85 178.174 264.534 178.126 264.216 178.127Z" fill="black"/>
<path d="M265.16 199.326C264.844 199.328 264.54 199.231 264.313 199.055L241.807 181.05C241.693 180.96 241.603 180.853 241.542 180.735C241.48 180.617 241.449 180.491 241.449 180.363C241.449 180.235 241.48 180.109 241.542 179.991C241.603 179.873 241.693 179.766 241.807 179.676L242.097 179.463C242.206 179.37 242.337 179.296 242.482 179.246C242.628 179.196 242.785 179.17 242.944 179.17C243.103 179.17 243.26 179.196 243.405 179.246C243.551 179.296 243.682 179.37 243.791 179.463L266.297 197.448C266.518 197.637 266.639 197.887 266.636 198.145C266.638 198.398 266.516 198.641 266.297 198.823L266.007 199.055C265.779 199.231 265.475 199.328 265.16 199.326Z" fill="#183F66"/>
<path d="M242.944 180.141L265.426 198.145L265.159 198.358L242.653 180.373L242.944 180.141ZM242.944 178.205C242.625 178.203 242.31 178.252 242.015 178.348C241.72 178.445 241.452 178.587 241.226 178.766L240.959 178.998C240.509 179.361 240.256 179.852 240.256 180.363C240.256 180.875 240.509 181.365 240.959 181.728L263.441 199.733C263.667 199.912 263.936 200.054 264.23 200.151C264.525 200.247 264.841 200.296 265.159 200.294C265.478 200.296 265.794 200.247 266.089 200.151C266.383 200.054 266.652 199.912 266.878 199.733L267.144 199.501C267.595 199.138 267.848 198.647 267.848 198.136C267.848 197.624 267.595 197.134 267.144 196.771L244.662 178.766C244.436 178.587 244.168 178.445 243.873 178.348C243.578 178.252 243.262 178.203 242.944 178.205Z" fill="black"/>
<path d="M304.727 199.191C304.564 199.193 304.403 199.168 304.253 199.118C304.103 199.068 303.968 198.994 303.855 198.9L303.589 198.687C303.476 198.597 303.386 198.49 303.324 198.372C303.263 198.254 303.231 198.128 303.231 198C303.231 197.872 303.263 197.746 303.324 197.628C303.386 197.51 303.476 197.403 303.589 197.313L326.071 179.327C326.184 179.234 326.319 179.16 326.469 179.11C326.619 179.06 326.78 179.035 326.942 179.037C327.1 179.038 327.257 179.064 327.402 179.114C327.548 179.164 327.679 179.236 327.789 179.327L328.055 179.54C328.172 179.63 328.265 179.739 328.327 179.859C328.39 179.979 328.421 180.107 328.418 180.237C328.417 180.364 328.385 180.489 328.322 180.605C328.26 180.722 328.169 180.827 328.055 180.915L305.574 198.9C305.464 198.992 305.332 199.064 305.187 199.114C305.041 199.164 304.885 199.19 304.727 199.191Z" fill="#183F66"/>
<path d="M326.942 180.005L327.208 180.237L304.726 198.281L304.436 198.049L326.918 180.063M326.918 178.127C326.599 178.126 326.284 178.174 325.989 178.271C325.694 178.367 325.426 178.509 325.2 178.689L302.694 196.693C302.243 197.056 301.99 197.547 301.99 198.058C301.99 198.57 302.243 199.06 302.694 199.423L302.984 199.655C303.437 200.016 304.051 200.218 304.69 200.218C305.329 200.218 305.943 200.016 306.396 199.655L328.902 181.651C329.353 181.288 329.606 180.797 329.606 180.286C329.606 179.774 329.353 179.284 328.902 178.921L328.612 178.689C328.161 178.331 327.553 178.129 326.918 178.127Z" fill="black"/>
<path d="M327.983 199.326C327.667 199.328 327.363 199.231 327.136 199.055L304.63 181.051C304.406 180.866 304.281 180.62 304.281 180.363C304.281 180.107 304.406 179.86 304.63 179.676L304.92 179.463C305.028 179.37 305.159 179.296 305.305 179.246C305.451 179.196 305.608 179.171 305.767 179.173C305.929 179.171 306.09 179.196 306.24 179.245C306.39 179.295 306.526 179.369 306.638 179.463L329.12 197.448C329.237 197.539 329.329 197.647 329.392 197.767C329.454 197.887 329.485 198.016 329.483 198.145C329.485 198.272 329.454 198.398 329.391 198.515C329.329 198.632 329.236 198.737 329.12 198.823L328.83 199.055C328.719 199.144 328.586 199.214 328.441 199.26C328.295 199.307 328.139 199.329 327.983 199.326Z" fill="#183F66"/>
<path d="M305.767 180.141L328.273 198.145L327.983 198.358L305.501 180.373L305.767 180.141ZM305.767 178.205C305.132 178.207 304.524 178.408 304.073 178.766L303.783 178.998C303.332 179.361 303.079 179.852 303.079 180.363C303.079 180.875 303.332 181.365 303.783 181.728L326.289 199.733C326.739 200.091 327.348 200.292 327.983 200.294C328.301 200.296 328.617 200.247 328.912 200.151C329.206 200.054 329.475 199.912 329.701 199.733L329.991 199.501C330.442 199.138 330.695 198.647 330.695 198.136C330.695 197.624 330.442 197.134 329.991 196.771L307.485 178.766C307.259 178.587 306.991 178.445 306.696 178.348C306.401 178.252 306.085 178.203 305.767 178.205Z" fill="black"/>
<path d="M178.467 229.165L141.679 235.501C138.413 236.064 136.335 238.638 137.038 241.251L137.247 242.027C137.95 244.641 141.168 246.303 144.435 245.74L181.223 239.404C184.489 238.842 186.567 236.267 185.864 233.654L185.655 232.878C184.952 230.265 181.734 228.602 178.467 229.165Z" fill="#183F66"/>
<path d="M265.071 238.442L301.859 244.778C305.125 245.34 308.344 243.678 309.047 241.065L309.256 240.289C309.959 237.676 307.881 235.101 304.614 234.539L267.826 228.202C264.56 227.64 261.342 229.302 260.639 231.915L260.43 232.691C259.727 235.305 261.804 237.879 265.071 238.442Z" fill="#183F66"/>
<path d="M154.88 360.731V484.809H84.7V360.731C84.7 353.588 88.2465 346.739 94.5594 341.688C100.872 336.638 109.434 333.801 118.362 333.801H121.218C123.419 333.8 125.615 333.968 127.776 334.304C129.596 334.605 131.384 335.02 133.124 335.543C140.438 337.752 146.563 341.927 150.451 347.353C153.376 351.422 154.904 356.037 154.88 360.731Z" fill="#DD8237"/>
<path d="M396.88 360.731V484.809H326.7V360.731C326.695 358.777 326.963 356.829 327.499 354.923C328.633 350.829 330.948 347.004 334.259 343.753C337.57 340.503 341.785 337.917 346.568 336.201C349.104 335.279 351.781 334.628 354.53 334.265C356.455 333.992 358.407 333.856 360.362 333.859H363.218C372.133 333.859 380.684 336.688 386.995 341.726C393.306 346.764 396.861 353.598 396.88 360.731Z" fill="#DD8237"/>
<path d="M363 354.729V484.809H119.403V354.381C119.484 347.15 122.414 340.125 127.776 334.304C129.596 334.605 131.384 335.02 133.124 335.543C134.065 334.416 135.091 333.336 136.198 332.31C136.633 331.884 137.117 331.478 137.577 331.071C138.037 330.665 138.618 330.219 139.15 329.813L139.852 329.29C140.626 328.709 141.449 328.148 142.272 327.644C143.095 327.141 143.53 326.87 144.184 326.502C144.837 326.134 145.49 325.786 146.168 325.457L146.434 325.321L147.741 324.702C148.177 324.489 148.636 324.295 149.096 324.102L150.403 323.598L152.145 322.959C153.377 322.534 154.637 322.166 155.921 321.856L156.719 321.662C157.421 321.488 158.147 321.333 158.873 321.198L161.075 320.83L162.237 320.675C162.914 320.578 163.568 320.501 164.245 320.442C164.923 320.384 165.867 320.326 166.665 320.288H312.446C314.126 320.357 315.798 320.506 317.456 320.733L318.714 320.926C318.967 320.954 319.217 320.993 319.464 321.043C321.078 321.327 322.626 321.675 324.111 322.088C324.667 322.224 325.224 322.398 325.756 322.572C326.289 322.746 326.845 322.901 327.402 323.095L328.297 323.424C329.41 323.83 330.475 324.276 331.54 324.76L332.605 325.263L334.275 326.115C334.976 326.483 335.654 326.889 336.307 327.277C337.556 328.044 338.752 328.865 339.889 329.735L340.591 330.297C341.147 330.723 341.704 331.187 342.212 331.652C342.609 331.983 342.98 332.332 343.325 332.697C343.737 333.085 344.148 333.491 344.535 333.898C345.254 334.631 345.924 335.393 346.544 336.182C349.08 335.26 351.757 334.609 354.506 334.246C360.019 340.164 362.998 347.348 363 354.729Z" fill="#CE7838"/>
<path d="M353.32 354.71V484.809H125.84V354.71C125.819 347.885 128.347 341.211 133.1 335.543C134.041 334.416 135.067 333.336 136.173 332.31C136.609 331.884 137.093 331.478 137.553 331.071L137.722 330.936C138.182 330.548 138.642 330.181 139.126 329.813L139.828 329.29C140.602 328.709 141.425 328.148 142.248 327.644C143.07 327.141 143.506 326.87 144.159 326.502C144.813 326.134 145.466 325.786 146.144 325.457L146.41 325.321L147.717 324.702C148.152 324.489 148.612 324.295 149.072 324.102L150.379 323.598L152.121 322.959C152.799 322.727 153.476 322.514 154.154 322.32C154.832 322.127 155.412 321.972 155.896 321.856L156.695 321.662C157.397 321.488 158.123 321.333 158.849 321.198L161.051 320.83L162.213 320.675C162.89 320.578 163.544 320.501 164.221 320.442C164.899 320.384 165.843 320.326 166.641 320.288H168.868H310.196H312.422C314.101 320.357 315.774 320.506 317.431 320.733L318.69 320.926C318.942 320.954 319.193 320.993 319.44 321.043C321.016 321.309 322.568 321.658 324.086 322.088C324.368 322.148 324.643 322.226 324.909 322.32L325.732 322.572C326.289 322.727 326.821 322.901 327.378 323.095L328.273 323.424C330.353 324.191 332.352 325.091 334.25 326.115C334.952 326.483 335.63 326.889 336.283 327.277C337.532 328.044 338.727 328.865 339.865 329.735L340.567 330.297C341.147 330.742 341.68 331.187 342.212 331.671C342.539 331.948 342.846 332.239 343.132 332.542C343.199 332.572 343.251 332.62 343.277 332.678C343.567 332.949 343.858 333.22 344.124 333.51C344.39 333.801 344.826 334.227 345.14 334.595C345.455 334.962 346.06 335.621 346.496 336.163C350.955 341.691 353.324 348.131 353.32 354.71Z" fill="#DD8237"/>
<path d="M282.075 320.249H305.525C286.758 330.319 264.671 335.696 242.073 335.696C219.475 335.696 197.387 330.319 178.62 320.249H202.07C181.387 314.017 163.421 303.1 150.368 288.832C137.316 274.563 129.743 257.561 128.575 239.905C130.162 216.666 142.819 194.798 163.944 178.796C185.068 162.795 213.054 153.877 242.145 153.877C271.237 153.877 299.222 162.795 320.347 178.796C341.471 194.798 354.129 216.666 355.716 239.905C354.536 257.575 346.941 274.586 333.862 288.856C320.782 303.126 302.786 314.036 282.075 320.249Z" fill="#CE7838"/>
<path d="M128.865 181.341H97.405V192.957H128.865V181.341Z" fill="#7C998A"/>
<path d="M109.916 176.501H101.834C98.7196 176.501 96.1951 178.52 96.1951 181.012V193.286C96.1951 195.777 98.7196 197.797 101.834 197.797H109.916C113.031 197.797 115.555 195.777 115.555 193.286V181.012C115.555 178.52 113.031 176.501 109.916 176.501Z" fill="#7C998A"/>
<path d="M354.675 192.608H386.135V180.992H354.675V192.608Z" fill="#7C998A"/>
<path d="M373.624 197.448H381.707C384.821 197.448 387.345 195.429 387.345 192.938V180.663C387.345 178.172 384.821 176.152 381.707 176.152H373.624C370.51 176.152 367.985 178.172 367.985 180.663V192.938C367.985 195.429 370.51 197.448 373.624 197.448Z" fill="#7C998A"/>
<path d="M355.74 127.539V238.937H128.26V127.539C128.235 127.314 128.235 127.087 128.26 126.862C128.477 123.664 130.219 120.654 133.128 118.453C136.036 116.252 139.89 115.028 143.893 115.033H340.107C342.758 115.028 345.366 115.568 347.681 116.601C350.132 117.677 352.166 119.271 353.562 121.209C354.94 123.027 355.691 125.104 355.74 127.23C355.754 127.333 355.754 127.436 355.74 127.539Z" fill="#478E74"/>
<path d="M355.74 235.065C355.74 236.691 355.74 238.298 355.571 239.905C354.402 257.561 346.829 274.563 333.777 288.832C320.725 303.1 302.759 314.017 282.075 320.249H281.93C256.178 327.941 227.822 327.941 202.07 320.249H201.925C181.242 314.017 163.276 303.1 150.223 288.832C137.171 274.563 129.598 257.561 128.43 239.905C128.43 238.298 128.26 236.691 128.26 235.065C128.26 210.932 140.243 187.788 161.574 170.724C182.904 153.66 211.834 144.073 242 144.073C272.166 144.073 301.096 153.66 322.426 170.724C343.757 187.788 355.74 210.932 355.74 235.065Z" fill="#478E74"/>
<path d="M154.299 135.767L153.016 136.968L152.218 137.723L136.294 152.649C133.984 154.811 131.275 156.679 128.26 158.186V147.577C123.184 150.026 117.417 151.41 111.494 151.599C105.571 151.789 99.6841 150.778 94.3799 148.661L104.834 138.884C107.701 136.197 111.174 133.964 115.071 132.302C119.546 130.422 124.471 129.328 129.517 129.094C134.563 128.861 139.613 129.492 144.329 130.947C145.337 131.257 146.322 131.613 147.281 132.011C149.805 133.028 152.162 134.289 154.299 135.767Z" fill="#417C64"/>
<path d="M168.601 136.329L154.372 137.49L152.194 137.665L140.989 138.594H140.045C130.963 139.16 121.964 136.86 114.974 132.186C112.178 130.349 109.768 128.166 107.835 125.719C110.119 123.979 112.692 122.5 115.482 121.325C112.003 119.05 109.109 116.256 106.964 113.097L130.075 111.161C133.985 110.844 137.933 111.04 141.764 111.742C144.492 112.269 147.133 113.056 149.629 114.084C155.971 116.653 161.187 120.704 164.584 125.7C165.826 127.539 166.792 129.488 167.464 131.508C167.733 132.214 167.951 132.931 168.117 133.657C168.335 134.644 168.48 135.516 168.601 136.329Z" fill="#417C64"/>
<path d="M183.146 115.033C180.283 121.531 175.73 127.47 169.787 132.457C169.255 132.921 168.698 133.386 168.117 133.831C167.537 134.277 166.786 134.857 166.085 135.361L157.881 128.023L156.308 126.649L154.638 125.158L153.476 124.113L151.492 122.351L149.556 120.608C148.54 119.699 147.596 118.789 146.7 117.84C145.805 116.891 145.006 116.04 144.28 115.11C143.554 114.181 142.586 113.019 141.86 111.935C139.262 108.283 137.261 104.379 135.907 100.319C138.085 100.391 140.249 100.631 142.369 101.036C137.81 94.6142 135.114 87.4553 134.479 80.088C136.572 68.6297 143.62 58.1209 154.396 50.3898L170.925 65.1808C176.415 70.065 180.627 75.7786 183.315 81.9853C184.564 84.8201 185.471 87.7438 186.025 90.7166C186.284 92.0073 186.477 93.298 186.606 94.5886C187.253 101.522 186.074 108.487 183.146 115.033Z" fill="#417C64"/>
<path d="M345.697 95.7696C348.575 95.7518 351.444 96.0184 354.24 96.5634L352.594 98.4994C350.827 100.61 349.012 102.662 347.125 104.656C346.496 105.314 345.866 105.972 345.213 106.592C343.834 108.005 342.406 109.38 340.93 110.735C339.453 112.09 337.784 113.6 336.09 114.975C333.057 117.595 329.927 120.054 326.7 122.351C323.473 124.648 320.287 126.726 317.141 128.585L316.367 129.069C314.189 130.347 311.962 131.566 309.712 132.747C286.806 144.753 260.252 151.551 232.89 152.413C205.528 153.276 178.387 148.171 154.372 137.645L153.041 137.064C150.621 135.942 148.201 134.78 145.781 133.541L143.361 132.263L144.377 131.044L147.402 127.404L149.822 124.442L151.202 122.796L151.54 122.37L155.267 117.898L155.703 117.395C156.114 116.891 156.526 116.388 156.985 115.904C157.445 115.42 157.421 115.381 157.639 115.13C158.921 113.678 160.252 112.245 161.583 110.851C168.72 103.399 176.923 96.6417 186.025 90.7167L187.187 89.981C211.249 74.7619 240.533 65.7638 271.143 64.1833C301.753 62.6029 332.239 68.515 358.547 81.1335L353.078 87.6965C350.755 90.4327 348.294 93.1237 345.697 95.7696Z" fill="#417C64"/>
<path d="M360.895 143.647L355.74 143.047V153.966L351.82 153.521C343.389 152.549 335.301 150.194 328.063 146.602C320.825 143.011 314.594 138.261 309.76 132.65C307.568 130.155 305.68 127.497 304.121 124.713C302.353 121.609 300.998 118.364 300.08 115.033C298.465 109.197 298.194 103.174 299.281 97.2604L307.848 98.2477C317.208 99.3222 326.138 102.09 333.96 106.34C334.734 106.766 335.509 107.211 336.259 107.676C337.889 108.65 339.456 109.691 340.954 110.793C343.389 112.586 345.647 114.528 347.706 116.601C349.316 118.228 350.795 119.935 352.134 121.712C353.479 123.489 354.683 125.332 355.74 127.23C356.345 128.294 356.902 129.398 357.41 130.501C359.323 134.734 360.496 139.158 360.895 143.647Z" fill="#417C64"/>
<path d="M357.87 119.66C359.293 122.794 360.307 126.038 360.895 129.34L357.386 130.618L355.74 131.198L352.328 132.437C347.406 134.215 342.04 135.063 336.643 134.916C331.246 134.768 325.965 133.628 321.207 131.586C319.515 130.855 317.896 130.02 316.367 129.088C313.411 127.284 310.851 125.099 308.792 122.622C307.645 121.289 306.649 119.876 305.815 118.401L307.074 117.937L313.293 115.691L314.818 115.149L329.507 109.844L331.104 109.264C332.76 108.659 334.476 108.167 336.235 107.792C339.157 107.13 342.176 106.785 345.213 106.766C346.547 106.755 347.881 106.814 349.206 106.94C357.296 107.567 364.86 110.428 370.599 115.033L357.87 119.66Z" fill="#417C64"/>
<path d="M154.88 124.906L154.686 125.081L153.597 126.107L152.775 126.862L147.281 132.012L145.757 133.444L140.118 138.71L136.827 141.788C134.405 144.078 131.537 146.039 128.333 147.596C121.995 150.668 114.608 152.064 107.222 151.584C99.8366 151.104 92.8278 148.774 87.1926 144.925L105.246 128.023C108.12 125.347 111.591 123.122 115.482 121.46C119.956 119.577 124.881 118.481 129.928 118.247C134.974 118.013 140.025 118.647 144.74 120.105C146.98 120.815 149.121 121.711 151.129 122.777C151.967 123.185 152.775 123.631 153.549 124.113C153.912 124.306 154.372 124.597 154.88 124.906Z" fill="#421F0B"/>
<path d="M169.085 125.526L164.56 125.894L156.308 126.649H154.88L152.75 126.823L147.33 127.268L141.522 127.752C136.879 128.131 132.189 127.764 127.726 126.674C123.263 125.583 119.117 123.791 115.531 121.402C108.421 116.707 103.909 109.96 102.971 102.623L130.68 100.416C132.424 100.271 134.18 100.232 135.931 100.3C138.109 100.372 140.273 100.612 142.393 101.016C147.447 101.982 152.172 103.826 156.235 106.418C158.217 107.71 160.026 109.163 161.632 110.754C162.943 112.091 164.094 113.523 165.068 115.033C166.749 117.504 167.941 120.169 168.601 122.932C168.819 123.784 168.964 124.713 169.085 125.526Z" fill="#421F0B"/>
<path d="M187.187 89.9616C187.187 91.5298 186.897 93.0979 186.606 94.6467C185.275 101.944 181.918 108.909 176.781 115.033C174.412 117.89 171.67 120.538 168.601 122.932C167.948 123.454 167.27 123.958 166.569 124.461L156.889 115.807L156.017 115.033L151.928 111.393L150.04 109.67C147.073 107.015 144.469 104.114 142.272 101.016C135.304 91.1512 132.756 79.6787 135.048 68.4972C137.341 57.3158 144.338 47.0958 154.88 39.5288L171.433 54.3198C182.312 64.0936 187.968 76.8895 187.187 89.9616Z" fill="#421F0B"/>
<path d="M365.057 73.2927L358.547 81.0367L353.078 87.5997C350.755 90.4134 348.295 93.1109 345.697 95.6922C344.318 97.1055 342.89 98.4994 341.414 99.8546C338.994 102.081 336.574 104.23 333.936 106.263C332.484 107.444 331.008 108.567 329.507 109.651C327.087 111.587 324.425 113.29 321.787 114.955C320.166 116.02 318.52 117.027 316.947 118.014C314.745 119.292 312.519 120.531 310.268 121.693C309.808 121.964 309.349 122.196 308.889 122.428C307.34 123.222 305.791 123.977 304.218 124.713C284.086 134.234 261.468 139.889 238.141 141.233C214.815 142.577 191.417 139.572 169.787 132.457L167.367 131.682C164.149 130.56 160.954 129.359 157.687 128.043C156.671 127.636 155.654 127.191 154.662 126.746L153.355 126.165C152.097 125.603 150.935 125.003 149.58 124.403C147.547 123.435 145.539 122.467 143.554 121.364L144.571 120.144L146.507 117.821L148.927 115.033L149.629 114.2L152.049 111.393L155.775 106.921L156.211 106.418C163.812 97.3235 172.931 89.1033 183.315 81.9853C184.356 81.2496 185.42 80.5333 186.509 79.8557C211.527 63.7088 242.33 54.3661 274.44 53.1858C306.55 52.0055 338.294 59.0491 365.057 73.2927Z" fill="#421F0B"/>
<path d="M360.919 143.647L355.74 143.047L352.304 142.64C340.834 141.334 330.057 137.469 321.207 131.489C319.803 130.54 318.472 129.553 317.189 128.507C314.613 126.445 312.279 124.196 310.22 121.79C309.1 120.545 308.066 119.252 307.122 117.917C306.469 117.008 305.84 116.078 305.283 115.13C301.92 109.558 299.9 103.528 299.33 97.3572C298.99 93.7342 299.144 90.0925 299.79 86.4962L308.381 87.4836C318.68 88.6632 328.443 91.899 336.767 96.8925C338.408 97.8629 339.976 98.9101 341.462 100.029C343.499 101.51 345.408 103.102 347.173 104.791C347.899 105.488 348.601 106.185 349.254 106.921C352.927 110.829 355.848 115.156 357.918 119.757C359.342 122.891 360.355 126.135 360.943 129.437C361.795 134.149 361.787 138.936 360.919 143.647Z" fill="#421F0B"/>
<path d="M378.101 112.323L370.599 115.033L357.87 119.66L353.562 121.209L352.812 121.48C352.57 121.48 352.352 121.654 352.11 121.712C346.362 123.675 340.064 124.375 333.865 123.738C327.666 123.102 321.792 121.152 316.851 118.092C315.582 117.331 314.392 116.49 313.293 115.575C313.063 115.404 312.845 115.223 312.64 115.033C310.018 112.793 307.876 110.222 306.299 107.424L322.683 101.481L331.54 98.2865C333.194 97.6901 334.901 97.1918 336.646 96.7958C344.719 95.0156 353.321 95.5973 360.907 98.4362C368.492 101.275 374.563 106.185 378.028 112.284L378.101 112.323Z" fill="#421F0B"/>
<path d="M307.34 268.829C307.34 290.802 277.55 308.633 240.79 308.633C204.03 308.633 174.24 290.802 174.24 268.829C174.216 268.545 174.216 268.26 174.24 267.977H307.34C307.364 268.26 307.364 268.545 307.34 268.829Z" fill="white"/>
<path d="M187.55 253.457C184.983 253.457 182.521 252.641 180.705 251.189C178.89 249.736 177.87 247.767 177.87 245.713V236.033C177.87 233.979 178.89 232.009 180.705 230.557C182.521 229.105 184.983 228.289 187.55 228.289C190.117 228.289 192.58 229.105 194.395 230.557C196.21 232.009 197.23 233.979 197.23 236.033V245.713C197.23 247.767 196.21 249.736 194.395 251.189C192.58 252.641 190.117 253.457 187.55 253.457Z" fill="black"/>
<path d="M187.55 229.257C189.796 229.257 191.951 229.971 193.539 231.241C195.128 232.512 196.02 234.236 196.02 236.033V245.713C196.02 247.51 195.128 249.233 193.539 250.504C191.951 251.775 189.796 252.489 187.55 252.489C185.304 252.489 183.149 251.775 181.561 250.504C179.972 249.233 179.08 247.51 179.08 245.713V236.033C179.08 234.236 179.972 232.512 181.561 231.241C183.149 229.971 185.304 229.257 187.55 229.257ZM187.55 227.321C186.119 227.318 184.702 227.542 183.379 227.979C182.056 228.416 180.854 229.057 179.843 229.867C178.831 230.676 178.029 231.638 177.483 232.696C176.936 233.754 176.657 234.888 176.66 236.033V245.713C176.66 248.023 177.807 250.239 179.85 251.873C181.892 253.507 184.662 254.425 187.55 254.425C190.438 254.425 193.208 253.507 195.25 251.873C197.293 250.239 198.44 248.023 198.44 245.713V236.033C198.443 234.888 198.164 233.754 197.618 232.696C197.071 231.638 196.269 230.676 195.258 229.867C194.246 229.057 193.044 228.416 191.721 227.979C190.399 227.542 188.981 227.318 187.55 227.321Z" fill="black"/>
<path d="M294.03 253.457C291.463 253.457 289.001 252.641 287.185 251.189C285.37 249.736 284.35 247.767 284.35 245.713V236.033C284.35 233.979 285.37 232.009 287.185 230.557C289.001 229.105 291.463 228.289 294.03 228.289C296.597 228.289 299.06 229.105 300.875 230.557C302.69 232.009 303.71 233.979 303.71 236.033V245.713C303.71 247.767 302.69 249.736 300.875 251.189C299.06 252.641 296.597 253.457 294.03 253.457Z" fill="black"/>
<path d="M294.03 229.257C296.276 229.257 298.431 229.971 300.019 231.241C301.608 232.512 302.5 234.236 302.5 236.033V245.713C302.5 247.51 301.608 249.233 300.019 250.504C298.431 251.775 296.276 252.489 294.03 252.489C291.784 252.489 289.629 251.775 288.041 250.504C286.452 249.233 285.56 247.51 285.56 245.713V236.033C285.56 234.236 286.452 232.512 288.041 231.241C289.629 229.971 291.784 229.257 294.03 229.257ZM294.03 227.321C292.599 227.318 291.182 227.542 289.859 227.979C288.536 228.416 287.334 229.057 286.323 229.867C285.311 230.676 284.509 231.638 283.963 232.696C283.416 233.754 283.137 234.888 283.14 236.033V245.713C283.14 248.023 284.287 250.239 286.33 251.873C288.372 253.507 291.142 254.425 294.03 254.425C296.918 254.425 299.688 253.507 301.73 251.873C303.773 250.239 304.92 248.023 304.92 245.713V236.033C304.923 234.888 304.644 233.754 304.098 232.696C303.551 231.638 302.749 230.676 301.738 229.867C300.726 229.057 299.524 228.416 298.201 227.979C296.879 227.542 295.461 227.318 294.03 227.321Z" fill="black"/>
<path d="M144.619 182.289C144.296 182.292 143.984 182.195 143.748 182.018C143.525 181.834 143.4 181.588 143.4 181.331C143.4 181.075 143.525 180.828 143.748 180.644L164.294 164.207C164.521 164.032 164.825 163.935 165.141 163.936C165.464 163.934 165.776 164.031 166.012 164.207C166.235 164.391 166.36 164.638 166.36 164.895C166.36 165.151 166.235 165.398 166.012 165.582L145.466 182.018C145.239 182.194 144.935 182.291 144.619 182.289Z" fill="#5F0087"/>
<path d="M165.141 164.904L144.619 181.321L165.141 164.904ZM165.141 162.968C164.506 162.97 163.897 163.172 163.447 163.53L142.901 179.966C142.45 180.329 142.197 180.82 142.197 181.331C142.197 181.843 142.45 182.333 142.901 182.696C143.127 182.875 143.395 183.017 143.69 183.114C143.985 183.21 144.301 183.259 144.619 183.257C145.254 183.255 145.862 183.054 146.313 182.696L166.98 166.259C167.431 165.897 167.684 165.406 167.684 164.894C167.684 164.383 167.431 163.892 166.98 163.53C166.754 163.35 166.486 163.208 166.191 163.112C165.896 163.016 165.58 162.967 165.262 162.968H165.141Z" fill="black"/>
<path d="M166.133 182.425C165.971 182.427 165.81 182.402 165.66 182.352C165.51 182.302 165.374 182.228 165.262 182.134L144.74 165.717C144.627 165.627 144.537 165.52 144.475 165.402C144.414 165.284 144.382 165.158 144.382 165.03C144.382 164.902 144.414 164.776 144.475 164.658C144.537 164.54 144.627 164.433 144.74 164.343C144.965 164.162 145.269 164.058 145.587 164.052C145.913 164.057 146.225 164.161 146.458 164.343L166.98 180.857C167.096 180.944 167.188 181.049 167.251 181.165C167.314 181.282 167.347 181.407 167.347 181.534C167.347 181.661 167.314 181.787 167.251 181.904C167.188 182.02 167.096 182.125 166.98 182.212C166.864 182.291 166.729 182.351 166.584 182.387C166.438 182.424 166.285 182.437 166.133 182.425Z" fill="#5F0087"/>
<path d="M145.587 165.02L166.133 181.457L145.587 165.02ZM145.587 163.084C145.267 163.085 144.95 163.137 144.655 163.237C144.36 163.337 144.093 163.482 143.869 163.665C143.418 164.028 143.165 164.518 143.165 165.03C143.165 165.541 143.418 166.032 143.869 166.395L164.415 182.793C164.641 182.972 164.909 183.114 165.204 183.21C165.499 183.307 165.815 183.356 166.133 183.354C166.612 183.353 167.079 183.237 167.476 183.023C167.873 182.809 168.181 182.506 168.362 182.152C168.544 181.797 168.59 181.408 168.494 181.033C168.399 180.657 168.167 180.313 167.827 180.044L147.305 163.626C147.081 163.443 146.814 163.298 146.519 163.198C146.224 163.098 145.907 163.047 145.587 163.046V163.084Z" fill="black"/>
<path d="M196.528 183.122C196.369 183.124 196.212 183.099 196.066 183.049C195.92 182.998 195.789 182.925 195.681 182.832C195.568 182.742 195.478 182.635 195.416 182.517C195.355 182.399 195.323 182.272 195.323 182.144C195.323 182.017 195.355 181.89 195.416 181.772C195.478 181.654 195.568 181.547 195.681 181.457L216.203 165.04C216.315 164.946 216.451 164.872 216.601 164.822C216.751 164.772 216.912 164.747 217.074 164.749C217.233 164.748 217.39 164.773 217.536 164.823C217.682 164.873 217.813 164.947 217.921 165.04C218.034 165.13 218.124 165.237 218.186 165.355C218.247 165.473 218.279 165.599 218.279 165.727C218.279 165.855 218.247 165.981 218.186 166.099C218.124 166.217 218.034 166.324 217.921 166.414L197.375 182.793C197.272 182.893 197.142 182.974 196.996 183.031C196.85 183.088 196.691 183.119 196.528 183.122Z" fill="#5F0087"/>
<path d="M217.074 165.717L196.528 182.154L217.074 165.717ZM217.074 163.781C216.754 163.782 216.437 163.834 216.142 163.934C215.847 164.034 215.58 164.179 215.356 164.362L194.81 180.857C194.359 181.22 194.106 181.71 194.106 182.222C194.106 182.733 194.359 183.224 194.81 183.587C195.034 183.769 195.301 183.915 195.596 184.015C195.891 184.114 196.208 184.166 196.528 184.167C196.848 184.166 197.165 184.114 197.46 184.015C197.755 183.915 198.022 183.769 198.246 183.587L218.768 167.169C219.219 166.807 219.472 166.316 219.472 165.804C219.472 165.293 219.219 164.802 218.768 164.439C218.321 164.075 217.712 163.866 217.074 163.859V163.781Z" fill="black"/>
<path d="M218.042 183.238C217.726 183.24 217.422 183.142 217.195 182.967L196.649 166.53C196.433 166.347 196.313 166.105 196.313 165.853C196.313 165.601 196.433 165.359 196.649 165.175C196.762 165.082 196.897 165.008 197.047 164.958C197.197 164.908 197.358 164.883 197.52 164.885C197.679 164.886 197.835 164.912 197.981 164.962C198.126 165.011 198.258 165.084 198.367 165.175L218.889 181.593C219.055 181.728 219.167 181.899 219.213 182.085C219.258 182.271 219.234 182.464 219.144 182.639C219.054 182.814 218.901 182.964 218.705 183.071C218.51 183.177 218.279 183.235 218.042 183.238Z" fill="#5F0087"/>
<path d="M197.52 165.853L218.042 182.27L197.496 165.853M197.496 163.917C196.997 163.901 196.503 164.01 196.084 164.227C195.664 164.445 195.339 164.761 195.154 165.132C194.968 165.504 194.931 165.912 195.047 166.301C195.163 166.69 195.427 167.041 195.802 167.305L216.324 183.722C216.55 183.902 216.818 184.044 217.113 184.14C217.408 184.236 217.723 184.285 218.042 184.284C218.36 184.285 218.676 184.236 218.971 184.14C219.266 184.044 219.534 183.902 219.76 183.722C220.211 183.359 220.464 182.869 220.464 182.357C220.464 181.846 220.211 181.355 219.76 180.992L199.214 164.556C198.764 164.198 198.155 163.996 197.52 163.994L197.496 163.917Z" fill="black"/>
<path d="M257.028 183.122C256.869 183.124 256.712 183.099 256.566 183.049C256.42 182.998 256.289 182.925 256.181 182.832C256.068 182.742 255.978 182.635 255.916 182.517C255.855 182.399 255.823 182.272 255.823 182.144C255.823 182.017 255.855 181.89 255.916 181.772C255.978 181.654 256.068 181.547 256.181 181.457L276.703 165.04C276.815 164.946 276.951 164.872 277.101 164.822C277.251 164.772 277.412 164.747 277.574 164.749C277.733 164.748 277.89 164.773 278.036 164.823C278.182 164.873 278.313 164.947 278.421 165.04C278.534 165.13 278.624 165.237 278.686 165.355C278.747 165.473 278.779 165.599 278.779 165.727C278.779 165.855 278.747 165.981 278.686 166.099C278.624 166.217 278.534 166.324 278.421 166.414L257.875 182.793C257.772 182.893 257.642 182.974 257.496 183.031C257.35 183.088 257.191 183.119 257.028 183.122Z" fill="#5F0087"/>
<path d="M277.574 165.717L257.028 182.154L277.574 165.717ZM277.574 163.781C277.254 163.782 276.937 163.834 276.642 163.934C276.347 164.034 276.08 164.179 275.856 164.362L255.31 180.857C254.859 181.22 254.606 181.71 254.606 182.222C254.606 182.733 254.859 183.224 255.31 183.587C255.534 183.769 255.801 183.915 256.096 184.015C256.391 184.114 256.708 184.166 257.028 184.167C257.348 184.166 257.665 184.114 257.96 184.015C258.255 183.915 258.522 183.769 258.746 183.587L279.268 167.169C279.719 166.807 279.972 166.316 279.972 165.804C279.972 165.293 279.719 164.802 279.268 164.439C278.821 164.075 278.212 163.866 277.574 163.859V163.781Z" fill="black"/>
<path d="M278.542 183.238C278.226 183.24 277.922 183.142 277.695 182.967L257.149 166.53C256.933 166.347 256.813 166.105 256.813 165.853C256.813 165.601 256.933 165.359 257.149 165.175C257.262 165.082 257.397 165.008 257.547 164.958C257.697 164.908 257.858 164.883 258.02 164.885C258.179 164.886 258.335 164.912 258.481 164.962C258.626 165.011 258.758 165.084 258.867 165.175L279.389 181.593C279.555 181.728 279.667 181.899 279.713 182.085C279.758 182.271 279.734 182.464 279.644 182.639C279.554 182.814 279.401 182.964 279.205 183.071C279.01 183.177 278.779 183.235 278.542 183.238Z" fill="#5F0087"/>
<path d="M258.02 165.853L278.542 182.27L257.996 165.853M257.996 163.917C257.516 163.915 257.045 164.027 256.644 164.24C256.244 164.452 255.931 164.755 255.747 165.11C255.563 165.466 255.515 165.857 255.609 166.234C255.704 166.611 255.937 166.957 256.278 167.227L276.8 183.645C277.026 183.824 277.294 183.966 277.589 184.062C277.884 184.159 278.199 184.208 278.518 184.206C278.836 184.208 279.152 184.159 279.447 184.062C279.742 183.966 280.01 183.824 280.236 183.645C280.687 183.282 280.94 182.791 280.94 182.28C280.94 181.768 280.687 181.278 280.236 180.915L259.69 164.478C259.239 164.121 258.631 163.919 257.996 163.917Z" fill="black"/>
<path d="M315.108 183.122C314.949 183.124 314.792 183.099 314.646 183.049C314.5 182.998 314.369 182.925 314.261 182.832C314.148 182.742 314.058 182.635 313.996 182.517C313.935 182.399 313.903 182.272 313.903 182.144C313.903 182.017 313.935 181.89 313.996 181.772C314.058 181.654 314.148 181.547 314.261 181.457L334.783 165.04C334.895 164.946 335.031 164.872 335.181 164.822C335.331 164.772 335.492 164.747 335.654 164.749C335.813 164.748 335.97 164.773 336.116 164.823C336.262 164.873 336.393 164.947 336.501 165.04C336.614 165.13 336.704 165.237 336.766 165.355C336.827 165.473 336.859 165.599 336.859 165.727C336.859 165.855 336.827 165.981 336.766 166.099C336.704 166.217 336.614 166.324 336.501 166.414L315.955 182.793C315.851 182.893 315.722 182.974 315.576 183.031C315.43 183.088 315.271 183.119 315.108 183.122Z" fill="#5F0087"/>
<path d="M335.654 165.717L315.108 182.154L335.654 165.717ZM335.654 163.781C335.334 163.782 335.017 163.834 334.722 163.934C334.427 164.034 334.16 164.179 333.936 164.362L313.39 180.857C312.939 181.22 312.686 181.71 312.686 182.222C312.686 182.733 312.939 183.224 313.39 183.587C313.614 183.769 313.881 183.915 314.176 184.015C314.471 184.114 314.788 184.166 315.108 184.167C315.428 184.166 315.745 184.114 316.04 184.015C316.335 183.915 316.602 183.769 316.826 183.587L337.348 167.169C337.799 166.807 338.052 166.316 338.052 165.804C338.052 165.293 337.799 164.802 337.348 164.439C336.901 164.075 336.292 163.866 335.654 163.859V163.781Z" fill="black"/>
<path d="M336.622 183.238C336.306 183.24 336.002 183.142 335.775 182.967L315.229 166.53C315.013 166.347 314.893 166.105 314.893 165.853C314.893 165.601 315.013 165.359 315.229 165.175C315.342 165.082 315.477 165.008 315.627 164.958C315.777 164.908 315.938 164.883 316.1 164.885C316.259 164.886 316.415 164.912 316.561 164.962C316.706 165.011 316.837 165.084 316.947 165.175L337.469 181.593C337.635 181.728 337.747 181.899 337.793 182.085C337.838 182.271 337.814 182.464 337.724 182.639C337.634 182.814 337.481 182.964 337.285 183.071C337.089 183.177 336.859 183.235 336.622 183.238Z" fill="#5F0087"/>
<path d="M316.1 165.853L336.622 182.27L316.076 165.853M316.076 163.917C315.595 163.915 315.125 164.027 314.724 164.24C314.324 164.452 314.011 164.755 313.827 165.11C313.643 165.466 313.595 165.857 313.689 166.234C313.784 166.611 314.017 166.957 314.358 167.227L334.88 183.645C335.106 183.824 335.374 183.966 335.669 184.062C335.964 184.159 336.279 184.208 336.598 184.206C336.916 184.208 337.232 184.159 337.527 184.062C337.822 183.966 338.09 183.824 338.316 183.645C338.767 183.282 339.02 182.791 339.02 182.28C339.02 181.768 338.767 181.278 338.316 180.915L317.77 164.478C317.319 164.121 316.711 163.919 316.076 163.917Z" fill="black"/>
<path d="M197.99 211.043L164.868 216.748C161.602 217.31 159.524 219.885 160.227 222.498C160.931 225.111 164.149 226.773 167.415 226.211L200.536 220.506C203.803 219.944 205.881 217.369 205.177 214.756C204.474 212.143 201.256 210.48 197.99 211.043Z" fill="#421F0B"/>
<path d="M278.902 219.635L312.023 225.34C315.29 225.903 318.508 224.24 319.211 221.627C319.914 219.014 317.836 216.44 314.57 215.877L281.449 210.172C278.182 209.61 274.964 211.272 274.261 213.885C273.558 216.498 275.636 219.073 278.902 219.635Z" fill="#421F0B"/>
<path opacity="0.53" d="M314.6 374.457H166.98V451.897H314.6V374.457Z" fill="#CE7838"/>
<path d="M317.02 372.521H169.4V449.961H317.02V372.521Z" fill="#EFE2DF"/>
<path d="M182.952 363.615C182.008 362.88 180.072 362.338 176.128 363.906C169.796 366.725 164.575 370.902 161.051 375.967C159.091 379.123 159.768 380.671 160.688 381.427C161.345 381.911 162.215 382.169 163.108 382.143C164.637 382.076 166.126 381.732 167.464 381.136C170.43 379.885 173.146 378.286 175.523 376.393H171.82C170.152 377.563 168.316 378.57 166.351 379.394C163.786 380.42 162.6 380.265 162.309 380.052C162.019 379.839 161.85 378.871 163.132 376.819C166.425 372.146 171.254 368.282 177.096 365.648C178.095 365.184 179.211 364.906 180.363 364.835C180.635 364.818 180.907 364.872 181.137 364.99C181.403 365.222 181.597 366.171 180.314 368.223C179.307 369.763 178.081 371.206 176.66 372.521H179.758C180.801 371.443 181.716 370.289 182.492 369.075C183.234 368.004 183.664 366.813 183.751 365.59C183.786 365.235 183.734 364.878 183.597 364.539C183.46 364.2 183.241 363.886 182.952 363.615Z" fill="#877B7A"/>
<path d="M302.694 365.59C302.781 366.813 303.211 368.004 303.952 369.075C304.728 370.289 305.643 371.443 306.687 372.521H309.76C308.339 371.206 307.113 369.763 306.106 368.223C304.823 366.171 305.017 365.222 305.283 364.99C305.513 364.872 305.785 364.818 306.057 364.835C307.209 364.906 308.326 365.184 309.324 365.648C315.166 368.282 319.995 372.146 323.288 376.819C324.57 378.871 324.377 379.82 324.111 380.052C323.844 380.284 322.634 380.42 320.069 379.394C318.104 378.57 316.268 377.563 314.6 376.393H310.994C313.356 378.283 316.055 379.882 319.004 381.136C320.342 381.732 321.832 382.076 323.36 382.143C324.254 382.169 325.123 381.911 325.78 381.427C326.7 380.671 327.378 379.123 325.417 375.967C321.894 370.902 316.672 366.725 310.341 363.906C306.396 362.338 304.46 362.88 303.516 363.615C303.223 363.885 303 364.198 302.859 364.537C302.717 364.876 302.661 365.234 302.694 365.59Z" fill="#877B7A"/>
<path d="M196.867 430.756V410.621H192.269V404.929H205.24V430.756H196.867Z" fill="#21160E"/>
<path d="M238.588 417.862C238.73 419.789 238.373 421.719 237.541 423.532C236.708 425.344 235.417 426.999 233.748 428.394C231.384 430.281 228.181 431.34 224.842 431.34C221.503 431.34 218.3 430.281 215.937 428.394C212.841 425.436 211.145 421.701 211.145 417.843C211.145 413.985 212.841 410.25 215.937 407.291C218.3 405.405 221.503 404.345 224.842 404.345C228.181 404.345 231.384 405.405 233.748 407.291C235.414 408.695 236.704 410.358 237.536 412.176C238.369 413.994 238.726 415.929 238.588 417.862ZM224.891 410.35C223.937 410.347 223.018 410.638 222.325 411.163C221.347 411.953 220.646 412.934 220.293 414.009C219.798 415.262 219.537 416.567 219.518 417.881C219.549 419.161 219.802 420.432 220.268 421.656C220.604 422.775 221.315 423.8 222.325 424.619C223.018 425.144 223.937 425.435 224.891 425.432C225.846 425.439 226.766 425.147 227.456 424.619C228.455 423.827 229.159 422.828 229.489 421.734C230.003 420.484 230.264 419.177 230.263 417.862C230.24 416.547 229.971 415.241 229.464 413.99C229.105 412.954 228.422 412.008 227.48 411.241C227.144 410.963 226.741 410.741 226.297 410.588C225.852 410.435 225.374 410.354 224.891 410.35Z" fill="#21160E"/>
<path d="M266.563 425.064V430.756H240.669L248.849 423.902C251.341 421.914 253.564 419.721 255.479 417.359C256.533 416.179 257.138 414.78 257.222 413.332C257.3 412.438 256.955 411.553 256.254 410.854C255.947 410.59 255.571 410.383 255.152 410.249C254.734 410.115 254.284 410.057 253.834 410.079C253.295 410.061 252.759 410.146 252.271 410.328C251.782 410.51 251.356 410.783 251.027 411.125C250.243 412.063 249.837 413.171 249.865 414.3H241.25C241.201 412.962 241.499 411.632 242.125 410.391C242.751 409.15 243.692 408.027 244.888 407.092C246.084 406.157 247.509 405.431 249.074 404.958C250.639 404.486 252.309 404.279 253.979 404.349C255.643 404.278 257.307 404.478 258.872 404.937C260.436 405.396 261.867 406.105 263.078 407.02C264.117 407.851 264.932 408.843 265.473 409.935C266.015 411.027 266.27 412.196 266.224 413.371C266.162 414.864 265.697 416.329 264.862 417.666C264.027 419.002 262.84 420.179 261.384 421.115L255.963 425.141L266.563 425.064Z" fill="#21160E"/>
<path d="M292.36 404.929V420.727H296.281V425.877H292.36V430.756H284.616V425.877H268.983V421.579L281.422 404.929H292.36ZM277.017 420.727H284.616V410.195L277.017 420.727Z" fill="#21160E"/>
<path d="M173.78 390.526L175.208 388.357C175.587 388.683 176.043 388.945 176.55 389.127C177.057 389.31 177.605 389.41 178.16 389.422C178.399 389.442 178.639 389.419 178.865 389.356C179.091 389.292 179.297 389.189 179.467 389.054C179.572 388.971 179.654 388.871 179.708 388.761C179.763 388.651 179.788 388.534 179.782 388.415C179.786 388.297 179.756 388.179 179.693 388.071C179.63 387.963 179.536 387.869 179.419 387.796C178.909 387.533 178.343 387.349 177.749 387.254L176.878 387.041C176.182 386.892 175.547 386.598 175.039 386.189C174.498 385.685 174.229 385.031 174.288 384.369C174.263 383.91 174.355 383.452 174.559 383.022C174.762 382.593 175.074 382.201 175.474 381.872C175.918 381.542 176.44 381.286 177.01 381.12C177.579 380.954 178.184 380.88 178.79 380.904C180.186 380.914 181.558 381.2 182.783 381.736L181.5 383.827C180.89 383.396 180.111 383.15 179.298 383.13C179.1 383.121 178.901 383.143 178.714 383.196C178.527 383.249 178.355 383.332 178.209 383.44C178.109 383.511 178.028 383.597 177.969 383.694C177.911 383.79 177.877 383.895 177.87 384.001C177.863 384.167 177.922 384.33 178.039 384.466C178.36 384.7 178.752 384.86 179.177 384.931L180.193 385.182C181.098 385.339 181.933 385.687 182.613 386.189C182.905 386.452 183.128 386.758 183.269 387.091C183.41 387.423 183.467 387.775 183.436 388.125C183.462 388.6 183.369 389.075 183.161 389.521C182.953 389.966 182.635 390.374 182.226 390.719C181.708 391.089 181.103 391.372 180.446 391.551C179.79 391.731 179.095 391.803 178.402 391.765C177.579 391.758 176.762 391.647 175.982 391.436C175.193 391.226 174.45 390.919 173.78 390.526Z" fill="#21160E"/>
<path d="M193.043 383.401H190.26V391.455H186.921V383.401H184.186V381.136H193.043V383.401Z" fill="#21160E"/>
<path d="M202.627 391.455L201.828 389.732H197.133L196.262 391.455H192.729L197.569 381.136H201.344L206.184 391.455H202.627ZM198.077 387.68H200.86L199.408 384.331L198.077 387.68Z" fill="#21160E"/>
<path d="M207.684 381.136H212.96C213.538 381.103 214.119 381.166 214.665 381.323C215.211 381.48 215.71 381.726 216.13 382.046C216.496 382.356 216.781 382.721 216.968 383.12C217.155 383.519 217.24 383.943 217.219 384.369C217.246 384.764 217.169 385.159 216.994 385.529C216.819 385.899 216.55 386.236 216.203 386.518C215.705 386.891 215.083 387.14 214.412 387.234L218.453 391.455H214.243L211.048 387.583V391.455H207.684V381.136ZM211.048 383.208V385.763H211.677C211.97 385.783 212.264 385.756 212.542 385.683C212.821 385.609 213.078 385.492 213.299 385.337C213.444 385.229 213.558 385.096 213.633 384.949C213.708 384.802 213.743 384.644 213.734 384.485C213.747 384.322 213.712 384.158 213.632 384.007C213.552 383.856 213.43 383.721 213.275 383.614C213.056 383.464 212.802 383.351 212.527 383.281C212.253 383.212 211.964 383.187 211.677 383.208H211.048Z" fill="#21160E"/>
<path d="M226.996 383.401H224.213V391.455H220.849V383.401H218.115V381.136H226.996V383.401Z" fill="#21160E"/>
<path d="M231.812 391.455H228.472V381.136H231.812L237.983 387.447V381.136H241.347V391.455H237.983L231.812 385.144V391.455Z" fill="#21160E"/>
<path d="M244.057 381.136H247.397V387.254C247.365 387.54 247.406 387.829 247.519 388.102C247.631 388.375 247.812 388.626 248.05 388.841C248.478 389.171 249.053 389.352 249.647 389.345C250.221 389.342 250.772 389.167 251.193 388.855C251.614 388.544 251.874 388.118 251.922 387.66C251.937 387.448 251.937 387.234 251.922 387.022V381.214H255.262V387.138C255.29 387.512 255.29 387.887 255.262 388.261C255.192 388.628 255.062 388.986 254.875 389.325C254.635 389.762 254.289 390.157 253.858 390.487C253.296 390.923 252.628 391.262 251.895 391.481C251.162 391.701 250.381 391.798 249.599 391.765C248.82 391.81 248.038 391.723 247.304 391.509C246.57 391.296 245.9 390.961 245.34 390.526C244.404 389.563 243.954 388.353 244.081 387.138L244.057 381.136Z" fill="#21160E"/>
<path d="M260.755 391.455H257.416L259.618 381.136H262.933L265.547 386.634L268.306 381.136H271.645L273.581 391.455H270.242L269.298 385.511L266.2 391.455H264.869L261.893 385.511L260.755 391.455Z" fill="#21160E"/>
<path d="M278.469 391.455H275.13L277.332 381.136H280.72L283.334 386.634L286.092 381.136H289.432L291.368 391.455H287.98L287.036 385.511L283.914 391.455H282.583L279.607 385.511L278.469 391.455Z" fill="#21160E"/>
<path d="M300.782 381.136V383.401H296.789V385.124H300.564V387.409H296.789V389.19H300.782V391.455H293.522V381.136H300.782Z" fill="#21160E"/>
<path d="M302.911 381.136H308.139C308.713 381.103 309.29 381.167 309.832 381.324C310.374 381.48 310.869 381.726 311.285 382.046C311.654 382.355 311.942 382.719 312.134 383.118C312.325 383.517 312.415 383.942 312.398 384.369C312.42 384.765 312.339 385.161 312.159 385.531C311.98 385.901 311.707 386.237 311.357 386.518C310.867 386.888 310.253 387.136 309.591 387.234L313.632 391.455H309.47L306.251 387.583V391.455H302.911V381.136ZM306.251 383.208V385.763H306.88C307.176 385.782 307.474 385.755 307.756 385.682C308.039 385.609 308.3 385.491 308.526 385.337C308.663 385.225 308.77 385.091 308.841 384.945C308.911 384.799 308.944 384.642 308.937 384.485C308.947 384.324 308.914 384.162 308.839 384.012C308.763 383.861 308.648 383.726 308.502 383.614C308.278 383.464 308.02 383.351 307.742 383.281C307.464 383.211 307.171 383.186 306.88 383.208H306.251Z" fill="#21160E"/>
<path d="M179.08 238.937C181.753 238.937 183.92 237.203 183.92 235.065C183.92 232.926 181.753 231.193 179.08 231.193C176.407 231.193 174.24 232.926 174.24 235.065C174.24 237.203 176.407 238.937 179.08 238.937Z" fill="#E0CED4"/>
<path d="M285.56 238.937C288.233 238.937 290.4 237.203 290.4 235.065C290.4 232.926 288.233 231.193 285.56 231.193C282.887 231.193 280.72 232.926 280.72 235.065C280.72 237.203 282.887 238.937 285.56 238.937Z" fill="#E0CED4"/>
<path d="M173.03 254.425H163.35C160.009 254.425 157.3 256.592 157.3 259.265C157.3 261.938 160.009 264.105 163.35 264.105H173.03C176.371 264.105 179.08 261.938 179.08 259.265C179.08 256.592 176.371 254.425 173.03 254.425Z" fill="#2A7A67"/>
<path d="M318.23 254.425H308.55C305.209 254.425 302.5 256.592 302.5 259.265C302.5 261.938 305.209 264.105 308.55 264.105H318.23C321.571 264.105 324.28 261.938 324.28 259.265C324.28 256.592 321.571 254.425 318.23 254.425Z" fill="#2A7A67"/>
</svg>
