<svg width="28" height="20" viewBox="0 0 28 20" fill="none" xmlns="http://www.w3.org/2000/svg">
<path d="M27 0H1C0.447715 0 0 0.447715 0 1C0 1.55228 0.447715 2 1 2H27C27.5523 2 28 1.55228 28 1C28 0.447715 27.5523 0 27 0Z" fill="#222222"/>
<path d="M27 6H1C0.447715 6 0 6.44772 0 7C0 7.55228 0.447715 8 1 8H27C27.5523 8 28 7.55228 28 7C28 6.44772 27.5523 6 27 6Z" fill="#222222"/>
<path d="M27 12H1C0.447715 12 0 12.4477 0 13C0 13.5523 0.447715 14 1 14H27C27.5523 14 28 13.5523 28 13C28 12.4477 27.5523 12 27 12Z" fill="#222222"/>
<path d="M27 18H1C0.447715 18 0 18.4477 0 19C0 19.5523 0.447715 20 1 20H27C27.5523 20 28 19.5523 28 19C28 18.4477 27.5523 18 27 18Z" fill="#222222"/>
</svg>
