<svg width="312" height="313" viewBox="0 0 312 313" fill="none" xmlns="http://www.w3.org/2000/svg">
<path d="M292.531 0.404419H19.4688C8.71648 0.404419 0 7.1094 0 15.3804V285.428C0 293.699 8.71648 300.404 19.4688 300.404H292.531C303.284 300.404 312 293.699 312 285.428V15.3804C312 7.1094 303.284 0.404419 292.531 0.404419Z" fill="#2ABC8F"/>
<g opacity="0.42">
<path d="M243.859 181.304V310.64C242.699 310.051 241.756 309.24 241.122 308.288C240.488 307.336 240.184 306.273 240.24 305.204H240.115C240.197 305.601 240.239 306.003 240.24 306.404C240.24 309.716 237.448 312.404 234 312.404C231.052 312.404 228.571 310.436 227.932 307.784C227.43 308.438 226.723 308.984 225.875 309.371C225.027 309.759 224.066 309.977 223.08 310.004C220.054 310.004 217.542 307.94 216.965 305.204H216.84V301.364C216.816 301.045 216.816 300.724 216.84 300.404H92.0401V302.804H91.9153C91.3381 305.54 88.7953 307.604 85.8001 307.604C84.8142 307.577 83.8532 307.359 83.0054 306.971C82.1576 306.584 81.4502 306.038 80.9485 305.384C80.3089 308.036 77.8285 310.004 74.8801 310.004C71.4325 310.004 68.6401 307.316 68.6401 304.004C68.6416 303.603 68.6833 303.201 68.7649 302.804H68.6401C68.6401 306.116 65.8477 308.804 62.4001 308.804C58.9525 308.804 56.1601 306.116 56.1601 302.804H56.0509C55.5517 305.54 53.3365 307.604 50.7001 307.604C48.0637 307.604 45.8485 305.54 45.3493 302.804H45.2401V300.404H31.6993V181.304C31.6871 172.577 34.2006 163.957 39.0575 156.07C43.9144 148.182 50.9928 141.226 59.7793 135.704L60.8245 135.056C74.3245 126.845 91.0381 122.388 108.248 122.408H167.31C187.612 122.408 207.083 128.612 221.439 139.655C235.794 150.698 243.859 165.675 243.859 181.292V181.304Z" fill="#17564A"/>
<path d="M139.339 54.0204C95.3941 54.0204 59.7793 85.6644 59.7793 124.712V269.588C59.7793 273.8 63.6169 277.22 68.3593 277.22H77.7193C82.3993 277.22 86.2993 273.8 86.2993 269.588V229.388C86.2993 225.176 90.1369 221.756 94.8793 221.756C99.5593 221.756 103.459 225.176 103.459 229.388V241.868C103.459 246.068 107.297 249.488 112.039 249.488H121.399C126.079 249.488 129.979 246.068 129.979 241.868V229.388C129.979 225.176 133.817 221.756 138.559 221.756C143.239 221.756 147.139 225.176 147.139 229.388V255.788C147.139 260 150.977 263.408 155.719 263.408H165.079C169.759 263.408 173.659 260 173.659 255.788V229.388C173.659 225.176 177.497 221.756 182.239 221.756H183.799C188.479 221.756 192.379 225.176 192.379 229.388V264.044C192.379 268.256 196.217 271.664 200.959 271.664H210.319C214.999 271.664 218.899 268.256 218.899 264.044V124.712C218.899 85.6644 183.284 54.0204 139.339 54.0204Z" fill="#17564A"/>
</g>
<path d="M260.52 167.66V300.404H48.3602V167.66C48.3418 159.509 50.5086 151.442 54.7253 143.964C58.9421 136.485 65.1182 129.756 72.8678 124.196C86.9756 114.036 105.584 108.39 124.909 108.404H183.971C201.446 108.39 218.393 113.009 231.957 121.484C240.894 127.055 248.099 134.093 253.041 142.083C257.984 150.073 260.539 158.812 260.52 167.66Z" fill="#DDE8E4"/>
<path d="M231.987 123.932V282.968C231.987 287.768 228.15 291.668 223.407 291.668H214.047C209.367 291.668 205.467 287.78 205.467 282.968V243.368C205.467 238.568 201.63 234.668 196.887 234.668H195.327C190.647 234.668 186.747 238.568 186.747 243.368V273.44C186.747 278.24 182.91 282.14 178.167 282.14H168.807C164.127 282.14 160.227 278.24 160.227 273.44V243.404C160.276 241.198 159.395 239.038 157.716 237.248C157.032 236.49 156.128 235.864 155.074 235.423C154.02 234.981 152.847 234.735 151.647 234.704C146.967 234.704 143.067 238.604 143.067 243.404V257.648C143.067 262.448 139.23 266.348 134.487 266.348H125.127C120.447 266.348 116.547 262.46 116.547 257.648V243.404C116.596 241.198 115.715 239.038 114.036 237.248C113.352 236.49 112.448 235.864 111.394 235.423C110.34 234.981 109.167 234.735 107.967 234.704C103.287 234.704 99.3874 238.604 99.3874 243.404V289.304C99.3874 294.104 95.5498 298.004 90.8074 298.004H81.4474C76.7674 298.004 72.8674 294.104 72.8674 289.304V124.508C86.8683 114.182 105.512 108.413 124.909 108.404H183.971C201.499 108.4 218.477 113.117 231.956 121.736C231.972 122.456 231.987 123.2 231.987 123.932Z" fill="#CECECE"/>
<path d="M156 40.0044C112.055 40.0044 76.4399 75.2364 76.4399 118.688V279.92C76.4399 284.6 80.2775 288.404 85.0199 288.404H94.3799C99.0599 288.404 102.96 284.6 102.96 279.92V235.172C102.96 230.492 106.798 226.688 111.54 226.688C116.22 226.688 120.12 230.492 120.12 235.172V249.056C120.12 253.748 123.958 257.552 128.7 257.552H138.06C142.74 257.552 146.64 253.748 146.64 249.056V235.172C146.64 230.492 150.478 226.688 155.22 226.688C159.9 226.688 163.8 230.492 163.8 235.172V264.488C163.8 269.18 167.638 272.972 172.38 272.972H181.74C186.42 272.972 190.32 269.18 190.32 264.488V235.172C190.32 230.492 194.158 226.688 198.9 226.688H200.46C205.14 226.688 209.04 230.492 209.04 235.172V273.752C209.04 278.432 212.878 282.236 217.62 282.236H226.98C231.66 282.236 235.56 278.432 235.56 273.752V118.688C235.56 75.2364 199.945 40.0044 156 40.0044Z" fill="#212020"/>
<path d="M92.04 298.964V302.804H45.24V298.964C45.2379 297.577 45.5916 296.203 46.2808 294.921C46.97 293.64 47.9811 292.475 49.2563 291.494C50.5314 290.513 52.0456 289.735 53.7121 289.205C55.3786 288.675 57.1646 288.403 58.968 288.404H78.312C81.9529 288.404 85.4447 289.517 88.0192 291.497C90.5937 293.478 92.04 296.164 92.04 298.964Z" fill="#BAB1B6"/>
<path d="M56.16 301.604C56.1635 302.006 56.127 302.407 56.0508 302.804C55.5516 305.54 53.3364 307.604 50.7 307.604C48.0636 307.604 45.8484 305.54 45.3492 302.804C45.2036 302.008 45.2036 301.201 45.3492 300.404C45.4519 299.582 45.772 298.784 46.2897 298.06C46.8074 297.335 47.5119 296.7 48.36 296.192C49.04 295.812 49.8589 295.606 50.7 295.604C52.9308 295.604 54.8652 297.092 55.692 299.204C55.8609 299.595 55.981 299.997 56.0508 300.404C56.127 300.802 56.1635 301.203 56.16 301.604Z" fill="#BAB1B6"/>
<path d="M68.64 302.804C68.64 306.116 65.8476 308.804 62.4 308.804C58.9524 308.804 56.16 306.116 56.16 302.804C56.1556 301.987 56.3351 301.175 56.6904 300.404C56.8755 299.987 57.116 299.584 57.408 299.204C57.8641 298.485 58.5739 297.878 59.4566 297.454C60.3392 297.029 61.3591 296.804 62.4 296.804C63.4408 296.804 64.4607 297.029 65.3434 297.454C66.226 297.878 66.9359 298.485 67.392 299.204C67.684 299.584 67.9245 299.987 68.1096 300.404C68.4649 301.175 68.6443 301.987 68.64 302.804Z" fill="#BAB1B6"/>
<path d="M81.1199 304.004C81.1191 304.468 81.0617 304.93 80.9483 305.384C80.3087 308.036 77.8283 310.004 74.8799 310.004C71.4323 310.004 68.6399 307.316 68.6399 304.004C68.6414 303.603 68.6832 303.201 68.7647 302.804C68.9368 301.957 69.3181 301.142 69.8879 300.404C70.2309 299.959 70.6566 299.555 71.1515 299.204C71.639 298.825 72.2196 298.524 72.8596 298.318C73.4996 298.112 74.1863 298.006 74.8799 298.006C75.5735 298.006 76.2602 298.112 76.9002 298.318C77.5402 298.524 78.1208 298.825 78.6083 299.204C79.0391 299.505 79.4167 299.848 79.7315 300.224L79.8719 300.404C80.4417 301.142 80.8229 301.957 80.9951 302.804C81.0766 303.201 81.1184 303.603 81.1199 304.004Z" fill="#BAB1B6"/>
<path d="M92.0401 301.604C92.0385 302.006 91.9968 302.408 91.9153 302.804C91.3381 305.54 88.7953 307.604 85.8001 307.604C84.8142 307.577 83.8532 307.359 83.0054 306.972C82.1575 306.584 81.4502 306.038 80.9485 305.384C80.3047 304.599 79.8749 303.721 79.6849 302.804C79.5185 302.01 79.5185 301.199 79.6849 300.404V300.224C79.7639 299.877 79.884 299.535 80.0437 299.204C80.3037 298.187 81.0152 297.27 82.0567 296.611C83.0981 295.952 84.4047 295.592 85.7533 295.592C87.1018 295.592 88.4084 295.952 89.4499 296.611C90.4913 297.27 91.2028 298.187 91.4629 299.204C91.6472 299.594 91.7831 299.995 91.8685 300.404C91.9657 300.8 92.0231 301.202 92.0401 301.604Z" fill="#BAB1B6"/>
<path d="M263.64 301.364V305.204H216.84V301.364C216.816 301.045 216.816 300.724 216.84 300.404C216.885 300.001 216.963 299.6 217.074 299.204C217.719 296.831 219.406 294.7 221.852 293.171C224.297 291.641 227.353 290.806 230.505 290.804H249.849C253.275 290.8 256.579 291.783 259.109 293.561C261.639 295.338 263.211 297.78 263.515 300.404C263.581 300.722 263.622 301.043 263.64 301.364Z" fill="#BAB1B6"/>
<path d="M258.18 310.004C261.195 310.004 263.64 307.318 263.64 304.004C263.64 300.691 261.195 298.004 258.18 298.004C255.164 298.004 252.72 300.691 252.72 304.004C252.72 307.318 255.164 310.004 258.18 310.004Z" fill="#BAB1B6"/>
<path d="M252.72 305.204C252.72 308.516 249.928 311.204 246.48 311.204C245.556 311.201 244.651 311.006 243.859 310.64C242.699 310.05 241.756 309.24 241.122 308.288C240.488 307.336 240.184 306.273 240.24 305.204C240.211 304.315 240.419 303.43 240.851 302.605C241.283 301.779 241.93 301.031 242.752 300.404C243.081 300.154 243.453 299.94 243.859 299.768C244.651 299.403 245.556 299.208 246.48 299.204C247.877 299.22 249.213 299.65 250.208 300.404C251.03 301.031 251.677 301.779 252.109 302.605C252.541 303.43 252.749 304.315 252.72 305.204Z" fill="#BAB1B6"/>
<path d="M240.24 306.404C240.24 309.716 237.448 312.404 234 312.404C231.052 312.404 228.571 310.436 227.932 307.784C227.818 307.33 227.761 306.868 227.76 306.404C227.762 306.003 227.803 305.601 227.885 305.204C228.075 304.288 228.505 303.41 229.148 302.624C229.65 301.971 230.357 301.425 231.205 301.037C232.053 300.649 233.014 300.432 234 300.404C237.026 300.404 239.538 302.468 240.115 305.204C240.197 305.601 240.238 306.003 240.24 306.404Z" fill="#BAB1B6"/>
<path d="M229.32 304.004C229.318 304.406 229.277 304.808 229.195 305.204C229.005 306.121 228.575 306.999 227.932 307.784C227.43 308.438 226.722 308.984 225.875 309.371C225.027 309.759 224.066 309.977 223.08 310.004C220.054 310.004 217.542 307.94 216.965 305.204C216.883 304.808 216.841 304.406 216.84 304.004C216.825 302.74 217.257 301.496 218.088 300.404C218.431 299.959 218.857 299.555 219.352 299.204C219.839 298.825 220.42 298.524 221.06 298.318C221.7 298.112 222.386 298.006 223.08 298.006C223.774 298.006 224.46 298.112 225.1 298.318C225.74 298.524 226.321 298.825 226.808 299.204C227.303 299.555 227.729 299.959 228.072 300.404C228.594 301.091 228.958 301.842 229.148 302.624C229.262 303.079 229.319 303.541 229.32 304.004Z" fill="#BAB1B6"/>
<path d="M134.768 48.5013L118.961 55.5213C116.38 56.6678 115.495 59.2072 116.986 61.193C118.476 63.1789 121.777 63.8593 124.359 62.7128L140.166 55.6928C142.747 54.5462 143.632 52.0069 142.141 50.021C140.651 48.0352 137.35 47.3547 134.768 48.5013Z" fill="#474747"/>
<path d="M115.44 65.8044C115.44 64.1476 113.694 62.8044 111.54 62.8044C109.386 62.8044 107.64 64.1476 107.64 65.8044C107.64 67.4613 109.386 68.8044 111.54 68.8044C113.694 68.8044 115.44 67.4613 115.44 65.8044Z" fill="#474747"/>
</svg>
