<svg width="313" height="313" viewBox="0 0 313 313" fill="none" xmlns="http://www.w3.org/2000/svg">
<path d="M313 15.6874V296.313C313 296.587 313 296.849 313 297.124C313 297.398 313 297.648 313 297.91C312.975 298.165 312.933 298.419 312.875 298.671C312.842 298.941 312.785 299.208 312.704 299.47C312.704 299.72 312.579 299.969 312.485 300.219C312.108 301.433 311.537 302.604 310.785 303.701C310.52 304.1 310.239 304.5 309.927 304.874L309.443 305.436C308.638 306.344 307.712 307.181 306.682 307.932C306.266 308.231 305.829 308.518 305.372 308.793C304.935 309.067 304.467 309.317 303.983 309.566L303.266 309.916L302.486 310.253L301.768 310.527L301.035 310.777C300.526 310.954 300.005 311.109 299.475 311.239C298.621 311.446 297.75 311.609 296.87 311.725C296.464 311.788 296.058 311.825 295.637 311.863C295.216 311.9 294.982 311.863 294.654 311.863H293.64H20.6092C15.4381 311.863 10.4763 310.229 6.80372 307.317C3.13118 304.404 1.04525 300.449 1 296.313V15.6874C1 11.5268 3.06596 7.53667 6.7434 4.59472C10.4208 1.65277 15.4085 0 20.6092 0L293.391 0C298.591 0 303.579 1.65277 307.257 4.59472C310.934 7.53667 313 11.5268 313 15.6874Z" fill="#4DA0C1"/>
<g opacity="0.24">
<path d="M154.098 219.398V312H127.578V219.398H154.098Z" fill="black" stroke="black" stroke-miterlimit="10"/>
<path d="M169.698 218.15C208.469 218.15 239.898 186.581 239.898 147.638C239.898 108.696 208.469 77.1264 169.698 77.1264C130.928 77.1264 99.4983 108.696 99.4983 147.638C99.4983 186.581 130.928 218.15 169.698 218.15Z" fill="black"/>
<path d="M169.698 79.6224C206.748 79.6224 236.778 110.074 236.778 147.638C236.778 185.203 206.748 215.654 169.698 215.654C132.648 215.654 102.618 185.203 102.618 147.638C102.618 110.074 132.648 79.6224 169.698 79.6224ZM169.698 74.6304C129.263 74.6304 96.3782 107.378 96.3782 147.638C96.3782 187.899 129.263 220.646 169.698 220.646C210.133 220.646 243.018 187.886 243.018 147.638C243.018 107.39 210.133 74.6304 169.698 74.6304Z" fill="black"/>
<path d="M118.218 218.15C156.989 218.15 188.418 186.581 188.418 147.638C188.418 108.696 156.989 77.1264 118.218 77.1264C79.4479 77.1264 48.0183 108.696 48.0183 147.638C48.0183 186.581 79.4479 218.15 118.218 218.15Z" fill="black"/>
<path d="M118.218 79.6224C155.268 79.6224 185.298 110.074 185.298 147.638C185.298 185.203 155.268 215.654 118.218 215.654C81.1682 215.654 51.1382 185.203 51.1382 147.638C51.1382 110.074 81.1682 79.6224 118.218 79.6224ZM118.218 74.6304C77.783 74.6304 44.8982 107.378 44.8982 147.638C44.8982 187.899 77.783 220.646 118.218 220.646C158.653 220.646 191.538 187.886 191.538 147.638C191.538 107.39 158.653 74.6304 118.218 74.6304Z" fill="black"/>
<path d="M188.418 225.638C228.912 225.638 261.738 194.069 261.738 155.126C261.738 116.184 228.912 84.6144 188.418 84.6144C147.925 84.6144 115.098 116.184 115.098 155.126C115.098 194.069 147.925 225.638 188.418 225.638Z" fill="black"/>
<path d="M188.418 87.1104C227.184 87.1104 258.618 117.562 258.618 155.126C258.618 192.691 227.184 223.142 188.418 223.142C149.652 223.142 118.218 192.691 118.218 155.126C118.218 117.562 149.652 87.1104 188.418 87.1104ZM188.418 82.1184C146.298 82.1184 111.978 114.866 111.978 155.126C111.978 195.387 146.298 228.134 188.418 228.134C230.538 228.134 264.858 195.374 264.858 155.126C264.858 114.878 230.538 82.1184 188.418 82.1184Z" fill="black"/>
<path d="M85.4582 224.39C125.952 224.39 158.778 192.821 158.778 153.878C158.778 114.936 125.952 83.3664 85.4582 83.3664C44.9647 83.3664 12.1382 114.936 12.1382 153.878C12.1382 192.821 44.9647 224.39 85.4582 224.39Z" fill="black"/>
<path d="M85.4583 85.8624C124.224 85.8624 155.658 116.314 155.658 153.878C155.658 191.443 124.224 221.894 85.4583 221.894C46.6923 221.894 15.2583 191.443 15.2583 153.878C15.2583 116.314 46.6923 85.8624 85.4583 85.8624ZM85.4583 80.8704C43.3383 80.8704 9.01831 113.618 9.01831 153.878C9.01831 194.139 43.3383 226.886 85.4583 226.886C127.578 226.886 161.898 194.126 161.898 153.878C161.898 113.63 127.578 80.8704 85.4583 80.8704Z" fill="black"/>
<path d="M140.058 230.63C175.382 230.63 204.018 197.944 204.018 157.622C204.018 117.301 175.382 84.6144 140.058 84.6144C104.734 84.6144 76.0981 117.301 76.0981 157.622C76.0981 197.944 104.734 230.63 140.058 230.63Z" fill="black"/>
<path d="M140.058 87.1104C173.661 87.1104 200.898 118.672 200.898 157.622C200.898 196.572 173.661 228.134 140.058 228.134C106.456 228.134 79.2183 196.56 79.2183 157.622C79.2183 118.685 106.456 87.1104 140.058 87.1104ZM140.058 82.1184C121.697 82.1184 104.599 90.2179 91.9011 104.919C79.7799 119.072 72.9783 137.779 72.9783 157.622C72.9783 177.466 79.7799 196.173 91.9011 210.313C104.599 225.027 121.697 233.126 140.058 233.126C158.419 233.126 175.517 225.027 188.215 210.313C200.415 196.173 207.138 177.453 207.138 157.622C207.138 137.792 200.415 119.072 188.215 104.919C175.517 90.2179 158.419 82.1184 140.058 82.1184Z" fill="black"/>
<path d="M63.1504 177.441L58.2364 177.129L56.2396 177.004L49.4224 176.58L37.5976 175.831L35.71 175.706L43.51 166.633L48.5176 160.817L51.31 157.56L57.2224 167.507L63.1504 177.441Z" fill="black" stroke="black" stroke-miterlimit="10"/>
<path d="M58.2364 177.129L56.2396 177.004L49.4224 176.58L37.5976 175.831L35.71 175.706L43.51 166.633L48.5176 160.817L53.3692 168.979L58.2364 177.129Z" fill="black" stroke="black" stroke-miterlimit="10"/>
<path d="M243.565 174.47L238.931 174.62L229.805 174.92L216.062 175.369L222.442 165.622L226.732 159.07L228.823 155.863L236.186 165.16L243.565 174.47Z" fill="black" stroke="black" stroke-miterlimit="10"/>
<path d="M238.931 174.62L229.805 174.92L216.062 175.369L222.442 165.622L226.732 159.07L232.801 166.82L238.931 174.62Z" fill="black" stroke="black" stroke-miterlimit="10"/>
<path d="M47.4004 181.5L34.156 180.546C30.6925 180.297 27.6324 182.338 27.3211 185.105C27.0097 187.873 29.5651 190.318 33.0286 190.568L46.273 191.521C49.7364 191.77 52.7965 189.729 53.1079 186.962C53.4192 184.195 50.8639 181.749 47.4004 181.5Z" fill="black" stroke="black" stroke-width="1.00404" stroke-miterlimit="10"/>
<path d="M239.922 179.791L226.847 181.478C223.427 181.919 221.102 184.492 221.652 187.224C222.203 189.956 225.421 191.813 228.841 191.372L241.916 189.685C245.336 189.244 247.661 186.672 247.11 183.94C246.56 181.207 243.341 179.35 239.922 179.791Z" fill="black" stroke="black" stroke-miterlimit="10"/>
<path d="M139.668 80.8704H122.134L104.334 52.0541C103.601 50.8061 105.567 49.6704 108.297 49.6704L143.116 52.1664C145.222 52.1664 146.517 52.4535 146.236 53.4144L139.668 80.8704Z" fill="black" stroke="black" stroke-miterlimit="10"/>
<path d="M141.618 82.1184H126.018L110.169 54.4503C109.514 53.3021 111.261 52.1664 113.694 52.1664H144.364C146.236 52.1664 147.687 52.9527 147.484 53.8762L141.618 82.1184Z" fill="black" stroke="black" stroke-miterlimit="10"/>
<path d="M73.5399 122.029L114.615 110.149C121.617 108.121 127.326 103.951 130.485 98.5566C133.645 93.1619 133.996 86.9841 131.463 81.3821L90.3255 93.2631C83.3418 95.2912 77.6474 99.4507 74.4896 104.831C71.3317 110.211 70.9678 116.373 73.4775 121.967L73.5399 122.029Z" fill="black" stroke="black" stroke-miterlimit="10"/>
<path d="M164.223 109.412L187.623 121.518C195.906 125.823 207.357 123.452 213.222 116.226L189.822 104.121C181.539 99.8275 170.073 102.199 164.223 109.412Z" fill="black" stroke="black" stroke-miterlimit="10"/>
<path d="M208.293 67.37L205.516 71.2177C198.896 80.3904 187.992 87.0836 175.204 89.8249C162.416 92.5662 148.79 91.1311 137.324 85.8353L140.101 81.9876C146.72 72.815 157.624 66.1217 170.412 63.3804C183.201 60.6391 196.827 62.0742 208.293 67.37Z" fill="black" stroke="black" stroke-miterlimit="10"/>
<path d="M292.939 219.997L295.06 230.256C290.739 227.473 284.717 224.203 281.285 220.696C274.8 214.46 270.218 207.103 267.901 199.206C266.569 194.49 266.51 189.601 267.729 184.866C268.681 181.337 268.734 177.691 267.885 174.146C267.027 170.527 264.094 161.391 255.296 155.014C247.153 149.111 236.825 147.975 214.252 145.979C206.156 145.267 200.212 145.068 195.298 144.905C185.673 144.593 179.87 144.406 172.943 140.263C162.023 133.723 158.279 123.452 157.141 119.346C155.795 114.286 155.886 109.049 157.406 104.021C158.248 100.526 158.638 98.592 157.406 96.3081C154.005 89.9309 140.62 87.2102 129.887 86.112C128.646 86.0905 127.466 85.6754 126.608 84.958C125.749 84.2407 125.282 83.2798 125.309 82.2869C125.336 81.2939 125.854 80.3501 126.751 79.6632C127.648 78.9763 128.849 78.6025 130.09 78.624C130.443 78.5992 130.798 78.5992 131.151 78.624C150.433 80.7206 161.836 85.5254 166.017 93.3504C168.435 97.8557 167.577 101.7 166.594 105.431C165.333 109.462 165.231 113.669 166.298 117.736C167 120.307 169.964 129.093 178.575 134.26C183.161 137.005 186.562 137.118 195.735 137.417C200.727 137.58 206.92 137.779 215.329 138.528C237.527 140.487 250.912 141.673 261.645 149.448C272.378 157.223 276.122 168.38 277.136 172.748C278.193 177.154 278.155 181.683 277.027 186.077C275.998 189.879 276.03 193.817 277.12 197.608C279.152 204.388 283.113 210.7 288.695 216.054C290.017 217.43 291.434 218.747 292.939 219.997Z" fill="black" stroke="black" stroke-miterlimit="10"/>
<path d="M312.22 232.34V242.174L312.126 242.112C306.885 238.468 285.95 224.752 283.594 222.294C277.103 215.89 272.534 208.38 270.24 200.341C268.908 195.516 268.85 190.522 270.069 185.677C271.015 182.072 271.062 178.353 270.209 174.732C269.351 170.988 266.418 161.703 257.636 155.176C249.508 149.148 239.212 147.988 216.639 145.954C208.558 145.217 202.599 145.018 197.716 144.868C188.106 144.543 182.303 144.344 175.408 140.113C164.488 133.424 160.744 122.953 159.621 118.735C158.268 113.566 158.359 108.222 159.886 103.085C160.728 99.5155 161.118 97.5312 159.886 95.1974C156.485 88.6829 143.069 85.9248 132.414 84.7392C131.172 84.588 130.055 84.0512 129.304 83.2451C128.554 82.4391 128.231 81.4289 128.405 80.4336C128.51 79.7788 128.821 79.1561 129.31 78.624C129.795 78.0814 130.459 77.6568 131.227 77.3969C131.995 77.137 132.838 77.052 133.662 77.1513C152.913 79.2729 164.301 84.1901 168.497 92.1273C170.884 96.7325 169.964 100.676 169.074 104.47C167.8 108.592 167.693 112.89 168.762 117.05C169.449 119.671 172.413 128.644 181.024 133.923C185.595 136.743 188.996 136.843 198.09 137.155C203.082 137.317 209.26 137.517 217.668 138.291C239.82 140.288 253.19 141.498 263.907 149.523C274.624 157.548 278.368 168.854 279.398 173.322C280.447 177.821 280.409 182.438 279.288 186.925C278.261 190.812 278.288 194.829 279.366 198.707C281.377 205.616 285.336 212.066 290.942 217.564C291.207 217.838 306.308 228.222 312.22 232.34Z" fill="black" stroke="black" stroke-miterlimit="10"/>
<path d="M208.479 67.3195C201.859 76.4922 190.956 83.1854 178.167 85.9267C165.379 88.6681 151.753 87.233 140.287 81.9371C146.907 72.7645 157.81 66.0712 170.599 63.3299C183.387 60.5886 197.013 62.0237 208.479 67.3195Z" fill="black" stroke="black" stroke-miterlimit="10"/>
<path d="M73.6492 118.66L114.724 106.779C118.193 105.776 121.38 104.237 124.105 102.248C126.83 100.26 129.038 97.8615 130.604 95.1902C132.17 92.5189 133.063 89.627 133.232 86.6796C133.401 83.7322 132.842 80.7871 131.588 78.0125L90.5128 89.856C83.5263 91.8816 77.8284 96.0402 74.6674 101.42C71.5065 106.801 71.1404 112.964 73.6492 118.56V118.66Z" fill="black" stroke="black" stroke-miterlimit="10"/>
<path d="M164.41 106.355L187.81 118.46C191.771 120.492 196.575 121.19 201.177 120.403C205.779 119.615 209.805 117.405 212.38 114.254L189.058 102.149C187.09 101.127 184.89 100.425 182.584 100.083C180.277 99.7412 177.909 99.7664 175.614 100.157C173.319 100.547 171.143 101.296 169.21 102.359C167.277 103.423 165.625 104.78 164.348 106.355H164.41Z" fill="black" stroke="black" stroke-miterlimit="10"/>
<path d="M292.938 251.846H1V270.566H292.938V251.846Z" fill="black" stroke="black" stroke-miterlimit="10"/>
<path opacity="0.33" d="M154.098 273.237V312H20.6092C15.4085 312 10.4208 310.347 6.7434 307.405C3.06596 304.463 1 300.473 1 296.313V251.846H82.12L97.3456 263.328L106.44 270.18L106.862 270.566L127.625 289.923L128.124 290.385C128.634 290.866 129.269 291.252 129.984 291.518C130.699 291.783 131.478 291.92 132.266 291.92C133.055 291.92 133.833 291.783 134.549 291.518C135.264 291.252 135.898 290.866 136.408 290.385L137.781 289.062L145.986 281.15L147.687 279.515L151.134 276.182L154.098 273.237Z" fill="black" stroke="black" stroke-miterlimit="10"/>
<path opacity="0.33" d="M285.138 251.846V270.566H156.875L157.764 269.705L180.4 251.846H285.138Z" fill="black" stroke="black" stroke-miterlimit="10"/>
<path d="M292.938 249.35V303.551C292.939 306.549 291.856 309.484 289.818 312H20.6092C15.4085 312 10.4208 310.347 6.7434 307.405C3.06596 304.463 1 300.473 1 296.313V249.35H89.92L93.2272 251.846L108.468 263.328L114.24 267.684L117.36 270.566L127.656 280.151L135.956 287.889C136.464 288.368 137.097 288.751 137.812 289.012C138.896 289.406 140.112 289.504 141.273 289.292C142.434 289.08 143.476 288.57 144.239 287.839L147.64 284.544L148.623 283.596L153.74 278.666L154.098 278.329L162.086 270.629L165.564 267.272L170.478 263.39L174.16 260.495L185.08 251.909L188.2 249.413L292.938 249.35Z" fill="black" stroke="black" stroke-miterlimit="10"/>
<path d="M172.818 189.684L169.698 197.633L167.483 199.518L163.458 202.937L163.38 202.9L157.218 199.705L150.978 204.273L143.178 202.937L135.378 206.918L130.698 201.614L122.898 204.273L118.218 197.633L110.418 198.956L109.077 194.376L108.297 191.743L107.298 188.348V185.702L115.098 192.329L119.778 189.684L126.018 196.31L130.698 194.875L136.938 198.956L143.178 196.31L148.685 197.484L149.418 197.633L154.098 192.329L163.458 193.665L172.818 189.684Z" fill="black" stroke="black" stroke-miterlimit="10"/>
<path d="M169.699 194.201L167.483 199.518L163.459 202.937L163.381 202.9L157.219 199.705L150.979 204.273L143.179 202.937L135.379 206.918L130.699 201.614L122.899 204.273L118.219 197.633L110.419 198.956L109.077 194.376L111.979 196.697L116.659 194.201L122.899 200.441L127.579 199.093L133.819 202.937L140.059 200.441L145.565 201.54L146.299 201.689L150.979 196.697L160.339 197.945L169.699 194.201Z" fill="black" stroke="black" stroke-miterlimit="10"/>
</g>
<path d="M174.16 212.16H147.64V312H174.16V212.16Z" fill="#492F0D"/>
<path d="M189.76 210.912C228.53 210.912 259.96 179.343 259.96 140.4C259.96 101.457 228.53 69.888 189.76 69.888C150.99 69.888 119.56 101.457 119.56 140.4C119.56 179.343 150.99 210.912 189.76 210.912Z" fill="#CE6925"/>
<path d="M263.049 138.852C263.049 138.129 263.049 137.405 263.049 136.681C262.051 117.062 253.252 99.4656 239.649 86.9107C237.556 84.9601 235.31 83.1177 232.925 81.3945C230.627 79.7133 228.193 78.1542 225.64 76.727C223.569 75.5627 221.418 74.4919 219.197 73.5197C210.971 69.835 201.776 67.7501 192.356 67.4336C182.936 67.1171 173.556 68.5777 164.972 71.6976L164.051 72.0345C162.85 72.4838 161.649 72.9705 160.463 73.4822C159.73 73.8067 159.013 74.1312 158.295 74.4806C157.967 74.6304 157.64 74.7801 157.328 74.9549C157.234 74.9894 157.146 75.0312 157.063 75.0797C156.47 75.3792 155.877 75.6787 155.284 76.0032C154.083 76.6272 152.913 77.2512 151.759 78.0125L151.337 78.2621L150.308 78.8985L148.748 79.9094C147.874 80.5085 147.001 81.1574 146.158 81.744L146.018 81.8563C145.3 82.3929 144.583 82.9421 143.881 83.5037C143.179 84.0653 142.321 84.7517 141.697 85.3257C141.073 85.8998 140.308 86.5737 139.637 87.1853C133.719 92.7664 128.872 99.0207 125.254 105.743C124.557 107.016 123.902 108.314 123.289 109.637C118.722 119.48 116.402 129.9 116.44 140.4C116.44 165.36 129.061 187.412 148.295 200.579C149.075 201.128 149.871 201.652 150.682 202.151C151.509 202.675 152.351 203.174 153.194 203.661C154.457 204.385 155.721 205.071 157.031 205.72C158.342 206.369 159.278 206.819 160.432 207.318C161.587 207.817 162.819 208.316 164.02 208.765C165.705 209.402 167.405 210.013 169.153 210.475C172.556 211.47 176.065 212.218 179.636 212.709C182.214 213.072 184.82 213.293 187.436 213.371C188.122 213.371 188.824 213.371 189.526 213.371H189.698C190.603 213.371 191.507 213.371 192.397 213.308C194.206 213.308 195.985 213.121 197.763 212.934C232.364 209.19 259.804 181.284 262.753 146.59C262.753 145.854 262.862 145.105 262.909 144.369C262.909 143.046 263.018 141.71 263.018 140.363C263.08 139.888 263.08 139.364 263.049 138.852ZM256.809 140.4C256.809 141.373 256.809 142.359 256.809 143.32C256.809 143.994 256.809 144.656 256.684 145.305C254.578 175.369 233.284 200.029 205.001 206.656C203.283 207.068 201.539 207.406 199.775 207.667C198.215 207.904 196.655 208.091 194.971 208.216C193.286 208.341 191.539 208.416 189.791 208.416C183.735 208.418 177.722 207.599 172.007 205.995L171.04 205.72C169.823 205.358 168.622 204.971 167.437 204.547C166.251 204.123 165.159 203.699 164.051 203.224C163.334 202.925 162.616 202.613 161.914 202.288C160.448 201.602 158.997 200.878 157.593 200.092C156.751 199.618 155.908 199.131 155.081 198.619C154.255 198.107 153.521 197.608 152.695 197.072L150.979 195.824C133.819 183.493 122.758 163.251 122.758 140.375C122.662 129.017 125.504 117.765 131.104 107.328C131.853 105.955 132.649 104.62 133.491 103.322C136.517 98.5709 140.24 94.1257 144.583 90.0806C145.253 89.4566 145.94 88.8326 146.642 88.2585C147.344 87.6845 148.077 87.0105 148.826 86.4739C149.575 85.9373 150.62 85.1136 151.54 84.4646L151.649 84.3897C152.18 84.0153 152.71 83.6409 153.209 83.2915C154.036 82.7424 154.894 82.2057 155.752 81.6941C156.064 81.4944 156.392 81.3072 156.719 81.1325C157.484 80.6832 158.279 80.2589 159.028 79.8845C160.588 79.0857 162.148 78.3369 163.708 77.6505L163.895 77.5757H164.005C165.045 77.1264 166.137 76.7104 167.281 76.3277C167.92 76.0905 168.56 75.8659 169.215 75.6537L170.775 75.1545C182.699 71.5515 195.835 71.4542 207.841 74.88C210.201 75.544 212.505 76.332 214.736 77.2387L215.875 77.7129C218.36 78.7962 220.757 80.005 223.051 81.3321C242.02 92.352 255.109 112.407 256.669 135.695C256.669 136.344 256.762 136.943 256.778 137.667C256.825 138.528 256.84 139.489 256.84 140.4H256.809Z" fill="#A85720"/>
<path d="M138.28 210.912C177.05 210.912 208.48 179.343 208.48 140.4C208.48 101.457 177.05 69.888 138.28 69.888C99.5097 69.888 68.0801 101.457 68.0801 140.4C68.0801 179.343 99.5097 210.912 138.28 210.912Z" fill="#CE6925"/>
<path d="M211.584 139.863C211.584 137.879 211.491 135.92 211.319 133.973C211.319 133.424 211.21 132.875 211.148 132.325C210.668 127.9 209.76 123.51 208.433 119.196C208.074 117.948 207.684 116.788 207.248 115.602C205.103 109.678 202.114 103.97 198.34 98.592C197.825 97.8682 197.31 97.1693 196.78 96.4704C194.935 94.0114 192.898 91.648 190.68 89.3942C189.994 88.6954 189.292 87.9965 188.559 87.3226C187.295 86.0746 185.969 84.9514 184.596 83.8406C183.816 83.2042 183.036 82.5926 182.225 81.9811L181.82 81.6816C181.118 81.1699 180.416 80.6707 179.698 80.184C177.705 78.799 175.622 77.4993 173.458 76.2902C172.647 75.8534 171.898 75.4291 171.024 75.0422C169.901 74.4806 168.778 73.944 167.624 73.4448C166.469 72.9456 165.502 72.5587 164.504 72.1968L164.114 72.047C156.04 68.9838 147.216 67.3938 138.28 67.392C127.84 67.4015 117.577 69.5498 108.468 73.632C106.768 74.3933 105.099 75.217 103.461 76.128C101.823 77.039 100.341 77.9251 98.7808 78.911C78.5008 91.9152 65.0068 114.604 65.0068 140.375C65.0068 174.408 88.516 203.075 120.215 211.124C121.661 211.499 123.127 211.823 124.614 212.098C125.238 212.222 125.878 212.335 126.518 212.422C127.797 212.647 129.092 212.821 130.402 212.959C131.073 213.034 131.759 213.096 132.446 213.146C133.803 213.258 135.176 213.333 136.548 213.358H138.327C147.23 213.349 156.02 211.764 164.067 208.716L165.502 208.166C166.22 207.884 166.937 207.584 167.655 207.268L168.513 206.893C169.371 206.494 170.213 206.095 171.056 205.645L171.336 205.508C194.924 193.615 211.226 169.391 211.631 141.411C211.631 141.049 211.631 140.687 211.631 140.325C211.6 140.225 211.6 140.038 211.584 139.863ZM205.344 140.4V141.136C205.064 168.255 189.12 191.58 166.251 202.288C165.502 202.625 164.691 202.962 164.004 203.274L163.412 203.524C162.491 203.898 161.555 204.26 160.619 204.597L160.401 204.672C159.293 205.071 158.154 205.433 157.016 205.77C153.826 206.719 150.529 207.421 147.172 207.867C145.108 208.147 143.024 208.326 140.932 208.404C140.043 208.404 139.154 208.466 138.264 208.466C137.375 208.466 136.143 208.466 135.144 208.391C131.236 208.204 127.365 207.677 123.6 206.819C121.687 206.395 119.807 205.883 117.969 205.284C115.884 204.61 113.847 203.843 111.869 202.987C87.97 192.579 71.3092 168.492 71.3092 140.45C71.3092 113.181 87.1432 89.6563 109.997 78.8112C111.557 78.0499 113.211 77.3635 114.864 76.7395C116.565 76.0837 118.309 75.5045 120.09 75.0048C130.33 72.0375 141.455 71.6284 151.992 73.8317C153.552 74.1686 155.222 74.568 156.797 75.0797L157.14 75.1795C158.31 75.529 159.48 75.9034 160.619 76.3152H160.744C161.836 76.7021 162.912 77.1264 163.973 77.5632H164.129L164.816 77.8502C166.971 78.7906 169.055 79.8324 171.056 80.9702C172.07 81.5443 173.052 82.1309 174.035 82.7549C175.018 83.3789 175.736 83.8656 176.562 84.4522C177.389 85.0387 178.122 85.6003 178.934 86.1994C179.745 86.7984 180.338 87.2976 181.008 87.8592C182.568 89.1571 184.056 90.5174 185.47 91.9402C186.827 93.3005 188.138 94.7107 189.37 96.1834C189.807 96.695 190.244 97.2192 190.649 97.7434C191.055 98.2675 191.694 99.0787 192.209 99.7651C194.903 103.451 197.189 107.318 199.042 111.322C199.682 112.644 200.259 114.005 200.789 115.378C202.818 120.588 204.187 125.948 204.876 131.377C204.986 132.088 205.064 132.812 205.142 133.548C205.313 135.42 205.422 137.292 205.454 139.239C205.36 139.639 205.36 140.013 205.36 140.4H205.344Z" fill="#A85720"/>
<path d="M208.48 218.4C248.973 218.4 281.8 186.831 281.8 147.888C281.8 108.945 248.973 77.376 208.48 77.376C167.986 77.376 135.16 108.945 135.16 147.888C135.16 186.831 167.986 218.4 208.48 218.4Z" fill="#CE6925"/>
<path d="M284.889 145.791C283.89 112.095 258.852 84.0278 225.609 76.727C222.832 76.1177 220.007 75.6591 217.154 75.3542H216.717C213.987 75.0513 211.236 74.8929 208.48 74.88H207.84C199.17 74.9493 190.604 76.4047 182.646 79.1606C181.679 79.4976 180.712 79.847 179.76 80.2214L179.136 80.4586L178.871 80.5584L176.765 81.4445L175.751 81.9062C175.616 81.9612 175.486 82.0238 175.361 82.0934L173.926 82.7549C172.522 83.4413 171.149 84.1651 169.792 84.9264C168.965 85.3882 168.232 85.8749 167.343 86.3616C167.234 86.4365 167.109 86.4989 167 86.5862C163.659 88.6331 160.529 90.8909 157.64 93.3379C156.922 93.937 156.22 94.5859 155.534 95.1974C154.847 95.809 154.176 96.4454 153.537 97.0944C140.277 110.248 132.04 128.17 132.04 147.888C131.834 165.068 138.437 181.858 150.9 195.849C151.337 196.348 151.805 196.835 152.273 197.321C152.741 197.808 153.552 198.569 154.208 199.256C154.863 199.942 155.549 200.504 156.251 201.153C157.406 202.193 158.591 203.191 159.808 204.148L160.385 204.597C161.181 205.209 161.945 205.845 162.819 206.419C163.692 206.993 164.55 207.667 165.424 208.191C166.641 208.978 167.873 209.726 169.121 210.45C173.067 212.731 177.296 214.68 181.742 216.266C182.912 216.69 184.097 217.09 185.298 217.452C186.5 217.813 187.857 218.2 189.167 218.525C195.418 220.093 201.93 220.893 208.48 220.896C245.312 220.896 276.137 195.936 283.36 162.739C283.734 160.992 284.046 159.232 284.296 157.448C284.618 155.068 284.821 152.651 284.904 150.197C284.904 149.423 284.904 148.662 284.904 147.888C284.904 147.114 284.904 146.49 284.889 145.791ZM278.228 155.576C274.296 189.521 244.563 215.904 208.48 215.904C204.08 215.909 199.694 215.511 195.407 214.718C194.128 214.494 192.849 214.219 191.601 213.92C190.93 213.757 190.259 213.595 189.588 213.408C188.918 213.221 188.606 213.146 188.122 212.996C185.512 212.234 182.969 211.334 180.509 210.3C177.539 209.032 174.687 207.593 171.976 205.995L171.29 205.583C170.416 205.059 169.542 204.51 168.7 203.936C167.858 203.362 167.14 202.825 166.266 202.238C164.19 200.726 162.226 199.118 160.385 197.421C159.683 196.785 158.997 196.173 158.342 195.487C157.686 194.8 157.031 194.164 156.392 193.49C144.405 180.234 138.056 164.248 138.28 147.888C138.28 129.792 145.628 113.231 157.608 101.088C158.248 100.414 158.919 99.7526 159.605 99.1162C160.292 98.4797 160.978 97.8682 161.696 97.2317C165 94.357 168.659 91.7564 172.616 89.4691C173.598 88.895 174.612 88.3459 175.642 87.8218L175.845 87.7219C176.833 87.2144 177.831 86.7277 178.84 86.2618L180.806 85.4131L181.679 85.0637L182.381 84.7891C183.005 84.5395 183.645 84.3024 184.284 84.0778L184.674 83.9405L185.798 83.5536C187.03 83.1542 188.262 82.7798 189.526 82.4429C195.634 80.7808 202.044 79.9375 208.496 79.9469C209.26 79.9469 210.056 79.9469 210.773 79.9469C214.929 80.0692 219.055 80.5504 223.082 81.3821C225.847 81.9454 228.558 82.667 231.194 83.5411C234.107 84.5109 236.928 85.6496 239.633 86.9482C260.927 97.1818 276.106 117.587 278.399 141.611C278.503 142.775 278.581 143.948 278.633 145.13C278.633 146.053 278.633 146.989 278.633 147.925C278.633 149.09 278.602 150.238 278.54 151.37C278.524 152.768 278.399 154.178 278.228 155.576ZM175.424 87.6346C174.633 87.1177 173.793 86.6504 172.912 86.2368C172.366 86.5363 171.836 86.8234 171.352 87.1354C170.868 87.4474 170.478 87.6346 170.057 87.8966C166.362 90.0862 162.931 92.5471 159.808 95.2474C159.09 95.863 158.388 96.487 157.702 97.1194C158.373 97.7558 159.012 98.3674 159.652 99.0662C160.338 98.4173 161.025 97.8182 161.742 97.1818C165.047 94.3071 168.706 91.7064 172.662 89.4192C173.645 88.8451 174.659 88.296 175.689 87.7718L175.892 87.672L175.424 87.6346Z" fill="#A85720"/>
<path d="M105.52 217.152C146.013 217.152 178.84 185.583 178.84 146.64C178.84 107.697 146.013 76.128 105.52 76.128C65.0264 76.128 32.2 107.697 32.2 146.64C32.2 185.583 65.0264 217.152 105.52 217.152Z" fill="#CE6925"/>
<path d="M161.696 97.1818C161.072 96.5203 160.416 95.9338 159.761 95.2474C159.106 94.561 158.42 93.9994 157.718 93.3504C155.752 91.5699 153.669 89.8744 151.478 88.2711L150.947 87.8967C150.276 87.4224 149.59 86.9607 148.904 86.5114C148.217 86.0621 147.344 85.4755 146.486 84.9888C145.628 84.5021 144.801 83.9779 143.943 83.5037C143.537 83.2666 143.132 83.0419 142.71 82.8298C141.681 82.2807 140.651 81.7565 139.59 81.2698C139.484 81.1945 139.355 81.1429 139.216 81.12C138.218 80.6333 137.204 80.184 136.174 79.7472L134.614 79.1232C129.955 77.2716 125.038 75.8682 119.966 74.9424C118.125 74.593 116.237 74.3184 114.334 74.1063C112.431 73.8941 110.434 73.7443 108.453 73.6819C107.47 73.6819 106.487 73.6819 105.504 73.6819C63.3845 73.6819 29.0645 106.429 29.0645 146.69C29.0645 186.95 63.3845 219.698 105.504 219.698C113.037 219.696 120.512 218.645 127.594 216.59C128.764 216.253 129.934 215.879 131.088 215.48C132.243 215.08 133.257 214.731 134.318 214.319C135.051 214.032 135.768 213.733 136.486 213.433C138.327 212.647 140.136 211.798 141.915 210.937C143.693 210.076 145.472 209.003 147.172 207.929C149.268 206.633 151.273 205.246 153.178 203.773C153.942 203.199 154.738 202.613 155.424 202.001L156.267 201.29L157.53 200.192L158.373 199.43C159.059 198.806 159.73 198.182 160.37 197.533C173.708 184.392 181.944 166.471 181.944 146.752C181.96 127.583 174.269 110.198 161.696 97.1818ZM152.648 197.022L152.304 197.309C151.727 197.821 151.134 198.32 150.542 198.806C149.949 199.293 148.982 199.98 148.295 200.541C144.301 203.537 139.876 206.143 135.113 208.304C133.428 209.053 131.712 209.751 129.965 210.375C129.575 210.525 129.185 210.662 128.78 210.787C127.734 211.149 126.674 211.486 125.66 211.786L124.63 212.085C123.819 212.31 123.07 212.509 122.181 212.697C116.775 213.992 111.163 214.652 105.52 214.656C66.7541 214.656 35.3201 184.205 35.3201 146.64C35.3201 111.297 63.1505 82.2432 98.7341 78.936C100.658 78.728 102.561 78.624 104.444 78.624H105.52C106.986 78.624 108.453 78.624 109.888 78.7613C115.436 79.0867 120.899 80.0405 126.112 81.5943C127.391 81.9811 128.67 82.393 129.918 82.8423C130.418 83.0045 130.901 83.1917 131.385 83.3789C131.868 83.5661 132.633 83.8656 133.257 84.1277C134.297 84.552 135.337 85.0013 136.377 85.4755C137.5 86.0122 138.608 86.5738 139.7 87.1728C140.558 87.6221 141.416 88.1088 142.242 88.608C143.069 89.1072 143.802 89.5939 144.66 90.1056C145.986 90.9667 147.281 91.8778 148.545 92.8263L149.762 93.7498C151.119 94.8231 152.445 95.9338 153.693 97.0944C154.395 97.7309 155.081 98.3424 155.736 99.0288C156.392 99.7152 157.047 100.352 157.686 101.026C169.649 114.293 175.97 130.283 175.72 146.64C175.72 164.798 168.372 181.297 156.392 193.49C155.752 194.164 155.081 194.825 154.395 195.462C153.708 196.098 153.225 196.548 152.648 197.059V197.022ZM157.655 97.0819C157 96.433 156.314 95.8339 155.612 95.1725C154.052 93.7623 152.492 92.4019 150.729 91.129C150.451 92.0115 150.102 92.8786 149.684 93.7248C151.041 94.7981 152.367 95.9088 153.615 97.0695C154.317 97.7059 155.003 98.3175 155.658 99.0039C156.314 99.6903 156.969 100.327 157.608 101.001C158.248 100.327 158.919 99.6653 159.605 99.0288C158.966 98.4048 158.326 97.7559 157.655 97.1194V97.0819Z" fill="#A85720"/>
<path d="M160.12 223.392C195.444 223.392 224.08 190.705 224.08 150.384C224.08 110.063 195.444 77.376 160.12 77.376C124.796 77.376 96.1599 110.063 96.1599 150.384C96.1599 190.705 124.796 223.392 160.12 223.392Z" fill="#CE6925"/>
<path d="M226.81 142.16C226.81 141.598 226.701 141.024 226.638 140.462C226.404 138.478 226.108 136.519 225.733 134.572C225.64 134.01 225.531 133.449 225.406 132.899C224.466 128.34 223.121 123.84 221.381 119.434C221.053 118.61 220.71 117.786 220.351 116.938C218.239 112.063 215.571 107.355 212.38 102.873C211.725 101.974 211.069 101.1 210.367 100.227C209.665 99.3533 209.01 98.5296 208.293 97.7309C204.65 93.4541 200.353 89.5592 195.501 86.1369C193.604 84.7945 191.609 83.5442 189.526 82.3929C188.434 81.7939 187.326 81.2323 186.219 80.7081C185.111 80.184 183.863 79.6473 182.662 79.1731C179.712 78.0001 176.63 77.0516 173.458 76.3401C172.116 76.0406 170.759 75.7785 169.386 75.5789C167.839 75.3378 166.277 75.1629 164.706 75.0547L163.661 74.9798C163.027 74.9798 162.387 74.9549 161.742 74.9049H160.182C159.246 74.9049 158.295 74.9049 157.359 74.9798H156.75C155.008 75.0688 153.273 75.2397 151.555 75.4915L150.573 75.6413C149.73 75.7661 148.903 75.9158 148.061 76.0905C147.219 76.2653 146.283 76.4649 145.409 76.6896C142.235 77.4738 139.163 78.5019 136.236 79.7597C135.144 80.2214 134.068 80.7081 133.007 81.2573C131.946 81.8064 130.979 82.2806 129.981 82.8547C128.982 83.4288 127.906 84.1027 126.861 84.7142C121.144 88.4404 116.136 92.8126 111.994 97.6934C108.029 102.315 104.697 107.265 102.057 112.457C101.401 113.705 100.793 114.953 100.216 116.314C95.4118 127.259 92.9951 138.784 93.0711 150.384C93.0711 170.165 99.7479 188.81 111.791 202.937L111.916 203.075C113.164 204.522 114.459 205.907 115.785 207.218C117.111 208.528 118.624 209.914 120.121 211.149C120.761 211.698 121.416 212.222 122.071 212.734C122.727 213.246 123.819 214.057 124.723 214.681C125.628 215.305 126.611 215.929 127.563 216.54C136.78 222.514 148.258 225.809 160.12 225.888C170.514 225.835 180.647 223.277 189.198 218.55C190.275 217.963 191.351 217.302 192.412 216.69C193.473 216.079 194.424 215.442 195.407 214.718C196.39 213.995 196.967 213.57 197.825 212.971C199.073 211.998 200.305 210.987 201.522 209.926C202.739 208.865 203.847 207.792 204.97 206.656C206.093 205.521 207.201 204.323 208.277 203.075C220.476 188.935 227.2 170.227 227.2 150.384C227.2 147.613 227.07 144.872 226.81 142.16ZM191.367 210.912C190.306 211.661 189.214 212.36 188.122 213.021L187.498 213.396C186.707 213.87 185.896 214.319 185.064 214.743C183.988 215.305 182.896 215.829 181.773 216.316C175.164 219.3 167.709 220.877 160.12 220.896C150.899 220.821 141.924 218.511 134.38 214.269C133.725 213.92 133.085 213.558 132.445 213.171L131.494 212.584C130.589 212.035 129.7 211.449 128.826 210.825C128.483 210.6 128.155 210.363 127.843 210.126C126.393 209.077 124.989 207.954 123.616 206.769C108.827 193.902 99.2799 173.472 99.2799 150.384C99.1737 137.941 102.121 125.602 107.953 114.067C108.655 112.707 109.404 111.384 110.184 110.099C116.689 99.2909 125.784 90.7046 136.299 85.488C137.297 84.9888 138.311 84.527 139.419 84.0902C140.526 83.6534 141.603 83.2166 142.71 82.8422C143.818 82.4678 144.91 82.1184 146.017 81.8189H146.22C147.531 81.4561 148.864 81.1478 150.214 80.8953L150.947 80.7581L151.758 80.6208L153.084 80.4211C154.634 80.215 156.196 80.0775 157.764 80.0093H159.184H160.213C163.866 80.0125 167.504 80.3857 171.04 81.12C172.535 81.432 174.009 81.807 175.455 82.2432L177.015 82.7424C177.685 82.9795 178.356 83.2166 179.027 83.4787C179.37 83.591 179.698 83.7283 180.041 83.8656C180.837 84.1776 181.601 84.5145 182.397 84.8765C183.979 85.589 185.511 86.3723 186.983 87.2227L187.685 87.6221C188.73 88.2336 189.76 88.8701 190.805 89.5814C193.969 91.7294 196.873 94.1112 199.479 96.695C200.212 97.4064 200.929 98.1427 201.616 98.8915C206.788 104.536 210.937 110.738 213.94 117.312C214.377 118.298 214.813 119.296 215.235 120.307C216.867 124.342 218.149 128.462 219.072 132.637C219.197 133.174 219.322 133.723 219.415 134.26C219.821 136.207 220.133 138.166 220.383 140.175C220.383 140.712 220.523 141.261 220.57 141.81C220.861 144.622 221.012 147.48 221.022 150.384C221.022 174.321 210.726 195.474 195.001 208.216C193.769 209.165 192.583 210.051 191.367 210.912Z" fill="#A85720"/>
<path d="M83.2121 170.202L78.2981 169.89L76.3013 169.765L69.4841 169.341L57.6593 168.592L55.7717 168.468L63.5717 159.395L68.5793 153.579L71.3717 150.322L77.2841 160.268L83.2121 170.202Z" fill="#5B2E10"/>
<path d="M78.2981 169.89L76.3013 169.765L69.4841 169.341L57.6593 168.592L55.7717 168.468L63.5717 159.395L68.5793 153.579L73.4309 161.741L78.2981 169.89Z" fill="#351B09"/>
<path d="M263.626 167.232L258.993 167.382L249.867 167.681L236.123 168.131L242.503 158.384L246.793 151.832L248.884 148.624L256.247 157.922L263.626 167.232Z" fill="#5B2E10"/>
<path d="M258.993 167.382L249.867 167.681L236.123 168.131L242.503 158.384L246.793 151.832L252.862 159.582L258.993 167.382Z" fill="#351B09"/>
<path d="M68.1633 173.456L54.9681 172.543C51.5175 172.305 48.4787 174.346 48.1809 177.103C47.883 179.86 50.4388 182.289 53.8894 182.527L67.0846 183.44C70.5352 183.678 73.574 181.637 73.8719 178.88C74.1698 176.123 71.614 173.694 68.1633 173.456Z" fill="#DB7DBC"/>
<path d="M259.988 172.549L246.912 174.236C243.493 174.677 241.168 177.249 241.718 179.981C242.269 182.713 245.487 184.57 248.907 184.129L261.982 182.443C265.401 182.001 267.727 179.429 267.176 176.697C266.626 173.965 263.407 172.108 259.988 172.549Z" fill="#DB7DBC"/>
<path d="M159.73 73.632H142.18L124.396 44.8157C123.663 43.5677 125.628 42.432 128.358 42.432L163.178 44.928C165.284 44.928 166.578 45.2275 166.298 46.176L159.73 73.632Z" fill="#492F0D"/>
<path d="M161.68 74.88H146.08L130.23 47.2243C129.575 46.0637 131.26 44.928 133.756 44.928H164.426C166.298 44.928 167.748 45.7267 167.546 46.6378L161.68 74.88Z" fill="#5B3C0E"/>
<g opacity="0.28">
<path d="M91.9792 118.685L133.054 106.804C140.038 104.776 145.732 100.616 148.89 95.2361C152.048 89.8561 152.412 83.6941 149.902 78.0999L108.827 89.9184C101.844 91.9465 96.1492 96.1061 92.9913 101.486C89.8335 106.866 89.4695 113.028 91.9792 118.622V118.685Z" fill="black"/>
<path d="M182.74 106.08L206.14 118.186C214.424 122.479 225.874 120.108 231.74 112.894L208.418 100.788C200.04 96.4704 188.574 98.8416 182.74 106.08Z" fill="black"/>
<path d="M226.804 64.0134L224.027 67.861C217.407 77.0337 206.503 83.7269 193.715 86.4682C180.927 89.2095 167.301 87.7744 155.835 82.4786L158.612 78.6309C165.231 69.4583 176.135 62.7651 188.923 60.0237C201.712 57.2824 215.338 58.7175 226.804 64.0134Z" fill="black"/>
<path d="M311.44 216.64V223.043C308.408 220.837 305.611 218.432 303.078 215.854C296.6 209.621 292.022 202.268 289.709 194.376C288.377 189.656 288.318 184.763 289.538 180.024C290.483 176.494 290.531 172.848 289.678 169.304C288.681 165.145 286.853 161.142 284.265 157.448C284.015 159.232 283.703 160.992 283.329 162.739C282.621 161.4 281.813 160.095 280.911 158.833C280.11 157.7 279.213 156.612 278.228 155.576C276.913 154.158 275.429 152.846 273.797 151.657C270.637 149.397 266.916 147.696 262.877 146.665C261.91 146.403 260.88 146.166 259.757 145.929C258.634 145.692 257.745 145.529 256.637 145.342C250.538 144.281 242.878 143.557 232.738 142.659C230.616 142.472 228.651 142.322 226.794 142.197L223.674 141.997L220.554 141.848C218.074 141.723 215.874 141.648 213.846 141.586H211.631L208.511 141.448C207.435 141.448 206.405 141.324 205.391 141.236C200.337 140.941 195.5 139.47 191.476 137.005C180.556 130.466 176.812 120.195 175.673 116.089C174.328 111.029 174.419 105.792 175.938 100.764C176.781 97.2691 177.171 95.3347 175.938 93.0509C175.179 91.6876 174.043 90.4799 172.616 89.519C171.806 88.9553 170.94 88.446 170.026 87.9965C169.055 87.5314 168.05 87.1146 167.015 86.7485C162.621 85.2069 158.005 84.1085 153.272 83.4787L151.712 83.2666H151.337C150.635 83.1667 149.933 83.0793 149.262 83.0169L148.42 82.7049C147.538 82.6131 146.709 82.3183 146.033 81.8563C145.214 81.294 144.663 80.5225 144.473 79.6723C144.411 79.3038 144.411 78.9301 144.473 78.5616C144.52 77.8873 144.807 77.2378 145.3 76.6896C145.69 76.2862 146.179 75.9508 146.737 75.704C147.295 75.4572 147.91 75.3042 148.545 75.2544C148.898 75.2296 149.253 75.2296 149.606 75.2544L150.339 75.3417L151.446 75.4666C152.741 75.6163 153.989 75.791 155.206 75.9782C156.766 76.2029 158.186 76.44 159.574 76.7021L159.964 76.7894C161.009 76.9891 162.023 77.2013 163.006 77.4384C163.271 77.4876 163.531 77.5501 163.786 77.6256L164.66 77.8377C168.561 78.7693 172.279 80.1346 175.704 81.8938L176.937 82.5801C177.467 82.8921 177.951 83.2042 178.497 83.5286C179.316 84.0903 180.087 84.6949 180.806 85.3382C181.672 86.1101 182.445 86.9458 183.114 87.8342C183.658 88.5315 184.133 89.2617 184.534 90.0182C184.879 90.6482 185.161 91.2992 185.376 91.9651C186.261 94.7758 186.299 97.7144 185.486 100.539L185.111 102.099C184.971 102.698 184.815 103.347 184.69 103.933C184.69 103.933 184.69 104.021 184.69 104.058C184.503 104.944 184.331 105.868 184.222 106.829C183.928 109.364 184.139 111.921 184.846 114.404C185.548 116.975 188.512 125.761 197.123 130.928C199.427 132.37 202.177 133.284 205.079 133.573C206.031 133.698 207.076 133.773 208.199 133.836C209.323 133.898 210.196 133.948 211.319 133.985L214.174 134.085L219.353 134.272L222.473 134.41L225.671 134.584C228.105 134.734 230.772 134.934 233.705 135.196C242.675 135.982 250.21 136.656 256.715 137.692C257.792 137.867 258.852 138.041 259.835 138.241C260.818 138.441 261.941 138.653 262.955 138.877C268.647 140.055 273.963 142.181 278.555 145.117C279.054 145.442 279.538 145.779 280.022 146.128C280.505 146.478 281.176 146.989 281.722 147.439C282.829 148.317 283.871 149.246 284.842 150.222C290.254 155.859 293.921 162.44 295.544 169.428C296.6 173.834 296.563 178.363 295.435 182.757C294.406 186.56 294.438 190.497 295.528 194.289C297.56 201.068 301.521 207.381 307.103 212.734C308.457 214.1 309.905 215.404 311.44 216.64Z" fill="black"/>
<path d="M311.44 212.16V222.993C308.408 220.787 305.611 218.382 303.079 215.804C296.6 209.572 292.022 202.218 289.709 194.326C288.377 189.606 288.318 184.713 289.538 179.974C290.483 176.444 290.531 172.798 289.678 169.254C288.681 165.095 286.853 161.092 284.265 157.398C283.444 156.227 282.526 155.102 281.519 154.028C280.616 153.064 279.636 152.147 278.587 151.283C278.119 150.896 277.604 150.496 277.027 150.122C273.027 147.286 268.198 145.303 262.987 144.356C262.004 144.131 260.974 143.932 259.867 143.745C258.759 143.557 257.839 143.42 256.747 143.27C251.209 142.459 244.469 141.835 236.014 141.086C232.52 140.774 229.4 140.562 226.654 140.412L223.534 140.25L220.414 140.125L217.185 140.026C215.204 140.026 213.379 139.901 211.678 139.813C210.602 139.813 209.572 139.689 208.558 139.589C207.51 139.508 206.468 139.379 205.438 139.202C201.58 138.61 197.95 137.297 194.846 135.371C183.926 128.831 180.166 118.572 179.043 114.454C177.69 109.395 177.781 104.156 179.308 99.1286C180.151 95.6342 180.541 93.6998 179.308 91.416C178.498 89.959 177.269 88.6761 175.72 87.672L175.517 87.5347C174.726 87.0179 173.887 86.5506 173.006 86.1369C171.999 85.6693 170.957 85.2525 169.886 84.8889C165.563 83.4239 161.039 82.3724 156.407 81.7565L155.908 81.6816C154.52 81.4819 153.163 81.3197 151.837 81.1699H151.759L151.088 81.0451C150.797 80.9742 150.515 80.8823 150.245 80.7705C149.705 80.5455 149.228 80.2356 148.841 79.8595C148.459 79.4949 148.177 79.0695 148.015 78.6115C148.001 78.579 148.001 78.5441 148.015 78.5117C147.807 77.992 147.749 77.4419 147.843 76.9017C147.89 76.5833 147.995 76.2721 148.155 75.9782C148.309 75.6811 148.508 75.4003 148.748 75.142C148.822 75.0575 148.906 74.9782 148.997 74.9049C149.79 74.1753 150.912 73.7266 152.117 73.6569C152.47 73.6259 152.826 73.6259 153.178 73.6569C155.019 73.8566 156.797 74.0813 158.498 74.3309C159.371 74.4681 160.229 74.5929 161.056 74.7427L161.789 74.8675L163.147 75.1046C164.707 75.4041 166.173 75.7286 167.577 76.078C171.712 77.0219 175.654 78.4429 179.277 80.2963L180.322 80.8828C180.931 81.2448 181.508 81.6067 182.069 81.9936C182.903 82.5688 183.685 83.1902 184.409 83.8531C185.439 84.7921 186.338 85.8172 187.093 86.9107C187.202 87.0605 187.295 87.2102 187.389 87.36C187.483 87.5097 187.795 88.0089 187.966 88.3459C188.524 89.3828 188.932 90.4672 189.183 91.5782C189.51 93.0441 189.584 94.5391 189.401 96.0211C189.323 96.7824 189.183 97.5312 189.027 98.2675C188.871 99.0038 188.715 99.7152 188.543 100.427C188.543 100.726 188.403 101.026 188.325 101.325C187.998 102.608 187.759 103.903 187.607 105.206C187.488 106.235 187.457 107.269 187.514 108.301C187.59 109.792 187.83 111.275 188.231 112.732C188.933 115.303 191.897 124.089 200.509 129.255C201.838 130.088 203.323 130.749 204.908 131.215C205.951 131.511 207.027 131.729 208.121 131.864C209.089 131.988 210.118 132.076 211.241 132.151C213.02 132.263 215.079 132.325 217.481 132.413H219.041L222.161 132.525L225.375 132.675C228.729 132.837 232.582 133.074 237.044 133.474C244.485 134.135 250.943 134.722 256.637 135.47C257.729 135.608 258.775 135.757 259.757 135.92C260.74 136.082 261.895 136.269 262.877 136.456C268.327 137.356 273.538 139.012 278.275 141.348C279.451 142.017 280.577 142.743 281.644 143.52C282.237 143.882 282.814 144.281 283.376 144.693C283.937 145.105 284.405 145.454 284.936 145.854C294.67 153.629 297.946 163.825 298.976 167.993C300.024 172.395 299.987 176.919 298.867 181.309C297.84 185.112 297.866 189.048 298.945 192.841C300.978 199.626 304.945 205.943 310.535 211.299L311.44 212.16Z" fill="black"/>
<path d="M92.1509 115.315L133.226 103.434C136.696 102.432 139.885 100.892 142.612 98.9023C145.338 96.9131 147.547 94.5135 149.113 91.8407C150.679 89.168 151.571 86.2746 151.739 83.3258C151.906 80.377 151.346 77.4307 150.089 74.6554L109.014 86.5488C105.546 87.5515 102.358 89.091 99.6334 91.0794C96.9087 93.0678 94.7002 95.4662 93.1343 98.1375C91.5683 100.809 90.6754 103.701 90.5067 106.648C90.338 109.595 90.8967 112.541 92.1509 115.315Z" fill="black"/>
<path d="M182.912 103.01L206.312 115.116C208.28 116.137 210.481 116.838 212.789 117.179C215.096 117.52 217.465 117.494 219.759 117.102C222.054 116.71 224.23 115.961 226.162 114.896C228.095 113.831 229.746 112.473 231.022 110.897L207.622 98.8041C205.655 97.7805 203.455 97.0772 201.148 96.7345C198.841 96.3918 196.472 96.4165 194.177 96.8072C191.882 97.1978 189.705 97.9468 187.772 99.0111C185.839 100.075 184.188 101.434 182.912 103.01Z" fill="black"/>
</g>
<path d="M93.5392 114.816L134.614 102.923C141.598 100.894 147.292 96.7349 150.45 91.3548C153.608 85.9748 153.972 79.8128 151.462 74.2186L110.387 86.0371C103.404 88.0652 97.7092 92.2248 94.5514 97.6048C91.3935 102.985 91.0296 109.147 93.5392 114.741V114.816Z" fill="#10420A"/>
<path d="M184.3 102.186L207.7 114.292C215.984 118.585 227.434 116.214 233.3 108.988L209.978 96.8822C201.694 92.5891 190.228 94.9603 184.378 102.186H184.3Z" fill="#10420A"/>
<path d="M228.35 60.1279L225.573 63.9756C218.953 73.1482 208.05 79.8414 195.261 82.5828C182.473 85.3241 168.847 83.889 157.381 78.5932L160.158 74.7455C166.777 65.5728 177.681 58.8796 190.469 56.1383C203.258 53.397 216.884 54.8321 228.35 60.1279Z" fill="#10420A"/>
<path d="M313 212.759V222.918C308.657 220.118 304.731 216.927 301.3 213.408C294.815 207.172 290.233 199.815 287.915 191.917C286.583 187.202 286.525 182.313 287.744 177.578C288.695 174.049 288.749 170.403 287.9 166.858C287.042 163.238 284.109 154.103 275.311 147.726C267.167 141.823 256.84 140.687 234.267 138.69C226.171 137.979 220.149 137.779 215.313 137.617C205.688 137.305 199.885 137.118 192.958 132.974C182.038 126.435 178.294 116.164 177.155 112.058C175.81 106.998 175.901 101.761 177.421 96.7325C178.263 93.2381 178.653 91.3037 177.421 89.0198C174.004 82.6425 160.557 79.9219 149.887 78.7737C148.645 78.7522 147.466 78.3371 146.607 77.6198C145.748 76.9024 145.281 75.9416 145.308 74.9486C145.335 73.9556 145.854 73.0119 146.75 72.325C147.647 71.638 148.848 71.2642 150.089 71.2857C150.442 71.261 150.797 71.261 151.15 71.2857C170.432 73.3824 181.835 78.1872 186.016 86.0121C188.434 90.5174 187.576 94.3612 186.593 98.0928C185.332 102.124 185.231 106.331 186.297 110.398C186.999 112.969 189.963 121.755 198.574 126.922C203.161 129.667 206.561 129.779 215.734 130.079C220.726 130.241 226.919 130.441 235.328 131.19C257.527 133.149 270.911 134.335 281.644 142.11C292.377 149.885 296.121 161.042 297.135 165.41C298.192 169.815 298.155 174.344 297.026 178.739C295.997 182.541 296.029 186.478 297.119 190.27C299.151 197.049 303.113 203.362 308.695 208.715C310.033 210.128 311.47 211.478 313 212.759Z" fill="#10420A"/>
<path d="M313 208.329V219.161C309.968 216.956 307.171 214.551 304.639 211.973C298.16 205.74 293.582 198.387 291.269 190.495C289.937 185.775 289.878 180.882 291.098 176.143C292.043 172.613 292.091 168.967 291.238 165.422C290.38 161.803 287.447 152.68 278.649 146.291C270.506 140.388 260.194 139.252 237.605 137.255C229.509 136.544 223.565 136.344 218.651 136.194C209.026 135.882 203.223 135.683 196.312 131.539C185.392 125 181.633 114.741 180.509 110.623C179.156 105.563 179.247 100.325 180.775 95.2973C181.617 91.8029 182.007 89.8685 180.775 87.5847C177.358 81.2074 163.927 78.4992 153.256 77.3386C152.446 77.2524 151.677 76.9978 151.028 76.6002C150.379 76.2026 149.871 75.6758 149.556 75.0724C149.24 74.4689 149.127 73.8099 149.229 73.1608C149.331 72.5118 149.644 71.8954 150.136 71.3731C150.633 70.8365 151.299 70.4159 152.067 70.1548C152.835 69.8936 153.677 69.8015 154.504 69.888C173.786 71.9722 185.189 76.777 189.386 84.6019C191.788 89.1072 190.868 92.9635 189.963 96.6826C188.689 100.712 188.582 104.921 189.651 108.988C190.353 111.559 193.317 120.345 201.928 125.511C206.515 128.269 209.915 128.369 219.088 128.669C224.08 128.831 230.273 129.031 238.697 129.78C260.88 131.739 274.265 132.925 284.998 140.712C295.731 148.5 299.475 159.632 300.505 164.012C301.553 168.414 301.516 172.938 300.395 177.328C299.368 181.131 299.395 185.067 300.473 188.86C302.506 195.645 306.473 201.962 312.064 207.318L313 208.329Z" fill="#145E0E"/>
<path d="M229.407 60.2659C222.788 69.4807 211.863 76.2143 199.038 78.9854C186.212 81.7565 172.536 80.3381 161.017 75.0423C167.637 65.8275 178.561 59.0939 191.387 56.3228C204.213 53.5517 217.889 54.9701 229.407 60.2659Z" fill="#145E0E"/>
<path d="M93.7107 111.434L134.786 99.5405C138.254 98.5378 141.442 96.9983 144.167 95.0099C146.891 93.0215 149.1 90.6231 150.666 87.9518C152.232 85.2805 153.125 82.3886 153.293 79.4412C153.462 76.4938 152.903 73.5487 151.649 70.7741L110.574 82.6675C107.106 83.6702 103.918 85.2097 101.193 87.1981C98.4685 89.1865 96.2601 91.5849 94.6941 94.2562C93.1281 96.9275 92.2352 99.8194 92.0665 102.767C91.8978 105.714 92.4565 108.659 93.7107 111.434Z" fill="#145E0E"/>
<path d="M184.472 99.1286L207.872 111.234C209.84 112.256 212.041 112.957 214.348 113.298C216.656 113.639 219.025 113.612 221.319 113.221C223.614 112.829 225.79 112.079 227.722 111.015C229.655 109.95 231.306 108.591 232.582 107.016L209.182 94.9104C207.214 93.8889 205.013 93.1877 202.705 92.8469C200.398 92.5061 198.029 92.5323 195.734 92.924C193.44 93.3157 191.264 94.0653 189.331 95.1299C187.399 96.1945 185.748 97.5533 184.472 99.1286Z" fill="#145E0E"/>
<path d="M313 244.608H1V263.328H313V244.608Z" fill="#492F0D"/>
<path opacity="0.33" d="M174.16 265.999V312H20.6092C15.4085 312 10.4208 310.347 6.7434 307.405C3.06596 304.463 1 300.473 1 296.313V244.608H102.135L111.744 251.846L126.455 262.941L126.876 263.328L127.578 263.977L134.645 270.566L145.94 281.1L147.64 282.684L148.139 283.146C148.288 283.284 148.45 283.414 148.623 283.533C149.165 283.924 149.8 284.224 150.49 284.414C151.18 284.605 151.911 284.682 152.639 284.641C153.367 284.6 154.077 284.443 154.728 284.177C155.378 283.912 155.954 283.544 156.423 283.096L157.796 281.773L169.418 270.541L174.16 265.999Z" fill="black"/>
<path opacity="0.33" d="M305.2 244.608V263.328H176.937L177.826 262.467L200.462 244.608H305.2Z" fill="black"/>
<path d="M313 242.112V296.313C313 296.587 313 296.849 313 297.124C313 297.398 313 297.648 313 297.91C312.975 298.165 312.933 298.419 312.875 298.671C312.842 298.941 312.785 299.207 312.704 299.47C312.704 299.72 312.579 299.969 312.485 300.219C312.108 301.433 311.537 302.604 310.785 303.701C310.52 304.1 310.239 304.499 309.927 304.874L309.443 305.435C308.633 306.342 307.708 307.178 306.682 307.931C306.266 308.231 305.829 308.518 305.372 308.793C304.935 309.067 304.467 309.317 303.983 309.566L303.266 309.916L302.486 310.253L301.768 310.527L301.035 310.777C300.52 310.952 299.99 311.101 299.475 311.239C298.621 311.446 297.75 311.609 296.87 311.725C296.464 311.788 296.058 311.825 295.637 311.863C295.216 311.9 294.982 311.863 294.654 311.863H293.64H20.6092C15.4381 311.863 10.4763 310.229 6.80372 307.317C3.13118 304.404 1.04525 300.449 1 296.313V242.112H109.935L113.242 244.608L122.852 251.846L127.532 255.416L134.208 260.408L137.328 263.291L145.128 270.529L147.656 272.875L151.103 276.095L153.755 278.591L154.114 278.928L155.955 280.638C156.463 281.117 157.097 281.5 157.811 281.761C158.895 282.155 160.111 282.253 161.272 282.041C162.433 281.829 163.475 281.319 164.238 280.588L174.176 271.016L174.644 270.554L182.163 263.315L185.642 259.958L195.938 251.834L199.058 249.338L205.064 244.595L208.184 242.099L313 242.112Z" fill="#546D17"/>
<path d="M192.88 182.445L189.76 190.395L187.545 192.279L183.52 195.699L183.442 195.661L177.28 192.467L171.04 197.034L163.24 195.699L155.44 199.68L150.76 194.376L142.96 197.034L138.28 190.395L130.48 191.718L129.139 187.138L128.359 184.504L127.36 181.11V178.464L135.16 185.091L139.84 182.445L146.08 189.072L150.76 187.637L157 191.718L163.24 189.072L168.747 190.245L169.48 190.395L174.16 185.091L183.52 186.426L192.88 182.445Z" fill="#5B2E10"/>
<path d="M189.76 186.963L187.545 192.279L183.52 195.699L183.442 195.661L177.28 192.467L171.04 197.034L163.24 195.699L155.44 199.68L150.76 194.376L142.96 197.034L138.28 190.395L130.48 191.718L129.138 187.138L132.04 189.459L136.72 186.963L142.96 193.203L147.64 191.855L153.88 195.699L160.12 193.203L165.627 194.301L166.36 194.451L171.04 189.459L180.4 190.707L189.76 186.963Z" fill="#351B09"/>
</svg>
