<svg width="312" height="312" viewBox="0 0 312 312" fill="none" xmlns="http://www.w3.org/2000/svg">
<g clip-path="url(#clip0_1305_2)">
<path d="M292.391 0H19.6092C8.77934 0 0 7.02347 0 15.6874V296.313C0 304.977 8.77934 312 19.6092 312H292.391C303.221 312 312 304.977 312 296.313V15.6874C312 7.02347 303.221 0 292.391 0Z" fill="#C44E79"/>
<g opacity="0.22">
<path d="M270.894 283.845V309.504C270.891 310.338 270.834 311.171 270.722 312H37.7364C34.4904 308.198 32.7558 303.7 32.76 299.096V273.462C32.7214 256.631 39.4606 240.238 51.9792 226.712C59.883 220.7 68.9825 215.782 78.9048 212.16C91.7354 207.494 105.667 205.081 119.761 205.084H172.427C178.296 205.08 184.154 205.498 189.93 206.332L192.785 206.781L194.251 207.031C195.156 207.189 196.061 207.364 196.966 207.555C197.87 207.742 198.775 207.929 199.664 208.141L202.691 208.878C202.691 208.878 202.784 208.878 202.816 208.878C204.157 209.215 205.483 209.589 206.794 209.976C207.854 210.288 208.9 210.625 209.914 210.974C210.928 211.324 212.394 211.811 213.611 212.222C216.232 213.196 218.806 214.257 221.302 215.405C232.416 220.509 242.185 227.29 250.068 235.373C251.488 236.833 252.86 238.331 254.155 239.878C255.45 241.426 256.464 242.724 257.525 244.196C258.788 245.931 259.974 247.703 261.05 249.513C267.557 260.208 270.924 271.951 270.894 283.845Z" fill="black"/>
<path opacity="0.07" d="M250.099 235.423C247.541 240.215 245.934 244.084 239.039 257.6C231.239 272.938 229.866 274.622 226.559 282.56C225.467 285.168 224.562 287.352 223.766 289.336C222.35 292.843 221.199 296.415 220.319 300.032C219.398 303.863 218.962 306.746 218.603 309.429C218.478 310.303 218.369 311.151 218.244 312H198.572C201.053 299.869 195.359 275.072 195.359 275.072C190.85 255.441 194.47 238.88 196.919 227.648C198.02 222.543 199.505 217.496 201.365 212.534C201.833 211.286 202.316 210.076 202.816 208.903C204.157 209.24 205.483 209.614 206.794 210.001C207.854 210.313 208.9 210.65 209.914 210.999C210.928 211.349 212.394 211.836 213.611 212.247C216.232 213.221 218.806 214.282 221.302 215.43C232.43 220.538 242.21 227.329 250.099 235.423Z" fill="black"/>
<path opacity="0.58" d="M220.974 158.271V187.949C220.978 188.954 220.91 189.958 220.771 190.956C218.002 195.556 213.666 199.436 208.263 202.152C202.859 204.867 196.608 206.308 190.226 206.307H189.946C195.697 207.145 201.341 208.398 206.809 210.051C201.057 213.324 194.165 215.07 187.106 215.043H94.1772C88.8738 215.056 83.6413 214.069 78.9048 212.16C86.3657 209.434 94.2284 207.476 102.305 206.332H97.2972C88.3094 206.329 79.6911 203.47 73.3372 198.384C66.9833 193.299 63.414 186.403 63.414 179.213V149.535C63.406 145.043 63.9916 140.563 65.1612 136.169C71.6523 121.986 84.1788 110.084 100.543 102.551C116.908 95.0185 136.066 92.3361 154.655 94.9746C173.245 97.613 190.08 105.404 202.207 116.98C214.334 128.557 220.978 143.18 220.974 158.284V158.271Z" fill="black"/>
<path d="M267.774 93.201L268.183 93.5781L256.4 101.757C255.991 102.046 255.514 102.267 254.998 102.407C254.481 102.548 253.935 102.605 253.391 102.576C252.846 102.547 252.315 102.432 251.826 102.237C251.338 102.043 250.902 101.773 250.545 101.443L250.136 101.066L261.918 92.8871C262.328 92.5986 262.804 92.3777 263.321 92.2372C263.837 92.0968 264.383 92.0395 264.928 92.0687C265.472 92.0979 266.004 92.213 266.492 92.4073C266.981 92.6016 267.416 92.8714 267.774 93.201Z" fill="black"/>
<path d="M254.686 102.336H253.734V91.5034C253.734 90.1794 254.391 88.9097 255.562 87.9735C256.732 87.0373 258.319 86.5114 259.974 86.5114H260.926V97.344C260.926 98.668 260.268 99.9377 259.098 100.874C257.928 101.81 256.341 102.336 254.686 102.336Z" fill="black"/>
<path d="M34.7091 97.5993C34.3536 97.937 33.9177 98.2146 33.4269 98.4162C32.936 98.6179 32.3999 98.7393 31.8498 98.7737C31.2997 98.808 30.7465 98.7544 30.2225 98.6161C29.6986 98.4778 29.2142 98.2575 28.7976 97.968L18.8978 91.0903C19.6215 90.4236 20.6465 90.0143 21.7474 89.9523C22.8483 89.8903 23.9349 90.1806 24.7681 90.7595L34.6679 97.6373L34.7091 97.5993Z" fill="black"/>
<path d="M25.974 85.2634C27.6289 85.2634 29.2161 85.7893 30.3863 86.7255C31.5566 87.6617 32.214 88.9314 32.214 90.2554V98.9914C30.559 98.9914 28.9719 98.4654 27.8017 97.5292C26.6314 96.5931 25.974 95.3233 25.974 93.9994V85.2634Z" fill="black"/>
<path d="M34.4292 95.2473C40.0793 95.2473 45.6741 96.1376 50.8941 97.8674C56.1141 99.5972 60.8571 102.133 64.8523 105.329C68.8475 108.525 72.0167 112.319 74.1789 116.495C76.3411 120.671 77.454 125.147 77.454 129.667V160.867C77.454 162.33 76.7275 163.733 75.4344 164.768C74.1413 165.802 72.3875 166.383 70.5588 166.383C59.1479 166.383 48.2044 162.757 40.1357 156.302C32.067 149.847 27.534 141.092 27.534 131.964V100.764C27.534 99.3005 28.2605 97.8975 29.5536 96.863C30.8467 95.8285 32.6005 95.2473 34.4292 95.2473Z" fill="black"/>
<path d="M34.32 111.471C38.9929 111.471 43.6201 112.208 47.9373 113.638C52.2545 115.069 56.1772 117.166 59.4814 119.809C62.7856 122.452 65.4067 125.591 67.195 129.044C68.9832 132.498 69.9036 136.2 69.9036 139.938V167.307C60.4689 167.307 51.4205 164.309 44.7477 158.974C38.0749 153.638 34.3241 146.4 34.32 138.852V111.471Z" fill="black"/>
<path d="M224.094 149.535V179.213C224.097 183.277 222.962 187.29 220.771 190.956C218.002 195.556 213.666 199.436 208.263 202.152C202.859 204.867 196.608 206.308 190.226 206.307H97.2972C88.3148 206.304 79.7012 203.448 73.3482 198.368C66.9952 193.288 63.4223 186.399 63.414 179.213V149.535C63.406 145.043 63.9916 140.563 65.1612 136.169C69.2809 120.625 80.4522 106.853 96.5187 97.5106C112.585 88.1683 132.408 83.9185 152.161 85.5812C171.914 87.244 190.197 94.7015 203.481 106.514C216.765 118.327 224.109 133.658 224.094 149.548V149.535Z" fill="black"/>
<path d="M215.374 168.892C213.545 168.892 211.791 168.311 210.498 167.276C209.205 166.242 208.478 164.839 208.478 163.376V132.176C208.478 123.047 213.011 114.292 221.08 107.837C229.149 101.382 240.092 97.7558 251.503 97.7558C253.332 97.7558 255.086 98.337 256.379 99.3715C257.672 100.406 258.398 101.809 258.398 103.272V134.472C258.398 143.601 253.865 152.356 245.797 158.811C237.728 165.265 226.784 168.892 215.374 168.892Z" fill="black"/>
<path d="M218.135 166.957V139.501C218.135 131.952 221.884 124.711 228.557 119.372C235.23 114.034 244.281 111.035 253.718 111.035V138.466C253.723 142.206 252.805 145.91 251.019 149.367C249.232 152.824 246.612 155.965 243.307 158.611C240.003 161.257 236.079 163.356 231.759 164.788C227.44 166.22 222.81 166.957 218.135 166.957Z" fill="black"/>
<path d="M128.934 160.143H89.934C83.9031 160.143 79.014 164.055 79.014 168.879C79.014 173.704 83.9031 177.615 89.934 177.615H128.934C134.965 177.615 139.854 173.704 139.854 168.879C139.854 164.055 134.965 160.143 128.934 160.143Z" fill="black"/>
<path d="M86.7984 170.751V173.247C86.7984 174.97 88.5445 176.367 90.6984 176.367C92.8523 176.367 94.5984 174.97 94.5984 173.247V170.751C94.5984 169.028 92.8523 167.631 90.6984 167.631C88.5445 167.631 86.7984 169.028 86.7984 170.751Z" fill="black"/>
<path d="M119.558 170.751V173.247C119.558 174.97 121.304 176.367 123.458 176.367C125.612 176.367 127.358 174.97 127.358 173.247V170.751C127.358 169.028 125.612 167.631 123.458 167.631C121.304 167.631 119.558 169.028 119.558 170.751Z" fill="black"/>
<path d="M161.148 188.847C160.339 192.768 158.382 196.48 155.438 199.68C153.327 201.99 150.535 203.846 147.311 205.084C145.117 205.903 142.727 206.329 140.306 206.332H97.2972C90.4254 206.337 83.7146 204.667 78.0576 201.546C72.4006 198.425 68.0655 194 65.6292 188.86L161.148 188.847Z" fill="black"/>
<path d="M133.614 178.863C136.924 178.863 140.098 179.915 142.439 181.788C144.779 183.66 146.094 186.199 146.094 188.847H133.614V178.863Z" fill="black"/>
<path d="M85.2384 188.86H72.7584C72.7584 186.212 74.0733 183.672 76.4137 181.8C78.7542 179.928 81.9285 178.876 85.2384 178.876V188.86Z" fill="black"/>
<path d="M160.134 145.791C160.134 142.69 156.991 140.175 153.114 140.175C149.237 140.175 146.094 142.69 146.094 145.791V153.279C146.094 156.381 149.237 158.895 153.114 158.895C156.991 158.895 160.134 156.381 160.134 153.279V145.791Z" fill="black"/>
<path d="M82.134 145.791C82.134 142.69 78.991 140.175 75.114 140.175C71.237 140.175 68.094 142.69 68.094 145.791V153.279C68.094 156.381 71.237 158.895 75.114 158.895C78.991 158.895 82.134 156.381 82.134 153.279V145.791Z" fill="black"/>
<path d="M81.354 146.415C83.5079 146.415 85.254 145.018 85.254 143.295C85.254 141.572 83.5079 140.175 81.354 140.175C79.2001 140.175 77.454 141.572 77.454 143.295C77.454 145.018 79.2001 146.415 81.354 146.415Z" fill="black"/>
<path d="M159.354 146.415C161.508 146.415 163.254 145.018 163.254 143.295C163.254 141.572 161.508 140.175 159.354 140.175C157.2 140.175 155.454 141.572 155.454 143.295C155.454 145.018 157.2 146.415 159.354 146.415Z" fill="black"/>
<path d="M269.584 110.61C268.888 109.508 267.884 108.549 266.651 107.806C265.417 107.064 263.987 106.559 262.47 106.33C261.138 106.098 259.77 106.035 258.414 106.142V109.886C258.804 109.886 259.194 109.886 259.584 109.886C260.213 109.886 260.84 109.936 261.456 110.036C262.284 110.117 263.073 110.361 263.754 110.746C264.435 111.132 264.986 111.646 265.357 112.244C265.728 112.841 265.908 113.503 265.88 114.17C265.853 114.836 265.619 115.487 265.2 116.064C264.158 117.667 262.471 118.943 260.411 119.683C259.795 119.922 259.153 120.114 258.492 120.257C256.975 120.631 255.364 120.687 253.812 120.42C253.002 120.302 252.235 120.038 251.57 119.649C250.906 119.26 250.36 118.755 249.974 118.173C249.879 118.022 249.805 117.863 249.756 117.699H244.92C245.046 118.431 245.315 119.142 245.716 119.808C246.411 120.91 247.415 121.87 248.649 122.612C249.882 123.354 251.313 123.859 252.829 124.089C253.141 124.089 253.453 124.188 253.765 124.213C254.411 124.288 255.063 124.326 255.715 124.326C256.631 124.323 257.545 124.252 258.445 124.114C259.816 123.905 261.147 123.557 262.408 123.078C265.399 121.957 267.841 120.074 269.35 117.724C270.07 116.632 270.466 115.423 270.506 114.189C270.547 112.955 270.231 111.73 269.584 110.61Z" fill="black"/>
<path opacity="0.6" d="M173.394 165.135H164.034C161.88 165.135 160.134 166.532 160.134 168.255C160.134 169.979 161.88 171.375 164.034 171.375H173.394C175.548 171.375 177.294 169.979 177.294 168.255C177.294 166.532 175.548 165.135 173.394 165.135Z" fill="black"/>
<path opacity="0.6" d="M71.214 167.007C71.2161 167.418 71.1166 167.824 70.9213 168.203C70.7261 168.583 70.4389 168.927 70.0763 169.217C69.7138 169.507 69.283 169.737 68.8089 169.893C68.3348 170.049 67.8267 170.129 67.314 170.127H63.414V163.887H67.314C68.3483 163.887 69.3403 164.216 70.0717 164.801C70.8031 165.386 71.214 166.18 71.214 167.007Z" fill="black"/>
<path d="M101.634 106.479C102.926 106.479 103.974 105.641 103.974 104.607C103.974 103.573 102.926 102.735 101.634 102.735C100.342 102.735 99.294 103.573 99.294 104.607C99.294 105.641 100.342 106.479 101.634 106.479Z" fill="black"/>
<path d="M126.594 108.975C127.886 108.975 128.934 108.137 128.934 107.103C128.934 106.069 127.886 105.231 126.594 105.231C125.302 105.231 124.254 106.069 124.254 107.103C124.254 108.137 125.302 108.975 126.594 108.975Z" fill="black"/>
<path d="M120.354 96.4953C121.646 96.4953 122.694 95.6572 122.694 94.6233C122.694 93.5895 121.646 92.7513 120.354 92.7513C119.062 92.7513 118.014 93.5895 118.014 94.6233C118.014 95.6572 119.062 96.4953 120.354 96.4953Z" fill="black"/>
<path d="M277.134 210.063C274.014 216.665 273.234 215.604 266.214 227.535C265.886 228.097 265.574 228.621 265.294 229.12C262.267 234.362 261.222 236.82 257.494 244.246C256.136 247.017 254.374 250.486 252.112 254.991C244.312 270.329 242.939 272.002 239.632 279.951C237.03 285.648 234.945 291.487 233.392 297.423C233.392 297.636 233.298 297.848 233.236 298.047C232.346 301.866 231.972 304.737 231.566 307.432C231.364 308.955 231.145 310.44 230.849 312H211.162C211.302 311.301 211.458 310.602 211.614 309.903C214.36 297.972 208.494 272.463 208.494 272.463C203.986 252.832 207.605 236.271 210.054 225.039C211.008 220.741 212.231 216.484 213.72 212.285C215.183 208.044 216.96 203.877 219.04 199.805C222.321 193.218 226.669 187.004 231.972 181.322C235.52 177.324 239.571 173.627 244.062 170.29C248.742 167.07 253.984 164.861 260.052 165.098C269.256 165.46 276.76 171.338 280.332 176.33C287.914 187.2 281.783 200.179 277.134 210.063Z" fill="black"/>
<path d="M247.213 312H213.486C215.041 310.965 216.762 310.1 218.603 309.429H218.759C219.532 309.142 220.323 308.888 221.13 308.668C223.522 308.013 226.015 307.622 228.54 307.507C229.133 307.507 229.726 307.507 230.334 307.507H231.629C234.649 307.606 237.63 308.09 240.458 308.942C242.901 309.664 245.182 310.697 247.213 312Z" fill="black"/>
</g>
<path d="M282.36 273.462V299.096C282.373 303.683 280.697 308.171 277.54 312H45.3804C42.2233 308.171 40.5467 303.683 40.56 299.096V273.462C40.4941 256.702 47.0094 240.349 59.1864 226.712C67.3978 217.481 78.0503 209.812 90.3864 204.248C92.3208 203.374 94.3176 202.55 96.3456 201.752C108.737 197.093 122.262 194.681 135.954 194.688H186.966C192.654 194.684 198.331 195.102 203.923 195.936C208.084 196.535 212.187 197.369 216.2 198.432H216.403C217.714 198.769 218.993 199.143 220.256 199.53L220.943 199.755C222.971 200.379 224.952 201.078 226.902 201.814C240.818 207.156 252.93 215.091 262.22 224.952C263.468 226.275 264.685 227.635 265.824 229.033C266.963 230.431 268.304 232.153 269.443 233.775C277.973 245.886 282.424 259.561 282.36 273.462Z" fill="#68997C"/>
<path opacity="0.07" d="M261.565 225.039C259.537 228.783 258.118 232.053 254.186 239.928C253.157 242 251.94 244.396 250.505 247.216C242.705 262.554 241.332 264.239 238.025 272.176C235.416 277.871 233.331 283.711 231.785 289.648C230.864 293.48 230.428 296.363 230.069 299.046C229.71 301.729 229.336 304.35 228.509 307.457C228.15 308.843 227.698 310.328 227.12 312H207.776C207.948 311.289 208.151 310.502 208.354 309.616C208.931 307.12 209.336 304.624 209.914 302.128C212.644 290.197 206.794 264.688 206.794 264.688C202.285 245.057 205.904 228.496 208.354 217.264C208.822 215.093 209.352 213.009 209.914 211.024C211.081 206.806 212.529 202.64 214.25 198.544C215.592 198.881 216.918 199.256 218.228 199.643L218.93 199.867C221.021 200.491 223.064 201.19 225.077 201.926C239.364 207.2 251.872 215.124 261.565 225.039Z" fill="black"/>
<path opacity="0.58" d="M232.44 147.888V177.565C232.444 178.57 232.376 179.574 232.237 180.573C229.645 185.129 225.476 188.996 220.223 191.716C214.971 194.437 208.854 195.897 202.597 195.924H202.316C207.905 196.767 213.383 198.025 218.681 199.68C213.146 202.942 206.445 204.692 199.571 204.672H109.403C104.247 204.675 99.1665 203.677 94.5984 201.764C101.802 199.047 109.416 197.088 117.25 195.936H112.429C105.688 195.894 99.126 194.195 93.6318 191.07C88.1376 187.944 83.9768 183.544 81.7128 178.464C80.2849 175.38 79.5559 172.118 79.56 168.829V139.152C79.5521 134.662 80.1219 130.183 81.2604 125.786C92.196 101.175 120.869 83.616 154.44 83.616C164.739 83.6268 174.929 85.299 184.402 88.5326C193.874 91.7662 202.435 96.4949 209.57 102.436C224.302 114.626 232.507 130.933 232.44 147.888Z" fill="#5D896F"/>
<path d="M285.557 80.6298L286.15 81.1765L273.484 89.9693C272.655 90.5442 271.576 90.8323 270.482 90.7704C269.389 90.7084 268.37 90.3015 267.652 89.639L267.059 89.0923L279.725 80.2994C280.553 79.7246 281.633 79.4364 282.726 79.4984C283.82 79.5603 284.838 79.9673 285.557 80.6298Z" fill="#5D896F"/>
<path d="M272.236 90.4176H270.878V78.6864C270.878 77.3624 271.536 76.0927 272.706 75.1565C273.876 74.2203 275.463 73.6944 277.118 73.6944H278.476V85.4256C278.476 86.0812 278.314 86.7303 278.001 87.336C277.687 87.9416 277.227 88.4919 276.648 88.9555C276.068 89.419 275.381 89.7867 274.624 90.0376C273.866 90.2885 273.055 90.4176 272.236 90.4176Z" fill="#5D896F"/>
<path d="M39.9101 85.7425L39.7874 85.8557C39.0688 86.5181 38.0507 86.9251 36.957 86.9871C35.8634 87.049 34.7837 86.7608 33.9556 86.186L23.3515 78.8245L23.5048 78.6831C24.2234 78.0207 25.2415 77.6137 26.3352 77.5517C27.4289 77.4898 28.5085 77.7779 29.3366 78.3528L39.9408 85.7143L39.9101 85.7425Z" fill="#5D896F"/>
<path d="M29.9988 72.384H30.3576C32.0125 72.384 33.5997 72.9099 34.7699 73.8461C35.9402 74.7823 36.5976 76.052 36.5976 77.376V86.8982H36.2388C34.5838 86.8982 32.9967 86.3723 31.8264 85.4361C30.6562 84.4999 29.9988 83.2302 29.9988 81.9062V72.384Z" fill="#5D896F"/>
<path d="M38.5476 82.9421H41.418C52.8181 82.9421 63.7522 86.5616 71.8191 93.0058C79.886 99.4499 84.4263 108.192 84.4428 117.312V152.605C84.4428 154.068 83.7163 155.471 82.4232 156.506C81.1301 157.54 79.3763 158.122 77.5476 158.122H74.6772C63.2771 158.122 52.343 154.502 44.2761 148.058C36.2092 141.614 31.6689 132.872 31.6524 123.752V88.4582C31.6524 87.7338 31.8308 87.0165 32.1773 86.3473C32.5238 85.678 33.0317 85.0699 33.672 84.5577C34.3122 84.0455 35.0724 83.6392 35.9089 83.362C36.7455 83.0848 37.6421 82.9421 38.5476 82.9421Z" fill="#68997C"/>
<path d="M38.844 100.102H40.8876C50.3141 100.109 59.3522 103.107 66.0178 108.44C72.6834 113.772 76.4317 121.003 76.44 128.544V159.132H74.4276C64.9956 159.132 55.9495 156.137 49.2772 150.804C42.6049 145.47 38.8523 138.236 38.844 130.691V100.102Z" fill="#5D896F"/>
<path d="M239.522 140.35V171.737C239.522 176.034 238.323 180.276 236.012 184.155C233.079 189.016 228.491 193.116 222.777 195.986C217.062 198.856 210.452 200.378 203.705 200.379H105.425C95.9088 200.379 86.7826 197.355 80.0538 191.972C73.325 186.589 69.5448 179.288 69.5448 171.675V140.35C69.5336 135.602 70.156 130.866 71.4012 126.223C75.7821 109.803 87.6034 95.2614 104.588 85.399C121.572 75.5366 142.518 71.0513 163.389 72.8072C184.261 74.5631 203.582 82.436 217.63 94.9091C231.679 107.382 239.46 123.573 239.476 140.363L239.522 140.35Z" fill="#68997C"/>
<path d="M232.799 160.805H229.928C229.022 160.806 228.123 160.665 227.285 160.388C226.447 160.112 225.685 159.706 225.043 159.194C224.401 158.681 223.891 158.073 223.544 157.402C223.196 156.732 223.018 156.014 223.018 155.289V119.995C223.018 115.475 224.13 110.999 226.293 106.823C228.455 102.647 231.624 98.8529 235.619 95.6567C239.615 92.4605 244.358 89.9252 249.578 88.1954C254.798 86.4657 260.392 85.5754 266.042 85.5754H268.913C270.742 85.5754 272.495 86.1565 273.788 87.191C275.082 88.2255 275.808 89.6285 275.808 91.0915V126.397C275.804 135.522 271.271 144.272 263.206 150.723C255.141 157.175 244.204 160.801 232.799 160.805Z" fill="#68997C"/>
<path d="M235.279 158.746H233.236V128.157C233.236 120.607 236.985 113.367 243.658 108.028C250.331 102.689 259.382 99.6902 268.819 99.6902H270.863V130.279C270.863 137.829 267.114 145.069 260.441 150.408C253.767 155.746 244.717 158.746 235.279 158.746Z" fill="#5D896F"/>
<path d="M139.511 151.57H97.0164C90.9854 151.57 86.0964 155.481 86.0964 160.306V161.316C86.0964 166.141 90.9854 170.052 97.0164 170.052H139.511C145.542 170.052 150.431 166.141 150.431 161.316V160.306C150.431 155.481 145.542 151.57 139.511 151.57Z" fill="#5D896F"/>
<path d="M94.3488 162.614V165.61C94.3488 167.333 96.0949 168.73 98.2488 168.73H98.7012C100.855 168.73 102.601 167.333 102.601 165.61V162.614C102.601 160.891 100.855 159.494 98.7012 159.494H98.2488C96.0949 159.494 94.3488 160.891 94.3488 162.614Z" fill="#486855"/>
<path d="M128.996 162.614V165.61C128.996 167.333 130.742 168.73 132.896 168.73H133.349C135.503 168.73 137.249 167.333 137.249 165.61V162.614C137.249 160.891 135.503 159.494 133.349 159.494H132.896C130.742 159.494 128.996 160.891 128.996 162.614Z" fill="#486855"/>
<path d="M172.957 181.933C172.094 186.07 170.026 189.986 166.92 193.365C164.684 195.806 161.732 197.769 158.324 199.081C156.005 199.949 153.475 200.401 150.914 200.404H105.425C98.1612 200.399 91.0704 198.631 85.09 195.333C79.1096 192.035 74.5212 187.362 71.9316 181.933H172.957Z" fill="#5D896F"/>
<path d="M143.832 171.375H144.55C147.86 171.375 151.034 172.427 153.374 174.3C155.715 176.172 157.03 178.711 157.03 181.359V181.933H143.832V171.375Z" fill="#D9E2DD"/>
<path d="M92.6328 181.921H79.4352V181.347C79.4352 178.699 80.7501 176.159 83.0905 174.287C85.431 172.415 88.6053 171.363 91.9152 171.363H92.6328V181.921Z" fill="#D9E2DD"/>
<path d="M164.861 130.453H164.05C160.173 130.453 157.03 132.968 157.03 136.069V144.631C157.03 147.732 160.173 150.247 164.05 150.247H164.861C168.738 150.247 171.881 147.732 171.881 144.631V136.069C171.881 132.968 168.738 130.453 164.861 130.453Z" fill="#0D0F0E"/>
<path d="M82.3836 130.453H81.5724C77.6954 130.453 74.5524 132.968 74.5524 136.069V144.631C74.5524 147.732 77.6954 150.247 81.5724 150.247H82.3836C86.2606 150.247 89.4036 147.732 89.4036 144.631V136.069C89.4036 132.968 86.2606 130.453 82.3836 130.453Z" fill="#0D0F0E"/>
<path d="M88.5612 137.055C90.8357 137.055 92.6796 135.58 92.6796 133.761C92.6796 131.941 90.8357 130.466 88.5612 130.466C86.2867 130.466 84.4428 131.941 84.4428 133.761C84.4428 135.58 86.2867 137.055 88.5612 137.055Z" fill="#D0D6D3"/>
<path d="M171.054 137.055C173.329 137.055 175.172 135.58 175.172 133.761C175.172 131.941 173.329 130.466 171.054 130.466C168.779 130.466 166.936 131.941 166.936 133.761C166.936 135.58 168.779 137.055 171.054 137.055Z" fill="#D0D6D3"/>
<path d="M287.633 99.191C286.895 98.0242 285.832 97.0087 284.526 96.2231C283.219 95.4376 281.704 94.903 280.098 94.6608C278.695 94.4186 277.253 94.3513 275.824 94.4611V98.4298C276.233 98.3899 276.644 98.3691 277.056 98.3674C277.721 98.3713 278.385 98.4256 279.037 98.5296C279.92 98.6182 280.762 98.8828 281.484 99.2989C282.206 99.7151 282.786 100.27 283.171 100.912C283.556 101.554 283.734 102.263 283.687 102.974C283.641 103.685 283.372 104.375 282.906 104.982C281.76 106.648 279.993 107.987 277.851 108.812C275.709 109.637 273.299 109.908 270.956 109.587C270.075 109.474 269.239 109.2 268.511 108.786C267.783 108.373 267.184 107.831 266.76 107.203C266.662 107.043 266.583 106.876 266.526 106.704H261.472C261.599 107.476 261.884 108.227 262.314 108.925C263.053 110.096 264.12 111.115 265.433 111.901C266.745 112.687 268.267 113.219 269.88 113.456C270.88 113.627 271.9 113.711 272.922 113.705C275.376 113.691 277.796 113.239 280.004 112.382C283.171 111.204 285.756 109.214 287.352 106.729C288.121 105.575 288.546 104.294 288.595 102.986C288.643 101.679 288.314 100.38 287.633 99.191Z" fill="#C6AD34"/>
<path opacity="0.6" d="M186.124 156.849H175.781C173.627 156.849 171.881 158.245 171.881 159.969V160.331C171.881 162.054 173.627 163.451 175.781 163.451H186.124C188.278 163.451 190.024 162.054 190.024 160.331V159.969C190.024 158.245 188.278 156.849 186.124 156.849Z" fill="#C68DC4"/>
<path opacity="0.6" d="M77.844 158.833C77.8416 159.707 77.4102 160.545 76.6428 161.167C76.2599 161.473 75.8049 161.716 75.3043 161.88C74.8036 162.045 74.2671 162.129 73.7256 162.128H69.5916V155.526H73.7256C74.8193 155.529 75.8668 155.879 76.6387 156.499C77.4106 157.119 77.844 157.958 77.844 158.833Z" fill="#C68DC4"/>
<path d="M110.011 94.823C111.381 94.823 112.492 93.9346 112.492 92.8387C112.492 91.7428 111.381 90.8544 110.011 90.8544C108.641 90.8544 107.531 91.7428 107.531 92.8387C107.531 93.9346 108.641 94.823 110.011 94.823Z" fill="#5D896F"/>
<path d="M136.406 97.4688C137.776 97.4688 138.887 96.5804 138.887 95.4845C138.887 94.3886 137.776 93.5002 136.406 93.5002C135.037 93.5002 133.926 94.3886 133.926 95.4845C133.926 96.5804 135.037 97.4688 136.406 97.4688Z" fill="#5D896F"/>
<path d="M129.808 84.265C131.177 84.265 132.288 83.3766 132.288 82.2807C132.288 81.1847 131.177 80.2963 129.808 80.2963C128.438 80.2963 127.327 81.1847 127.327 82.2807C127.327 83.3766 128.438 84.265 129.808 84.265Z" fill="#5D896F"/>
<path d="M288.6 199.68C285.48 206.282 284.7 205.221 277.68 217.152C273.905 223.554 273 225.726 269.022 233.863C267.665 236.633 265.902 240.103 263.64 244.608C262.704 246.443 261.862 248.09 261.082 249.6C255.466 260.47 254.077 262.604 251.16 269.568C248.559 275.265 246.473 281.104 244.92 287.04C243.922 291.171 243.516 294.204 243.095 297.024C242.643 301.017 241.761 304.971 240.458 308.843C240.458 309.042 240.318 309.267 240.24 309.479C239.944 310.34 239.647 311.176 239.351 311.975H220.272C220.506 311.064 220.787 309.978 221.13 308.593C221.255 308.094 221.38 307.557 221.52 306.983C221.77 305.922 221.972 304.861 222.191 303.801C222.472 302.365 222.752 300.918 223.08 299.495C223.725 296.127 223.955 292.716 223.766 289.311C223.25 280.177 221.979 271.08 219.96 262.08C215.561 242.911 218.899 226.674 221.333 215.467L221.52 214.656C222.448 210.359 223.645 206.102 225.108 201.901C231.208 184.429 239.866 174.658 243.36 170.976C243.563 170.764 243.766 170.539 243.984 170.327C251.066 162.839 259.771 154.303 271.44 154.752C280.644 155.114 288.148 160.992 291.72 165.984C299.38 176.767 293.28 189.796 288.6 199.68Z" fill="#594527"/>
<path d="M115.44 245.856C116.302 245.856 117 242.504 117 238.368C117 234.232 116.302 230.88 115.44 230.88C114.578 230.88 113.88 234.232 113.88 238.368C113.88 242.504 114.578 245.856 115.44 245.856Z" fill="#5D896F"/>
<path d="M137.28 232.128C138.142 232.128 138.84 228.775 138.84 224.64C138.84 220.504 138.142 217.152 137.28 217.152C136.418 217.152 135.72 220.504 135.72 224.64C135.72 228.775 136.418 232.128 137.28 232.128Z" fill="#5D896F"/>
<path d="M159.12 245.856C159.982 245.856 160.68 242.504 160.68 238.368C160.68 234.232 159.982 230.88 159.12 230.88C158.258 230.88 157.56 234.232 157.56 238.368C157.56 242.504 158.258 245.856 159.12 245.856Z" fill="#5D896F"/>
<path d="M265.2 312H218.4C218.4 311.119 218.521 310.24 218.759 309.379C219.336 307.336 220.512 305.433 222.191 303.826C224.307 301.782 226.974 300.148 229.991 299.046C231.039 298.657 232.118 298.324 233.22 298.047C235.998 297.357 238.891 297.012 241.8 297.024H243.095C255.419 297.473 265.2 304 265.2 312Z" fill="#597F69"/>
</g>
<defs>
<clipPath id="clip0_1305_2">
<rect width="312" height="312" fill="white"/>
</clipPath>
</defs>
</svg>
