<svg width="312" height="312" viewBox="0 0 312 312" fill="none" xmlns="http://www.w3.org/2000/svg">
<path d="M292.391 4.62112H19.6092C8.77934 4.62112 0 11.5406 0 20.0761V296.545C0 305.081 8.77934 312 19.6092 312H292.391C303.221 312 312 305.081 312 296.545V20.0761C312 11.5406 303.221 4.62112 292.391 4.62112Z" fill="#8D4893"/>
<g opacity="0.33">
<path d="M235.669 182.151V261.037C235.671 262.724 235.251 264.396 234.433 265.955C233.614 267.515 232.413 268.932 230.899 270.125C229.385 271.319 227.587 272.265 225.608 272.91C223.629 273.555 221.509 273.887 219.367 273.885H74.8801C70.5551 273.885 66.407 272.532 63.3473 270.123C60.2876 267.713 58.5666 264.445 58.5625 261.037V182.151C58.5625 181.02 58.5625 179.889 58.7029 178.77C58.7029 178.143 58.8121 177.54 58.8745 176.901C58.8745 176.471 58.9837 176.028 59.0461 175.671C59.1553 174.848 59.2957 174.024 59.4673 173.212C59.4673 172.794 59.6389 172.376 59.7325 171.983C59.8261 171.589 59.8573 171.442 59.9353 171.171C60.0133 170.901 60.1225 170.372 60.2473 169.942C60.2648 169.787 60.3068 169.634 60.3721 169.487C60.3721 169.143 60.5593 168.798 60.6685 168.454C60.8401 167.852 61.0429 167.225 61.2457 166.684C61.4485 166.143 61.6825 165.454 61.9165 164.864C62.1661 164.233 62.4313 163.606 62.7121 162.983C62.9461 162.466 63.1801 161.962 63.4297 161.458C63.4297 161.335 63.5389 161.225 63.5857 161.114L64.2877 159.749C64.4749 159.405 64.6621 159.061 64.8649 158.716C65.0677 158.372 65.3329 157.88 65.5825 157.487C66.2845 156.257 67.0489 155.126 67.8601 153.983C68.2657 153.405 68.6869 152.839 69.1237 152.274C69.5605 151.708 69.9973 151.155 70.4497 150.602L71.8381 148.979C72.4153 148.327 73.0081 147.749 73.6321 147.048C73.8661 146.802 74.0845 146.556 74.3341 146.323L74.4901 146.151L75.3325 145.327C75.6757 144.995 76.0345 144.675 76.3777 144.356C76.7209 144.036 77.3605 143.458 77.9377 143.028C79.1857 141.946 80.4961 140.913 81.8377 139.917C82.7737 139.216 83.7409 138.528 84.7237 137.864L86.5489 136.634L88.1089 135.688L89.5597 134.851C90.2149 134.483 90.8701 134.114 91.5409 133.769L92.2429 133.388L93.0073 133.007C93.7873 132.614 94.5673 132.245 95.3473 131.876C96.1273 131.507 96.9073 131.2 97.6093 130.88C98.3113 130.56 99.1693 130.241 99.9181 129.946C100.667 129.651 101.478 129.343 102.258 129.073C103.038 128.802 103.818 128.519 104.66 128.261C105.503 128.003 106.018 127.831 106.72 127.622L107.578 127.376L109.06 126.97L110.12 126.7L111.868 126.282C111.966 126.269 112.066 126.269 112.164 126.282L114.613 125.753L116.673 125.372C116.734 125.361 116.798 125.361 116.86 125.372C117.557 125.249 118.259 125.138 118.966 125.04C119.574 124.942 120.183 124.855 120.807 124.782L121.789 124.671C122.226 124.605 122.663 124.556 123.1 124.524L124.02 124.437L125.362 124.314C125.97 124.314 126.594 124.228 127.218 124.204H127.577C128.388 124.204 129.137 124.13 130.026 124.105C130.915 124.081 131.727 124.105 132.569 124.105H161.71C164.299 124.105 166.842 124.216 169.369 124.413C169.993 124.413 170.633 124.524 171.257 124.597L171.928 124.659C172.625 124.733 173.326 124.819 174.034 124.917H174.377L175.516 125.077L177.403 125.384C178.23 125.519 179.057 125.679 179.868 125.839C179.924 125.826 179.984 125.826 180.04 125.839C180.757 125.974 181.459 126.134 182.161 126.294H182.38L182.692 126.368L184.548 126.823C185.157 126.97 185.781 127.142 186.389 127.315C186.997 127.487 187.403 127.597 187.949 127.757C191.901 128.933 195.717 130.377 199.353 132.073L200.912 132.823L201.349 133.044L203.565 134.2L204.282 134.606C205.14 135.073 205.998 135.577 206.84 136.081L207.465 136.474C207.823 136.683 208.167 136.905 208.51 137.138L209.586 137.851C209.836 138.001 210.076 138.161 210.304 138.331C210.834 138.7 211.365 139.069 211.864 139.45C212.363 139.831 212.956 140.249 213.424 140.679C213.892 141.11 214.438 141.479 214.984 141.909L216.435 143.138L216.544 143.237C217.043 143.667 217.526 144.11 218.026 144.565L218.447 144.97C218.806 145.302 219.149 145.634 219.492 145.979L219.773 146.249L220.88 147.392C221.193 147.712 221.504 148.044 221.801 148.376C222.097 148.708 222.066 148.671 222.191 148.831C222.263 148.89 222.326 148.956 222.378 149.028L223.143 149.913C223.538 150.356 223.912 150.811 224.266 151.278C224.515 151.573 224.749 151.88 224.968 152.175C225.002 152.203 225.029 152.237 225.046 152.274C225.202 152.47 225.358 152.667 225.498 152.876C226.309 153.946 227.058 155.052 227.791 156.184C228.166 156.761 228.525 157.413 228.868 157.954C229.211 158.495 229.351 158.79 229.585 159.184L230.007 159.983C230.007 160.093 230.131 160.204 230.178 160.315C230.475 160.868 230.74 161.421 231.005 161.975L231.177 162.331L231.504 163.069C231.676 163.462 231.847 163.843 232.003 164.237C232.159 164.63 232.269 164.876 232.393 165.208C232.643 165.835 232.877 166.438 233.08 167.102C233.236 167.557 233.392 168.011 233.532 168.479C233.829 169.401 234.078 170.323 234.297 171.257C234.297 171.479 234.406 171.688 234.452 171.909C234.562 172.352 234.655 172.807 234.733 173.261C234.742 173.331 234.742 173.401 234.733 173.471C235.097 175.312 235.341 177.167 235.467 179.028C235.56 179.962 235.669 181.057 235.669 182.151Z" fill="black"/>
<path d="M250.692 312H45.1309C49.4614 297.565 55.4882 283.48 63.1333 269.926C71.3253 254.849 81.5389 240.505 93.6001 227.139C96.0337 224.508 98.5141 222 101.01 219.663C114.504 206.999 128.669 198.872 141.57 198.872H152.209C164.798 198.872 178.729 206.852 192.286 219.344C194.688 221.557 197.064 223.901 199.415 226.377C209.4 237.083 218.174 248.458 225.638 260.373C227.604 263.446 229.492 266.553 231.301 269.692C234.421 275.201 237.463 280.758 240.146 286.328C244.284 294.719 247.805 303.29 250.692 312Z" fill="black"/>
<path d="M272.563 149.433C272.563 156.306 257.447 162.528 233.111 166.966C228.977 167.729 224.562 168.43 219.898 169.081C205.729 170.992 191.439 172.297 177.091 172.991C166.171 173.557 154.596 173.864 142.771 173.864C133.271 173.864 124.051 173.667 115.081 173.311C99.7933 172.684 85.5193 171.552 72.7585 170.016C68.5933 169.511 64.5841 168.958 60.7621 168.368C39.9361 165.184 24.4921 160.794 17.3317 155.766C14.4457 153.749 12.9169 151.622 12.9169 149.433C12.9169 137.765 56.4565 128.003 114.644 125.593C123.692 125.212 133.099 125.015 142.724 125.015C156.562 125.015 169.884 125.421 182.395 126.171C233.672 129.269 271.081 138.183 272.532 148.794C272.559 149.007 272.569 149.22 272.563 149.433Z" fill="black"/>
<path d="M213.236 135.011C213.412 135.315 213.487 135.649 213.456 135.982C213.425 136.315 213.288 136.636 213.058 136.916C212.828 137.197 212.513 137.427 212.14 137.586C211.768 137.745 211.351 137.828 210.928 137.827L143.302 137.704L75.66 137.581C75.2344 137.588 74.8134 137.511 74.4365 137.355C74.0596 137.199 73.7392 136.97 73.5052 136.69C73.2713 136.41 73.1316 136.087 73.0991 135.753C73.0667 135.418 73.1427 135.083 73.32 134.778L107.64 76.6339L141.336 19.5843C141.539 19.2395 141.862 18.9475 142.269 18.7429C142.675 18.5383 143.147 18.4296 143.629 18.4296C144.111 18.4296 144.583 18.5383 144.99 18.7429C145.396 18.9475 145.72 19.2395 145.922 19.5843L179.26 76.7445L213.236 135.011Z" fill="black"/>
<path d="M265.867 202.223C266.853 202.468 267.675 203.013 268.152 203.736C268.629 204.46 268.722 205.303 268.41 206.08L243.272 268.766L235.834 266.913L260.973 204.227C261.284 203.45 261.975 202.802 262.893 202.426C263.811 202.05 264.88 201.977 265.867 202.223Z" fill="black"/>
<path d="M248.474 265.643L243.01 261.644C237.258 257.434 228.266 257.697 222.925 262.23L221.036 263.833C215.695 268.366 216.028 275.454 221.779 279.663L227.243 283.662C232.995 287.872 241.987 287.609 247.328 283.076L249.217 281.472C254.558 276.939 254.225 269.852 248.474 265.643Z" fill="black"/>
</g>
<path d="M249.35 163.708V242.594C249.352 244.282 248.932 245.953 248.114 247.513C247.295 249.072 246.094 250.489 244.58 251.683C243.066 252.876 241.268 253.822 239.289 254.468C237.311 255.113 235.19 255.444 233.048 255.442H88.5768C84.2518 255.442 80.1037 254.089 77.044 251.68C73.9843 249.271 72.2633 246.003 72.2592 242.594V163.708C72.2592 162.577 72.2592 161.446 72.3996 160.327C72.3996 159.7 72.5088 159.097 72.5712 158.458C72.5712 158.028 72.6804 157.585 72.7428 157.229C72.852 156.405 72.9924 155.581 73.164 154.77C73.242 154.352 73.3356 153.933 73.4292 153.54C73.5228 153.147 73.554 152.999 73.632 152.729C73.71 152.458 73.8192 151.929 73.944 151.499C73.9615 151.344 74.0034 151.191 74.0688 151.044C74.1468 150.7 74.256 150.356 74.3652 150.011C74.5368 149.409 74.7396 148.782 74.9424 148.241C75.1452 147.7 75.3792 147.011 75.6132 146.421C75.8628 145.798 76.128 145.171 76.4088 144.54C76.6428 144.024 76.8768 143.52 77.1264 143.015C77.1264 142.892 77.2356 142.782 77.2824 142.671L77.9844 141.306C78.1716 140.962 78.3588 140.618 78.5616 140.274C78.7644 139.929 79.0296 139.438 79.2792 139.044C79.9812 137.815 80.7456 136.683 81.5568 135.54C81.9624 134.962 82.3836 134.396 82.8204 133.831C83.2572 133.265 83.694 132.712 84.1464 132.159L85.5348 130.536C86.112 129.884 86.7048 129.306 87.3288 128.605C87.5628 128.36 87.7812 128.114 88.0308 127.88L88.1868 127.708L89.0292 126.884C89.3724 126.552 89.7312 126.233 90.0744 125.913C90.4176 125.593 91.0572 125.015 91.6344 124.585C92.8824 123.503 94.1928 122.47 95.5344 121.474C96.4704 120.773 97.4376 120.085 98.4204 119.421L100.246 118.191L101.806 117.245L103.256 116.409C103.912 116.04 104.567 115.671 105.238 115.327L105.94 114.946L106.704 114.564C107.484 114.171 108.264 113.802 109.044 113.433C109.824 113.064 110.604 112.757 111.306 112.437C112.008 112.118 112.866 111.798 113.615 111.503C114.364 111.208 115.175 110.9 115.955 110.63C116.735 110.359 117.515 110.077 118.357 109.818C119.2 109.56 119.714 109.388 120.416 109.179L121.274 108.933L122.834 108.527L123.895 108.257L125.642 107.839C125.741 107.826 125.841 107.826 125.939 107.839L128.388 107.31L130.447 106.929C130.509 106.918 130.573 106.918 130.634 106.929C131.331 106.806 132.033 106.696 132.74 106.597C133.349 106.499 133.957 106.413 134.581 106.339L135.564 106.228C136.001 106.163 136.438 106.114 136.874 106.081L137.795 105.995L139.136 105.872C139.745 105.872 140.369 105.786 140.993 105.761H141.352C142.163 105.761 142.912 105.687 143.801 105.663C144.69 105.638 145.501 105.663 146.344 105.663H175.484C178.074 105.663 180.617 105.773 183.144 105.97C183.768 105.97 184.408 106.081 185.032 106.155L185.702 106.216C186.41 106.29 187.112 106.376 187.808 106.474H188.152L189.29 106.634L191.178 106.941C192.005 107.077 192.832 107.236 193.643 107.396C193.699 107.384 193.758 107.384 193.814 107.396C194.532 107.532 195.234 107.691 195.936 107.851H196.154L196.466 107.925L198.323 108.38C198.931 108.527 199.555 108.7 200.164 108.872C200.772 109.044 201.178 109.155 201.724 109.314C205.676 110.49 209.491 111.934 213.127 113.63L214.687 114.38L215.124 114.601L217.339 115.757L218.057 116.163C218.915 116.63 219.773 117.134 220.615 117.638L221.239 118.032C221.598 118.241 221.941 118.462 222.284 118.696L223.361 119.409C223.611 119.558 223.85 119.718 224.078 119.888C224.609 120.257 225.139 120.626 225.638 121.007C226.138 121.388 226.73 121.806 227.198 122.237L228.758 123.466L230.209 124.696L230.318 124.794C230.818 125.224 231.301 125.667 231.878 126.122L232.3 126.528C232.658 126.86 233.002 127.192 233.345 127.536L233.626 127.806L234.733 128.95C235.045 129.269 235.357 129.601 235.654 129.933C235.95 130.265 235.919 130.228 236.044 130.388C236.116 130.448 236.179 130.514 236.231 130.585L236.995 131.47C237.39 131.913 237.765 132.368 238.118 132.835C238.368 133.13 238.602 133.437 238.82 133.733C238.855 133.761 238.882 133.794 238.898 133.831C239.054 134.028 239.21 134.224 239.351 134.433C240.162 135.503 240.911 136.61 241.644 137.741C242.018 138.319 242.377 138.97 242.72 139.511C243.064 140.052 243.204 140.347 243.438 140.741L243.859 141.54C243.859 141.651 243.984 141.761 244.031 141.872C244.327 142.425 244.592 142.979 244.858 143.532L245.029 143.888L245.357 144.626C245.528 145.02 245.7 145.401 245.856 145.856C246.012 146.31 246.121 146.495 246.246 146.827C246.496 147.454 246.73 148.056 246.932 148.72C247.135 149.384 247.244 149.63 247.385 150.097C247.681 151.02 247.931 151.942 248.149 152.876C248.149 153.097 248.258 153.306 248.305 153.528C248.414 153.97 248.508 154.425 248.586 154.88C248.595 154.95 248.595 155.02 248.586 155.089C248.949 156.931 249.194 158.786 249.319 160.647C249.304 161.52 249.35 162.614 249.35 163.708Z" fill="#99314F"/>
<path d="M268.928 312H55.0369C58.3441 281.483 80.8237 237.295 107.344 208.721C109.777 206.09 112.258 203.581 114.754 201.245C128.248 188.581 142.412 180.454 155.314 180.454H165.953C178.542 180.454 192.473 188.434 206.029 200.926C208.432 203.139 210.808 205.483 213.158 207.958C240.24 236.323 263.983 280.733 268.928 312Z" fill="#3A3538"/>
<path opacity="0.28" d="M234.593 159.27V160.868C234.597 168.91 231.976 176.818 226.981 183.831C221.987 190.844 214.788 196.727 206.076 200.913C208.478 203.126 210.855 205.471 213.205 207.946C202.916 214.045 190.387 217.338 177.512 217.327H141.726C129.43 217.333 117.437 214.325 107.406 208.721C109.84 206.09 112.32 203.581 114.816 201.245C105.915 197.099 98.5402 191.196 93.4189 184.117C88.2975 177.038 85.607 169.029 85.6128 160.88V159.282C85.6016 149.957 89.1195 140.842 95.7166 133.102C102.314 125.362 111.69 119.348 122.647 115.831C128.788 114.195 135.228 113.364 141.71 113.372H177.497C186.485 113.359 195.36 114.953 203.455 118.032H203.596C212.993 122.07 220.833 128.033 226.289 135.291C231.744 142.549 234.613 150.833 234.593 159.27Z" fill="#0A0809"/>
<path d="M234.593 159.27V160.868C234.601 167.029 233.068 173.131 230.081 178.825C227.094 184.518 222.712 189.692 217.186 194.05C211.66 198.408 205.098 201.864 197.876 204.221C190.653 206.578 182.912 207.789 175.094 207.786H145.08C137.267 207.786 129.531 206.573 122.313 204.216C115.096 201.86 108.537 198.405 103.014 194.051C97.4901 189.696 93.109 184.526 90.1206 178.837C87.1322 173.148 85.5952 167.05 85.5972 160.893V159.294C85.5841 149.966 89.1029 140.847 95.7031 133.104C102.303 125.362 111.685 119.347 122.647 115.831C129.768 113.541 137.389 112.371 145.08 112.388H175.141C185.029 112.379 194.762 114.319 203.455 118.032H203.596C212.993 122.07 220.833 128.033 226.289 135.291C231.744 142.549 234.613 150.833 234.593 159.27Z" fill="#E8C4CF"/>
<path d="M163.254 134.827L160.54 136.474L133.442 152.311C131.882 153.22 130.322 154.081 128.684 154.868C120.36 158.929 111.018 161.52 101.302 162.462C91.5851 163.405 81.7248 162.676 72.3997 160.327C72.3997 159.7 72.5089 159.097 72.5713 158.458C72.5713 158.028 72.6805 157.585 72.7429 157.229C72.8521 156.405 72.9925 155.581 73.1641 154.77C73.2421 154.352 73.3357 153.934 73.4293 153.54C73.5229 153.147 73.5541 152.999 73.6321 152.729C73.7101 152.458 73.8193 151.929 73.9441 151.499C73.9616 151.344 74.0035 151.191 74.0689 151.044C74.1469 150.7 74.2561 150.356 74.3653 150.011C74.5369 149.409 74.7397 148.782 74.9425 148.241C75.1453 147.7 75.3793 147.011 75.6133 146.421C75.8629 145.798 76.1281 145.171 76.4089 144.54C76.6273 144.036 76.8613 143.52 77.1109 143.015C77.1109 142.905 77.2201 142.782 77.2825 142.671L77.9845 141.306C78.1717 140.962 78.3589 140.618 78.5617 140.274C78.7645 139.929 79.0297 139.438 79.2793 139.044C79.9813 137.815 80.7457 136.683 81.5569 135.54C81.9625 134.962 82.3837 134.397 82.8205 133.831C83.2573 133.265 83.6941 132.712 84.1465 132.159L85.5349 130.536L86.6425 129.306C87.0949 128.827 87.5473 128.347 88.0309 127.868C88.5145 127.388 88.6861 127.204 89.0293 126.872C89.3725 126.54 89.7313 126.22 90.0745 125.901C90.4177 125.581 91.0573 125.003 91.6345 124.573L92.9137 123.503C93.4909 123.023 94.0837 122.556 94.6921 122.089C94.9729 121.868 95.2381 121.659 95.5345 121.462C97.5128 119.977 99.5961 118.581 101.774 117.282L103.225 116.446C103.88 116.077 104.536 115.708 105.206 115.364C105.877 115.019 106.189 114.847 106.766 114.601C107.546 114.208 108.326 113.839 109.106 113.47C111.713 113.47 114.317 113.589 116.906 113.827C119.882 114.077 122.832 114.488 125.736 115.056C139.054 117.691 151.03 123.475 160.056 131.63C160.711 132.208 161.335 132.86 161.959 133.425C162.583 133.991 162.77 134.323 163.254 134.827Z" fill="#99314F"/>
<path d="M249.226 160.45C234.369 164.354 218.259 164.102 203.611 159.737C199.114 158.374 194.815 156.634 190.788 154.548C189.322 153.798 187.871 152.999 186.467 152.089L160.54 136.474L156.998 134.335C157.31 134.015 157.638 133.696 157.966 133.388C158.574 132.773 159.214 132.159 159.884 131.593C169.02 123.375 181.163 117.589 194.641 115.032C197.939 114.405 201.292 113.974 204.672 113.741C207.437 113.554 210.213 113.497 212.987 113.568L214.547 114.318L214.984 114.54L217.199 115.696L217.916 116.101C218.774 116.568 219.632 117.073 220.475 117.577L221.099 117.97C221.458 118.179 221.801 118.4 222.144 118.634L223.22 119.347C223.47 119.497 223.71 119.657 223.938 119.827C224.468 120.196 224.999 120.564 225.498 120.946C225.997 121.327 226.59 121.745 227.058 122.175L228.618 123.405L230.069 124.634L230.178 124.732C230.677 125.163 231.161 125.605 231.738 126.06L232.159 126.466C232.518 126.798 232.861 127.13 233.204 127.474L233.485 127.745L234.593 128.888C234.905 129.208 235.217 129.54 235.513 129.872C235.81 130.204 235.778 130.167 235.903 130.327C235.975 130.386 236.038 130.452 236.09 130.523L236.855 131.409C237.25 131.851 237.624 132.306 237.978 132.773C238.228 133.069 238.462 133.364 238.68 133.671C238.715 133.699 238.741 133.733 238.758 133.769C238.914 133.966 239.07 134.163 239.21 134.372C240.022 135.442 240.77 136.548 241.504 137.679C241.878 138.257 242.237 138.909 242.58 139.45C242.923 139.991 243.064 140.286 243.298 140.679L243.719 141.478C243.719 141.589 243.844 141.7 243.89 141.81C244.187 142.364 244.452 142.917 244.717 143.47L244.889 143.827L245.216 144.565C245.388 144.958 245.56 145.339 245.716 145.794C245.872 146.249 245.981 146.433 246.106 146.765C246.355 147.392 246.589 147.995 246.792 148.659C246.995 149.323 247.104 149.569 247.244 150.036C247.541 150.958 247.79 151.88 248.009 152.815C248.009 153.036 248.118 153.245 248.165 153.466C248.274 153.909 248.368 154.364 248.446 154.819C248.459 154.888 248.459 154.958 248.446 155.028C248.819 156.824 249.079 158.633 249.226 160.45Z" fill="#99314F"/>
<path d="M234.593 128.79V133.327H85.5503V130.401C91.6905 123.447 99.6747 117.628 108.95 113.347C120.249 108.134 133.111 105.396 146.203 105.417H175.344C188.575 105.402 201.568 108.197 212.955 113.507C221.369 117.435 228.72 122.628 234.593 128.79Z" fill="#47383E"/>
<path d="M202.519 162.614C202.933 162.479 203.303 162.272 203.601 162.008C203.898 161.744 204.115 161.429 204.235 161.089C204.391 160.241 203.518 159.552 202.675 158.852C201.761 158.179 200.705 157.638 199.555 157.253C198.185 156.652 196.647 156.326 195.078 156.306C193.634 156.244 192.214 156.622 191.116 157.364C189.758 158.384 189.103 160.216 189.914 160.88C190.726 161.544 191.958 160.733 194.688 160.954C195.846 161.052 196.978 161.293 198.042 161.667" fill="#5E1F37"/>
<path d="M115.627 162.085C115.362 161.987 114.067 161.483 113.896 160.561C113.724 159.638 114.629 159.036 115.456 158.323C116.375 157.659 117.43 157.123 118.576 156.737C119.942 156.126 121.482 155.796 123.053 155.778C124.496 155.722 125.912 156.1 127.015 156.835C128.357 157.856 129.012 159.688 128.216 160.364C127.421 161.04 126.157 160.216 123.443 160.364C122.284 160.46 121.152 160.701 120.089 161.077" fill="#5E1F37"/>
<path opacity="0.44" d="M246.792 148.524C246.948 148.979 247.104 149.433 247.244 149.901C247.541 150.823 247.79 151.745 248.009 152.679C248.009 152.901 248.118 153.11 248.165 153.331C248.274 153.774 248.368 154.229 248.446 154.683C244.078 155.446 239.413 156.134 234.515 156.774C225.046 158.003 214.672 159.011 203.611 159.737C190.195 160.622 175.765 161.102 160.758 161.102C145.158 161.102 130.166 160.585 116.314 159.626C105.394 158.876 95.0351 157.856 85.6595 156.602C81.2915 156.024 77.1263 155.372 73.1795 154.708C73.2575 154.29 73.3511 153.872 73.4447 153.479C73.5383 153.085 73.5695 152.938 73.6475 152.667C73.7255 152.397 73.8347 151.868 73.9595 151.438C73.9771 151.282 74.019 151.13 74.0843 150.983C74.1623 150.638 74.2715 150.294 74.3807 149.95C53.5547 146.765 38.1107 142.376 30.9503 137.347C30.9344 137.13 30.9344 136.913 30.9503 136.696C30.9503 126.86 61.9943 118.351 106.688 114.491C109.964 114.208 113.334 113.95 116.766 113.716C124.145 113.212 131.867 112.831 139.823 112.597C142.173 112.523 144.544 112.462 146.936 112.413C151.476 112.327 156.094 112.277 160.758 112.277C165.422 112.277 170.04 112.277 174.58 112.413L179.135 112.523H179.244C188.042 112.757 196.56 113.163 204.688 113.753C208.198 113.999 211.645 114.257 215.015 114.552C249.709 117.564 276.151 123.355 286.198 130.425C286.213 130.634 286.213 130.843 286.198 131.052C286.244 137.864 271.128 144.085 246.792 148.524Z" fill="#3A3738"/>
<path d="M286.244 130.991C286.244 137.864 271.128 144.085 246.792 148.524C242.658 149.286 238.243 149.987 233.579 150.638C219.41 152.549 205.12 153.854 190.772 154.548C179.852 155.114 168.277 155.421 156.374 155.421C146.874 155.421 137.654 155.224 128.684 154.868C113.396 154.241 99.1224 153.11 86.3616 151.573C82.1964 151.069 78.1872 150.515 74.3652 149.925C53.5392 146.741 38.0952 142.351 30.9348 137.323C28.08 135.306 26.52 133.179 26.52 130.991C26.52 119.323 70.0596 109.56 128.248 107.15C137.296 106.769 146.702 106.573 156.328 106.573C170.165 106.573 183.487 106.978 195.998 107.728C247.276 110.827 284.684 119.741 286.135 130.351C286.188 130.563 286.224 130.776 286.244 130.991Z" fill="#211F20"/>
<path d="M226.918 116.581C227.092 116.883 227.167 117.214 227.138 117.545C227.108 117.876 226.974 118.196 226.748 118.475C226.522 118.755 226.21 118.986 225.842 119.147C225.474 119.308 225.061 119.393 224.64 119.396L156.983 119.261L89.3569 119.15C88.934 119.148 88.5185 119.063 88.1486 118.901C87.7786 118.74 87.466 118.508 87.2394 118.226C87.0128 117.945 86.8793 117.623 86.8514 117.29C86.8234 116.958 86.9017 116.625 87.0793 116.323L121.399 58.1911L155.033 1.1416C155.237 0.80016 155.561 0.511558 155.965 0.309437C156.37 0.107315 156.839 0 157.318 0C157.797 0 158.267 0.107315 158.671 0.309437C159.076 0.511558 159.399 0.80016 159.604 1.1416L192.941 58.3141L226.918 116.581Z" fill="#211F20"/>
<path d="M141.472 57.6912C142.861 55.28 141.508 52.4375 138.449 51.3422C135.389 50.247 131.783 51.3137 130.393 53.7249L117.36 76.3374C115.971 78.7486 117.324 81.5911 120.383 82.6864C123.443 83.7816 127.049 82.7149 128.439 80.3038L141.472 57.6912Z" fill="#4C484A"/>
<path d="M115.44 95.6053C118.886 95.6053 121.68 93.4034 121.68 90.6872C121.68 87.971 118.886 85.7691 115.44 85.7691C111.994 85.7691 109.2 87.971 109.2 90.6872C109.2 93.4034 111.994 95.6053 115.44 95.6053Z" fill="#4C484A"/>
<path d="M45.1464 135.245C50.0921 137.369 55.3676 138.977 60.84 140.028C81.12 143.532 72.8676 142.487 90.48 144.675C97.6248 145.585 110.76 146.95 110.76 146.95" stroke="#494346" stroke-width="6" stroke-miterlimit="10" stroke-linecap="round"/>
<path opacity="0.72" d="M201.88 176.753H191.24C189.009 176.753 187.2 178.179 187.2 179.938C187.2 181.696 189.009 183.122 191.24 183.122H201.88C204.111 183.122 205.92 181.696 205.92 179.938C205.92 178.179 204.111 176.753 201.88 176.753Z" fill="#A55B74"/>
<path d="M177.84 169.216C179.846 167.854 182.264 166.922 184.86 166.511C186.942 166.278 189.064 166.398 191.082 166.865C193.1 167.331 194.968 168.133 196.56 169.216" stroke="#23191D" stroke-width="2" stroke-miterlimit="10" stroke-linecap="round"/>
<path opacity="0.72" d="M129.73 176.839H119.09C116.859 176.839 115.05 178.265 115.05 180.024C115.05 181.783 116.859 183.208 119.09 183.208H129.73C131.961 183.208 133.77 181.783 133.77 180.024C133.77 178.265 131.961 176.839 129.73 176.839Z" fill="#A55B74"/>
<path d="M152.88 189.048C154.836 189.78 156.957 190.198 159.12 190.278C161.808 190.374 164.486 189.952 166.92 189.048" stroke="#7F285C" stroke-width="2" stroke-miterlimit="10" stroke-linecap="round"/>
<path d="M121.914 169.155C123.925 167.799 126.341 166.868 128.934 166.45C131.016 166.218 133.137 166.339 135.155 166.806C137.173 167.272 139.041 168.073 140.634 169.155" stroke="#23191D" stroke-width="2" stroke-miterlimit="10" stroke-linecap="round"/>
<path d="M279.627 183.799C280.613 184.045 281.435 184.589 281.912 185.312C282.389 186.036 282.482 186.879 282.17 187.656L257.031 250.342L249.594 248.489L274.732 185.803C275.044 185.026 275.735 184.378 276.653 184.002C277.571 183.626 278.64 183.553 279.627 183.799Z" fill="#9B7250"/>
<path d="M262.176 247.208L256.712 243.208C250.96 238.999 241.968 239.261 236.627 243.794L234.738 245.398C229.397 249.931 229.73 257.018 235.481 261.228L240.945 265.227C246.697 269.436 255.689 269.174 261.03 264.641L262.919 263.037C268.26 258.504 267.927 251.417 262.176 247.208Z" fill="#E8C4CF"/>
<path d="M283.842 174.417L279.115 169.13L271.502 166.671L278.226 162.946L281.33 156.958L286.057 162.257L293.67 164.704L286.946 168.43L283.842 174.417Z" fill="#F0F2CE"/>
<path d="M301.782 153.638L298.678 150.147L293.67 148.524L298.1 146.077L300.144 142.118L303.264 145.61L308.272 147.233L303.841 149.679L301.782 153.638Z" fill="#F0F2CE"/>
<path d="M280.488 136.511L277.384 133.019L272.36 131.409L276.791 128.95L278.85 125.003L281.954 128.495L286.978 130.106L282.547 132.565L280.488 136.511Z" fill="#F0F2CE"/>
</svg>
