<svg width="242" height="288" viewBox="0 0 242 288" fill="none" xmlns="http://www.w3.org/2000/svg">
<g opacity="0.33">
<path d="M182.057 168.139V240.957C182.059 242.515 181.715 244.058 181.046 245.497C180.378 246.937 179.396 248.245 178.159 249.347C176.921 250.448 175.452 251.322 173.834 251.917C172.217 252.513 170.484 252.818 168.734 252.817H50.643C47.1082 252.817 43.7179 251.568 41.2172 249.344C38.7165 247.12 37.3099 244.103 37.3065 240.957V168.139C37.3065 167.095 37.3065 166.051 37.4213 165.018C37.4213 164.439 37.5105 163.883 37.5615 163.293C37.5615 162.896 37.6508 162.487 37.7018 162.158C37.791 161.398 37.9058 160.637 38.046 159.888C38.046 159.502 38.1863 159.117 38.2628 158.753C38.3393 158.39 38.3648 158.254 38.4285 158.004C38.4923 157.755 38.5815 157.267 38.6835 156.869C38.6979 156.726 38.7321 156.585 38.7855 156.449C38.7855 156.132 38.9385 155.814 39.0278 155.496C39.168 154.94 39.3338 154.361 39.4995 153.862C39.6653 153.362 39.8565 152.727 40.0478 152.182C40.2518 151.599 40.4685 151.021 40.698 150.446C40.8893 149.969 41.0805 149.504 41.2845 149.038C41.2845 148.925 41.3738 148.823 41.412 148.72L41.9858 147.461C42.1388 147.143 42.2918 146.825 42.4575 146.507C42.6233 146.19 42.84 145.736 43.044 145.372C43.6178 144.237 44.2425 143.193 44.9055 142.138C45.237 141.604 45.5813 141.082 45.9383 140.56C46.2953 140.038 46.6523 139.528 47.022 139.017L48.1568 137.519C48.6285 136.917 49.113 136.384 49.623 135.737C49.8143 135.51 49.9928 135.283 50.1968 135.067L50.3243 134.908L51.0128 134.148C51.2933 133.841 51.5865 133.546 51.867 133.251C52.1475 132.956 52.6703 132.423 53.142 132.026C54.162 131.027 55.233 130.073 56.3295 129.154C57.0945 128.507 57.885 127.872 58.6883 127.259L60.18 126.124L61.455 125.25L62.6408 124.478C63.1763 124.138 63.7118 123.797 64.26 123.48L64.8338 123.128L65.4585 122.776C66.096 122.413 66.7335 122.072 67.371 121.732C68.0085 121.391 68.646 121.107 69.2198 120.812C69.7935 120.517 70.4948 120.222 71.1068 119.95C71.7188 119.677 72.3818 119.394 73.0193 119.144C73.6568 118.894 74.2943 118.633 74.9828 118.395C75.6713 118.157 76.092 117.998 76.6658 117.805L77.367 117.578L78.5783 117.203L79.4453 116.954L80.8733 116.568C80.9535 116.556 81.0353 116.556 81.1155 116.568L83.1173 116.08L84.8003 115.728C84.8506 115.718 84.9029 115.718 84.9533 115.728C85.5228 115.614 86.0965 115.512 86.6745 115.421C87.1718 115.331 87.669 115.251 88.179 115.183L88.9823 115.081C89.3393 115.02 89.6963 114.975 90.0533 114.945L90.8055 114.865L91.902 114.752C92.3993 114.752 92.9093 114.672 93.4193 114.65H93.7125C94.3755 114.65 94.9875 114.582 95.7143 114.559C96.441 114.536 97.104 114.559 97.7925 114.559H121.61C123.726 114.559 125.804 114.661 127.87 114.843C128.38 114.843 128.903 114.945 129.413 115.013L129.961 115.07C130.53 115.138 131.104 115.217 131.682 115.308H131.963L132.893 115.455L134.436 115.739C135.112 115.864 135.788 116.012 136.451 116.159C136.496 116.147 136.545 116.147 136.591 116.159C137.177 116.284 137.751 116.432 138.325 116.579H138.503L138.758 116.647L140.276 117.067C140.773 117.203 141.283 117.362 141.78 117.521C142.277 117.68 142.609 117.782 143.055 117.93C146.285 119.015 149.404 120.348 152.375 121.913L153.65 122.606L154.007 122.81L155.818 123.877L156.404 124.251C157.106 124.683 157.807 125.148 158.495 125.613L159.005 125.976C159.299 126.169 159.579 126.374 159.86 126.589L160.739 127.247C160.944 127.386 161.139 127.533 161.326 127.69C161.759 128.031 162.193 128.371 162.601 128.723C163.009 129.075 163.493 129.461 163.876 129.858C164.258 130.255 164.705 130.596 165.151 130.993L166.337 132.128L166.426 132.219C166.834 132.616 167.229 133.024 167.637 133.444L167.981 133.819C168.275 134.125 168.555 134.432 168.836 134.749L169.065 134.999L169.97 136.055C170.225 136.35 170.48 136.656 170.723 136.963C170.965 137.269 170.939 137.235 171.041 137.382C171.1 137.437 171.152 137.498 171.194 137.564L171.819 138.381C172.142 138.79 172.448 139.21 172.737 139.641C172.941 139.913 173.132 140.197 173.311 140.47C173.339 140.495 173.361 140.526 173.375 140.56C173.502 140.742 173.63 140.923 173.744 141.116C174.407 142.104 175.019 143.125 175.619 144.169C175.925 144.703 176.218 145.304 176.498 145.804C176.779 146.303 176.894 146.575 177.085 146.939L177.429 147.676C177.429 147.779 177.531 147.881 177.569 147.983C177.812 148.494 178.028 149.004 178.245 149.515L178.385 149.844L178.653 150.525C178.793 150.888 178.934 151.24 179.061 151.603C179.189 151.966 179.278 152.193 179.38 152.5C179.584 153.079 179.775 153.635 179.941 154.248C180.068 154.668 180.196 155.088 180.311 155.519C180.553 156.37 180.757 157.221 180.935 158.084C180.935 158.288 181.025 158.481 181.063 158.685C181.152 159.094 181.229 159.514 181.292 159.934C181.299 159.998 181.299 160.062 181.292 160.127C181.589 161.826 181.789 163.539 181.892 165.257C181.968 166.119 182.057 167.129 182.057 168.139Z" fill="black"/>
<path d="M212.211 141.939C212.211 148.283 199.856 154.026 179.966 158.123C176.587 158.826 172.979 159.473 169.167 160.075C157.587 161.838 145.908 163.043 134.181 163.684C125.256 164.206 115.795 164.49 106.131 164.49C98.3662 164.49 90.831 164.308 83.4997 163.979C71.0047 163.4 59.3385 162.356 48.909 160.937C45.5047 160.472 42.228 159.961 39.1043 159.417C22.083 156.477 9.4605 152.425 3.60825 147.784C1.2495 145.922 0 143.959 0 141.939C0 131.168 35.5853 122.157 83.1427 119.932C90.5378 119.58 98.226 119.399 106.093 119.399C117.402 119.399 128.29 119.773 138.516 120.466C180.425 123.326 211 131.554 212.186 141.348C212.207 141.545 212.216 141.742 212.211 141.939Z" fill="black"/>
<path d="M163.723 124.626C163.866 124.906 163.927 125.214 163.902 125.522C163.877 125.829 163.765 126.125 163.577 126.384C163.389 126.643 163.131 126.855 162.827 127.002C162.523 127.149 162.182 127.226 161.836 127.225L106.564 127.111L51.2804 126.998C50.9326 127.005 50.5886 126.933 50.2805 126.789C49.9725 126.645 49.7105 126.434 49.5193 126.175C49.3281 125.917 49.2139 125.619 49.1874 125.31C49.161 125.001 49.2231 124.692 49.3679 124.41L77.4179 70.7389L104.958 18.0779C105.124 17.7595 105.388 17.49 105.72 17.3012C106.052 17.1123 106.438 17.0119 106.832 17.0119C107.226 17.0119 107.612 17.1123 107.944 17.3012C108.276 17.49 108.541 17.7595 108.706 18.0779L135.953 70.8411L163.723 124.626Z" fill="black"/>
<path d="M206.738 186.667C207.544 186.894 208.216 187.396 208.606 188.064C208.995 188.732 209.071 189.51 208.816 190.228L188.271 248.091L182.192 246.381L202.738 188.517C202.993 187.8 203.557 187.202 204.307 186.855C205.057 186.508 205.932 186.44 206.738 186.667Z" fill="black"/>
<path d="M192.522 245.209L188.057 241.517C183.356 237.632 176.006 237.874 171.641 242.058L170.097 243.539C165.732 247.723 166.004 254.265 170.705 258.15L175.171 261.842C179.871 265.728 187.221 265.485 191.586 261.301L193.13 259.821C197.495 255.636 197.223 249.094 192.522 245.209Z" fill="black"/>
</g>
<path d="M193.239 151.115V223.933C193.241 225.491 192.897 227.034 192.228 228.473C191.559 229.913 190.578 231.221 189.34 232.322C188.103 233.424 186.633 234.298 185.016 234.893C183.399 235.489 181.665 235.794 179.915 235.793H61.8374C58.3025 235.793 54.9123 234.544 52.4116 232.32C49.9109 230.096 48.5043 227.079 48.5009 223.933V151.115C48.5009 150.071 48.5009 149.027 48.6157 147.994C48.6157 147.415 48.7049 146.859 48.7559 146.269C48.7559 145.872 48.8452 145.463 48.8962 145.134C48.9854 144.374 49.1002 143.613 49.2404 142.864C49.3042 142.478 49.3807 142.092 49.4572 141.729C49.5337 141.366 49.5592 141.23 49.6229 140.98C49.6867 140.731 49.7759 140.243 49.8779 139.845C49.8922 139.702 49.9265 139.561 49.9799 139.425C50.0437 139.108 50.1329 138.79 50.2221 138.472C50.3624 137.916 50.5282 137.337 50.6939 136.838C50.8597 136.338 51.0509 135.703 51.2422 135.158C51.4462 134.583 51.6629 134.004 51.8924 133.422C52.0837 132.945 52.2749 132.48 52.4789 132.014C52.4789 131.901 52.5682 131.799 52.6064 131.696L53.1802 130.437C53.3332 130.119 53.4862 129.801 53.6519 129.483C53.8177 129.166 54.0344 128.712 54.2384 128.348C54.8122 127.213 55.4369 126.169 56.0999 125.114C56.4314 124.58 56.7757 124.058 57.1327 123.536C57.4897 123.014 57.8466 122.503 58.2164 121.993L59.3512 120.495C59.8229 119.893 60.3074 119.36 60.8174 118.713C61.0086 118.486 61.1872 118.259 61.3912 118.043L61.5186 117.884L62.2072 117.124C62.4876 116.817 62.7809 116.522 63.0614 116.227C63.3419 115.932 63.8647 115.399 64.3364 115.002C65.3564 114.003 66.4274 113.049 67.5239 112.13C68.2889 111.483 69.0794 110.848 69.8827 110.235L71.3744 109.1L72.6494 108.226L73.8352 107.454C74.3707 107.114 74.9061 106.773 75.4544 106.455L76.0282 106.104L76.6529 105.752C77.2904 105.389 77.9279 105.048 78.5654 104.708C79.2029 104.367 79.8404 104.083 80.4141 103.788C80.9879 103.493 81.6892 103.198 82.3012 102.926C82.9132 102.653 83.5762 102.37 84.2137 102.12C84.8512 101.87 85.4887 101.609 86.1772 101.371C86.8657 101.133 87.2864 100.974 87.8602 100.781L88.5614 100.554L89.8364 100.179L90.7034 99.9295L92.1314 99.5437C92.2116 99.532 92.2934 99.532 92.3737 99.5437L94.3754 99.0556L96.0584 98.7038C96.1088 98.6936 96.161 98.6936 96.2114 98.7038C96.7809 98.5903 97.3546 98.4882 97.9326 98.3974C98.4299 98.3066 98.9271 98.2271 99.4371 98.159L100.24 98.0569C100.597 97.9964 100.954 97.951 101.311 97.9207L102.064 97.8413L103.16 97.7278C103.657 97.7278 104.167 97.6483 104.677 97.6256H104.971C105.634 97.6256 106.246 97.5575 106.972 97.5348C107.699 97.5121 108.362 97.5348 109.051 97.5348H132.868C134.984 97.5348 137.062 97.637 139.128 97.8186C139.638 97.8186 140.161 97.9207 140.671 97.9888L141.219 98.0455C141.797 98.1136 142.371 98.1931 142.94 98.2839H143.221L144.151 98.4314L145.694 98.7152C146.37 98.84 147.046 98.9875 147.709 99.1351C147.754 99.1234 147.803 99.1234 147.849 99.1351C148.435 99.2599 149.009 99.4075 149.583 99.555H149.761L150.016 99.6231L151.534 100.043C152.031 100.179 152.541 100.338 153.038 100.497C153.535 100.656 153.867 100.758 154.313 100.906C157.544 101.991 160.662 103.324 163.633 104.889L164.908 105.582L165.265 105.786L167.076 106.853L167.662 107.227C168.364 107.658 169.065 108.124 169.753 108.589L170.263 108.952C170.557 109.145 170.837 109.35 171.118 109.565L171.997 110.223C172.202 110.361 172.398 110.509 172.584 110.666C173.017 111.007 173.451 111.347 173.859 111.699C174.267 112.051 174.751 112.437 175.134 112.834L176.409 113.969L177.595 115.104L177.684 115.194C178.092 115.592 178.487 116 178.959 116.42L179.303 116.795C179.596 117.101 179.877 117.408 180.157 117.725L180.387 117.975L181.292 119.031C181.547 119.326 181.802 119.632 182.044 119.938C182.287 120.245 182.261 120.211 182.363 120.358C182.422 120.413 182.474 120.474 182.516 120.54L183.141 121.357C183.464 121.766 183.77 122.186 184.059 122.617C184.263 122.889 184.454 123.173 184.633 123.445C184.661 123.471 184.683 123.502 184.696 123.536C184.824 123.718 184.951 123.899 185.066 124.092C185.729 125.08 186.341 126.101 186.94 127.145C187.246 127.679 187.54 128.28 187.82 128.78C188.101 129.279 188.215 129.551 188.407 129.915L188.751 130.652C188.751 130.754 188.853 130.857 188.891 130.959C189.133 131.469 189.35 131.98 189.567 132.491L189.707 132.82L189.975 133.501C190.115 133.864 190.255 134.216 190.383 134.636C190.51 135.056 190.6 135.226 190.702 135.533C190.906 136.111 191.097 136.667 191.263 137.28C191.428 137.893 191.518 138.12 191.632 138.551C191.875 139.403 192.079 140.254 192.257 141.116C192.257 141.321 192.346 141.514 192.385 141.718C192.474 142.127 192.55 142.546 192.614 142.966C192.621 143.031 192.621 143.095 192.614 143.159C192.911 144.859 193.111 146.571 193.213 148.289C193.201 149.095 193.239 150.105 193.239 151.115Z" fill="#99314F"/>
<path d="M209.24 288H34.425C37.128 259.831 55.5007 219.041 77.1757 192.665C79.1647 190.236 81.192 187.921 83.232 185.765C94.2607 174.075 105.838 166.573 116.382 166.573H125.077C135.367 166.573 146.752 173.939 157.832 185.47C159.796 187.513 161.738 189.677 163.659 191.962C185.793 218.145 205.198 259.139 209.24 288Z" fill="#3A3538"/>
<path opacity="0.28" d="M181.177 147.018V148.493C181.181 155.917 179.038 163.216 174.957 169.69C170.875 176.164 164.991 181.594 157.87 185.458C159.834 187.501 161.776 189.665 163.697 191.95C155.288 197.58 145.048 200.62 134.525 200.61H105.277C95.2274 200.615 85.4248 197.839 77.2267 192.665C79.2157 190.236 81.2429 187.921 83.2829 185.765C76.0083 181.938 69.9806 176.488 65.7949 169.954C61.6092 163.42 59.4102 156.027 59.4149 148.505V147.029C59.4057 138.422 62.2809 130.008 67.6729 122.863C73.0648 115.718 80.7284 110.168 89.6834 106.921C94.7026 105.411 99.966 104.644 105.264 104.651H134.512C141.859 104.639 149.112 106.11 155.728 108.952H155.843C163.524 112.68 169.931 118.185 174.39 124.884C178.849 131.584 181.194 139.231 181.177 147.018Z" fill="#0A0809"/>
<path d="M181.177 147.018V148.493C181.184 154.181 179.931 159.813 177.49 165.069C175.049 170.325 171.468 175.1 166.951 179.123C162.434 183.146 157.071 186.336 151.168 188.512C145.265 190.687 138.938 191.806 132.549 191.803H108.018C101.633 191.803 95.3097 190.683 89.4105 188.507C83.5114 186.332 78.1515 183.143 73.6369 179.124C69.1223 175.104 65.5416 170.332 63.0992 165.08C60.6568 159.829 59.4005 154.2 59.4022 148.516V147.041C59.3915 138.43 62.2674 130.013 67.6618 122.866C73.0563 115.718 80.7239 110.167 89.6834 106.921C95.5035 104.807 101.732 103.727 108.018 103.743H132.587C140.668 103.734 148.623 105.525 155.728 108.952H155.843C163.524 112.68 169.931 118.185 174.39 124.884C178.849 131.584 181.194 139.231 181.177 147.018Z" fill="#E8C4CF"/>
<path d="M122.872 124.456L120.653 125.976L98.5065 140.594C97.2315 141.434 95.9565 142.229 94.6177 142.955C87.8142 146.704 80.1789 149.095 72.2375 149.965C64.2961 150.835 56.2372 150.163 48.6157 147.994C48.6157 147.415 48.705 146.859 48.756 146.269C48.756 145.872 48.8452 145.463 48.8962 145.134C48.9855 144.374 49.1002 143.613 49.2405 142.864C49.3042 142.478 49.3807 142.092 49.4572 141.729C49.5337 141.366 49.5592 141.23 49.623 140.98C49.6867 140.731 49.776 140.243 49.878 139.845C49.8923 139.702 49.9266 139.561 49.98 139.425C50.0437 139.108 50.133 138.79 50.2222 138.472C50.3625 137.916 50.5282 137.337 50.694 136.838C50.8597 136.338 51.051 135.703 51.2422 135.158C51.4462 134.583 51.663 134.004 51.8925 133.422C52.071 132.956 52.2622 132.48 52.4662 132.014C52.4662 131.912 52.5555 131.799 52.6065 131.696L53.1802 130.437C53.3332 130.119 53.4862 129.801 53.652 129.483C53.8177 129.166 54.0345 128.712 54.2385 128.348C54.8122 127.213 55.437 126.169 56.1 125.114C56.4315 124.58 56.7757 124.058 57.1327 123.536C57.4897 123.014 57.8467 122.503 58.2165 121.993L59.3512 120.495L60.2565 119.36C60.6262 118.917 60.996 118.474 61.3912 118.032C61.7865 117.589 61.9267 117.419 62.2072 117.112C62.4877 116.806 62.781 116.511 63.0615 116.216C63.342 115.921 63.8647 115.387 64.3365 114.99L65.382 114.003C65.8537 113.56 66.3382 113.129 66.8355 112.698C67.065 112.493 67.2817 112.3 67.524 112.119C69.1409 110.748 70.8436 109.46 72.624 108.26L73.8097 107.488C74.3452 107.148 74.8807 106.807 75.429 106.489C75.9772 106.172 76.2322 106.013 76.704 105.786C77.3415 105.423 77.979 105.082 78.6165 104.742C80.7468 104.742 82.8754 104.852 84.9915 105.071C87.4233 105.302 89.8344 105.681 92.208 106.206C103.093 108.638 112.881 113.977 120.258 121.505C120.793 122.038 121.303 122.64 121.813 123.162C122.323 123.684 122.476 123.99 122.872 124.456Z" fill="#99314F"/>
<path d="M193.137 148.108C180.995 151.712 167.828 151.479 155.856 147.449C152.18 146.191 148.666 144.585 145.375 142.66C144.177 141.968 142.991 141.23 141.844 140.39L120.653 125.976L117.759 124.002C118.014 123.706 118.282 123.411 118.549 123.128C119.047 122.56 119.569 121.993 120.118 121.471C127.584 113.884 137.508 108.543 148.525 106.183C151.22 105.605 153.961 105.207 156.723 104.991C158.983 104.819 161.252 104.766 163.519 104.832L164.794 105.525L165.151 105.729L166.961 106.796L167.548 107.17C168.249 107.602 168.95 108.067 169.639 108.532L170.149 108.896C170.442 109.088 170.722 109.293 171.003 109.508L171.883 110.167C172.087 110.305 172.283 110.452 172.469 110.609C172.903 110.95 173.336 111.29 173.744 111.642C174.152 111.994 174.637 112.38 175.019 112.777L176.294 113.912L177.48 115.047L177.569 115.138C177.977 115.535 178.372 115.943 178.844 116.363L179.188 116.738C179.482 117.044 179.762 117.351 180.043 117.669L180.272 117.918L181.177 118.974C181.432 119.269 181.687 119.575 181.93 119.882C182.172 120.188 182.146 120.154 182.248 120.302C182.307 120.356 182.359 120.417 182.401 120.483L183.026 121.3C183.349 121.709 183.655 122.129 183.944 122.56C184.148 122.833 184.339 123.105 184.518 123.389C184.546 123.414 184.568 123.445 184.582 123.479C184.709 123.661 184.837 123.843 184.951 124.036C185.614 125.023 186.226 126.044 186.826 127.089C187.132 127.622 187.425 128.223 187.705 128.723C187.986 129.222 188.101 129.495 188.292 129.858L188.636 130.596C188.636 130.698 188.738 130.8 188.776 130.902C189.019 131.413 189.235 131.923 189.452 132.434L189.592 132.763L189.86 133.444C190 133.807 190.141 134.159 190.268 134.579C190.396 134.999 190.485 135.169 190.587 135.476C190.791 136.055 190.982 136.611 191.148 137.224C191.314 137.836 191.403 138.063 191.518 138.495C191.76 139.346 191.964 140.197 192.142 141.06C192.142 141.264 192.232 141.457 192.27 141.661C192.359 142.07 192.436 142.49 192.499 142.91C192.511 142.974 192.511 143.039 192.499 143.103C192.804 144.761 193.017 146.431 193.137 148.108Z" fill="#99314F"/>
<path d="M181.177 118.883V123.071H59.3638V120.37C64.3823 113.951 70.9078 108.58 78.4888 104.628C87.7234 99.816 98.2353 97.2887 108.936 97.3078H132.753C143.567 97.2944 154.186 99.8741 163.493 104.776C170.369 108.401 176.378 113.195 181.177 118.883Z" fill="#47383E"/>
<path d="M154.963 150.105C155.302 149.981 155.604 149.789 155.847 149.546C156.09 149.302 156.268 149.012 156.366 148.698C156.493 147.915 155.779 147.279 155.091 146.632C154.344 146.012 153.481 145.512 152.541 145.157C151.421 144.601 150.164 144.301 148.882 144.283C147.701 144.225 146.541 144.574 145.643 145.259C144.534 146.201 143.998 147.892 144.661 148.505C145.324 149.118 146.332 148.369 148.563 148.573C149.51 148.664 150.435 148.886 151.304 149.231" fill="#5E1F37"/>
<path d="M83.946 149.617C83.7292 149.526 82.671 149.061 82.5307 148.21C82.3905 147.359 83.13 146.802 83.8057 146.144C84.5568 145.532 85.419 145.037 86.3557 144.68C87.4727 144.116 88.7311 143.812 90.015 143.795C91.1943 143.744 92.3516 144.093 93.2535 144.771C94.35 145.713 94.8855 147.404 94.2352 148.028C93.585 148.652 92.5522 147.892 90.3337 148.028C89.3866 148.117 88.4614 148.339 87.5925 148.686" fill="#5E1F37"/>
<path opacity="0.44" d="M191.148 137.099C191.275 137.519 191.403 137.939 191.518 138.37C191.76 139.221 191.964 140.072 192.142 140.935C192.142 141.139 192.232 141.332 192.27 141.536C192.359 141.945 192.436 142.365 192.499 142.785C188.929 143.488 185.117 144.124 181.114 144.714C173.374 145.849 164.896 146.78 155.856 147.449C144.891 148.266 133.097 148.709 120.832 148.709C108.082 148.709 95.8289 148.232 84.5069 147.347C75.5819 146.655 67.1159 145.713 59.4531 144.555C55.8831 144.022 52.4789 143.42 49.2531 142.807C49.3169 142.422 49.3934 142.036 49.4699 141.673C49.5464 141.309 49.5719 141.173 49.6356 140.923C49.6994 140.674 49.7886 140.186 49.8906 139.789C49.905 139.645 49.9392 139.504 49.9926 139.369C50.0564 139.051 50.1456 138.733 50.2349 138.415C33.2136 135.476 20.5911 131.424 14.7389 126.782C14.7258 126.582 14.7258 126.381 14.7389 126.181C14.7389 117.101 40.1114 109.247 76.6401 105.684C79.3176 105.423 82.0716 105.184 84.8766 104.969C90.9074 104.503 97.2186 104.151 103.721 103.936C105.642 103.868 107.58 103.811 109.535 103.766C113.245 103.686 117.019 103.641 120.832 103.641C124.644 103.641 128.418 103.641 132.128 103.766L135.851 103.868H135.94C143.131 104.083 150.093 104.458 156.736 105.003C159.604 105.23 162.422 105.468 165.176 105.74C193.532 108.521 215.143 113.867 223.354 120.392C223.367 120.585 223.367 120.778 223.354 120.971C223.393 127.259 211.038 133.002 191.148 137.099Z" fill="#3A3738"/>
<path d="M223.393 120.914C223.393 127.259 211.038 133.002 191.148 137.099C187.769 137.802 184.161 138.449 180.349 139.051C168.768 140.814 157.089 142.019 145.363 142.66C136.438 143.182 126.977 143.466 117.249 143.466C109.484 143.466 101.949 143.284 94.6177 142.955C82.1227 142.376 70.4565 141.332 60.027 139.913C56.6227 139.448 53.3459 138.937 50.2222 138.393C33.2009 135.453 20.5785 131.401 14.7262 126.759C12.393 124.898 11.118 122.935 11.118 120.914C11.118 110.144 46.7032 101.133 94.2607 98.9081C101.656 98.5562 109.344 98.3746 117.211 98.3746C128.52 98.3746 139.408 98.7492 149.634 99.4415C191.543 102.302 222.118 110.53 223.303 120.324C223.346 120.519 223.376 120.716 223.393 120.914Z" fill="#211F20"/>
<path d="M174.905 107.613C175.047 107.892 175.109 108.198 175.084 108.503C175.06 108.809 174.951 109.104 174.766 109.362C174.581 109.62 174.326 109.833 174.025 109.982C173.725 110.13 173.387 110.209 173.043 110.212L117.746 110.087L62.475 109.985C62.1294 109.983 61.7898 109.904 61.4875 109.755C61.1851 109.606 60.9296 109.392 60.7444 109.132C60.5591 108.872 60.4501 108.575 60.4272 108.268C60.4044 107.961 60.4684 107.654 60.6135 107.375L88.6635 53.7149L116.152 1.05379C116.32 0.73861 116.584 0.472208 116.915 0.285634C117.245 0.0990602 117.629 0 118.02 0C118.412 0 118.795 0.0990602 119.126 0.285634C119.457 0.472208 119.721 0.73861 119.888 1.05379L147.135 53.8284L174.905 107.613Z" fill="#211F20"/>
<path d="M105.069 53.2534C106.205 51.0277 105.098 48.4039 102.598 47.3928C100.098 46.3818 97.15 47.3665 96.0142 49.5922L85.3624 70.4653C84.2266 72.691 85.3328 75.3149 87.8332 76.3259C90.3335 77.3369 93.2812 76.3522 94.417 74.1265L105.069 53.2534Z" fill="#4C484A"/>
<path d="M83.7929 88.251C86.6095 88.251 88.8929 86.2185 88.8929 83.7113C88.8929 81.204 86.6095 79.1715 83.7929 79.1715C80.9762 79.1715 78.6929 81.204 78.6929 83.7113C78.6929 86.2185 80.9762 88.251 83.7929 88.251Z" fill="#4C484A"/>
<path d="M26.3414 124.841C30.3836 126.802 34.6953 128.286 39.1679 129.256C55.7429 132.491 48.9981 131.526 63.3929 133.546C69.2324 134.386 79.9679 135.646 79.9679 135.646" stroke="#494346" stroke-width="6" stroke-miterlimit="10" stroke-linecap="round"/>
<path opacity="0.72" d="M154.441 163.157H145.745C143.921 163.157 142.443 164.473 142.443 166.096C142.443 167.72 143.921 169.036 145.745 169.036H154.441C156.264 169.036 157.743 167.72 157.743 166.096C157.743 164.473 156.264 163.157 154.441 163.157Z" fill="#A55B74"/>
<path d="M134.793 156.2C136.432 154.942 138.408 154.082 140.53 153.703C142.232 153.487 143.966 153.598 145.616 154.029C147.265 154.46 148.792 155.2 150.093 156.2" stroke="#23191D" stroke-width="2" stroke-miterlimit="10" stroke-linecap="round"/>
<path opacity="0.72" d="M95.472 163.236H86.7765C84.9527 163.236 83.4742 164.552 83.4742 166.176C83.4742 167.799 84.9527 169.115 86.7765 169.115H95.472C97.2958 169.115 98.7742 167.799 98.7742 166.176C98.7742 164.552 97.2958 163.236 95.472 163.236Z" fill="#A55B74"/>
<path d="M114.393 174.506C115.992 175.182 117.725 175.568 119.493 175.641C121.69 175.73 123.878 175.341 125.868 174.506" stroke="#7F285C" stroke-width="2" stroke-miterlimit="10" stroke-linecap="round"/>
<path d="M89.0842 156.143C90.7278 154.891 92.7022 154.032 94.8217 153.646C96.5235 153.432 98.257 153.544 99.9062 153.974C101.555 154.405 103.082 155.144 104.384 156.143" stroke="#23191D" stroke-width="2" stroke-miterlimit="10" stroke-linecap="round"/>
<path d="M217.984 169.661C218.79 169.887 219.462 170.39 219.852 171.058C220.241 171.725 220.317 172.504 220.063 173.221L199.517 231.085L193.438 229.375L213.984 171.511C214.239 170.793 214.803 170.195 215.553 169.848C216.303 169.501 217.178 169.434 217.984 169.661Z" fill="#9B7250"/>
<path d="M203.721 228.192L199.255 224.5C194.555 220.614 187.205 220.857 182.84 225.041L181.296 226.521C176.931 230.706 177.203 237.248 181.904 241.133L186.369 244.825C191.07 248.71 198.42 248.468 202.785 244.284L204.329 242.803C208.694 238.619 208.422 232.077 203.721 228.192Z" fill="#E8C4CF"/>
<path d="M221.429 161.001L217.566 156.12L211.344 153.85L216.839 150.412L219.376 144.884L223.24 149.776L229.462 152.035L223.966 155.473L221.429 161.001Z" fill="#F0F2CE"/>
<path d="M236.092 141.82L233.554 138.597L229.462 137.099L233.083 134.84L234.753 131.186L237.303 134.409L241.396 135.907L237.775 138.166L236.092 141.82Z" fill="#F0F2CE"/>
<path d="M218.688 126.01L216.151 122.787L212.045 121.3L215.666 119.031L217.349 115.387L219.886 118.611L223.992 120.097L220.371 122.367L218.688 126.01Z" fill="#F0F2CE"/>
</svg>
